<?xml version="1.0" encoding="utf-8"?>
<!-- Generator: Adobe Illustrator 18.1.0, SVG Export Plug-In . SVG Version: 6.00 Build 0)  -->
<!DOCTYPE svg PUBLIC "-//W3C//DTD SVG 1.1//EN" "http://www.w3.org/Graphics/SVG/1.1/DTD/svg11.dtd">
<svg version="1.1" id="Layer_1" xmlns="http://www.w3.org/2000/svg" xmlns:xlink="http://www.w3.org/1999/xlink" x="0px" y="0px"
	 viewBox="0 0 300 300" enable-background="new 0 0 300 300" xml:space="preserve">
<g>
	
		<rect x="135.5" y="145.2" fill="none" stroke="#505070" stroke-width="2" stroke-linecap="round" stroke-linejoin="round" stroke-miterlimit="10" width="19.3" height="19.3"/>
	
		<line fill="none" stroke="#505070" stroke-width="2" stroke-linecap="round" stroke-linejoin="round" stroke-miterlimit="10" x1="145.2" y1="290" x2="145.2" y2="164.5"/>
	
		<line fill="none" stroke="#505070" stroke-width="2" stroke-linecap="round" stroke-linejoin="round" stroke-miterlimit="10" x1="87.7" y1="289.5" x2="145.2" y2="164.5"/>
	
		<line fill="none" stroke="#505070" stroke-width="2" stroke-linecap="round" stroke-linejoin="round" stroke-miterlimit="10" x1="202.6" y1="289.5" x2="145.2" y2="164.5"/>
	
		<ellipse fill="none" stroke="#505070" stroke-width="2" stroke-linecap="round" stroke-linejoin="round" stroke-miterlimit="10" cx="261" cy="82.4" rx="29" ry="72.4"/>
	<path fill="none" stroke="#505070" stroke-width="2" stroke-linecap="round" stroke-linejoin="round" stroke-miterlimit="10" d="
		M251.4,82.4c0-24,4.3-43.4,9.7-43.4"/>
	<path fill="none" stroke="#505070" stroke-width="2" stroke-linecap="round" stroke-linejoin="round" stroke-miterlimit="10" d="
		M261,10h-48.3c-16,0-29,32.4-29,72.4s13,72.4,29,72.4H261"/>
	<path fill="none" stroke="#505070" stroke-width="2" stroke-linecap="round" stroke-linejoin="round" stroke-miterlimit="10" d="
		M106.6,145.2c-16,0-29-28.1-29-62.8s13-62.8,29-62.8"/>
	<path fill="none" stroke="#505070" stroke-width="2" stroke-linecap="round" stroke-linejoin="round" stroke-miterlimit="10" d="
		M174.1,145.2c-16,0-29-28.1-29-62.8s13-62.8,29-62.8"/>
	<path fill="none" stroke="#505070" stroke-width="2" stroke-linecap="round" stroke-linejoin="round" stroke-miterlimit="10" d="
		M198.3,19.7H87.2c-16,0-29,28.1-29,62.8s13,62.8,29,62.8h111.1c-8.7-12.5-14.6-35.9-14.6-62.8C183.8,55.5,189.7,32.2,198.3,19.7z"
		/>
	<path fill="none" stroke="#505070" stroke-width="2" stroke-linecap="round" stroke-linejoin="round" stroke-miterlimit="10" d="
		M66.4,39H29.3C18.6,39,10,58.4,10,82.4c0,24,8.6,43.4,19.3,43.4h37.1c-5-11.3-8.1-26.6-8.1-43.4S61.4,50.2,66.4,39z"/>
	<path fill="none" stroke="#505070" stroke-width="2" stroke-linecap="round" stroke-linejoin="round" stroke-miterlimit="10" d="
		M48.6,39C38,39,29.3,58.4,29.3,82.4c0,24,8.6,43.4,19.3,43.4"/>
	
		<line fill="none" stroke="#505070" stroke-width="2" stroke-linecap="round" stroke-linejoin="round" stroke-miterlimit="10" x1="191.2" y1="130.7" x2="155.6" y2="130.7"/>
	
		<line fill="none" stroke="#505070" stroke-width="2" stroke-linecap="round" stroke-linejoin="round" stroke-miterlimit="10" x1="191.2" y1="34.1" x2="155.6" y2="34.1"/>
	
		<line fill="none" stroke="#505070" stroke-width="2" stroke-linecap="round" stroke-linejoin="round" stroke-miterlimit="10" x1="186.2" y1="53.4" x2="148.4" y2="53.4"/>
	
		<line fill="none" stroke="#505070" stroke-width="2" stroke-linecap="round" stroke-linejoin="round" stroke-miterlimit="10" x1="186.2" y1="111.4" x2="148.4" y2="111.4"/>
	
		<line fill="none" stroke="#505070" stroke-width="2" stroke-linecap="round" stroke-linejoin="round" stroke-miterlimit="10" x1="183.8" y1="92.1" x2="145.5" y2="92.1"/>
	
		<line fill="none" stroke="#505070" stroke-width="2" stroke-linecap="round" stroke-linejoin="round" stroke-miterlimit="10" x1="183.8" y1="72.8" x2="145.5" y2="72.8"/>
	
		<line fill="none" stroke="#505070" stroke-width="2" stroke-linecap="round" stroke-linejoin="round" stroke-miterlimit="10" x1="232.1" y1="82.4" x2="222.4" y2="82.4"/>
	
		<line fill="none" stroke="#505070" stroke-width="2" stroke-linecap="round" stroke-linejoin="round" stroke-miterlimit="10" x1="125.9" y1="39" x2="116.2" y2="39"/>
	
		<line fill="none" stroke="#505070" stroke-width="2" stroke-linecap="round" stroke-linejoin="round" stroke-miterlimit="10" x1="236.6" y1="43.8" x2="227.2" y2="43.8"/>
	
		<line fill="none" stroke="#505070" stroke-width="2" stroke-linecap="round" stroke-linejoin="round" stroke-miterlimit="10" x1="236.6" y1="121" x2="227.2" y2="121"/>
</g>
</svg>
