<?xml version="1.0" encoding="utf-8"?>
<!-- Generator: Adobe Illustrator 18.1.0, SVG Export Plug-In . SVG Version: 6.00 Build 0)  -->
<!DOCTYPE svg PUBLIC "-//W3C//DTD SVG 1.1//EN" "http://www.w3.org/Graphics/SVG/1.1/DTD/svg11.dtd">
<svg version="1.1" id="Layer_2_1_" xmlns="http://www.w3.org/2000/svg" xmlns:xlink="http://www.w3.org/1999/xlink" x="0px" y="0px"
	 viewBox="0 0 300 300" enable-background="new 0 0 300 300" xml:space="preserve">
<g>
	<path fill="none" stroke="#505070" stroke-width="5" stroke-linecap="round" stroke-linejoin="round" stroke-miterlimit="10" d="
		M267.8,272.5H32.2c-5.2,0-9.4-4.2-9.4-9.4V150c0-5.2,4.2-9.4,9.4-9.4h235.6c5.2,0,9.4,4.2,9.4,9.4v113.1
		C277.2,268.3,273,272.5,267.8,272.5z"/>
	
		<line fill="none" stroke="#505070" stroke-width="5" stroke-linecap="round" stroke-linejoin="round" stroke-miterlimit="10" x1="51" y1="178.3" x2="51" y2="178.3"/>
	
		<line fill="none" stroke="#505070" stroke-width="5" stroke-linecap="round" stroke-linejoin="round" stroke-miterlimit="10" x1="79.3" y1="178.3" x2="79.3" y2="178.3"/>
	
		<line fill="none" stroke="#505070" stroke-width="5" stroke-linecap="round" stroke-linejoin="round" stroke-miterlimit="10" x1="107.6" y1="178.3" x2="107.6" y2="178.3"/>
	
		<line fill="none" stroke="#505070" stroke-width="5" stroke-linecap="round" stroke-linejoin="round" stroke-miterlimit="10" x1="135.9" y1="178.3" x2="135.9" y2="178.3"/>
	
		<line fill="none" stroke="#505070" stroke-width="5" stroke-linecap="round" stroke-linejoin="round" stroke-miterlimit="10" x1="164.1" y1="178.3" x2="164.1" y2="178.3"/>
	
		<line fill="none" stroke="#505070" stroke-width="5" stroke-linecap="round" stroke-linejoin="round" stroke-miterlimit="10" x1="192.4" y1="178.3" x2="192.4" y2="178.3"/>
	
		<line fill="none" stroke="#505070" stroke-width="5" stroke-linecap="round" stroke-linejoin="round" stroke-miterlimit="10" x1="220.7" y1="178.3" x2="220.7" y2="178.3"/>
	
		<line fill="none" stroke="#505070" stroke-width="5" stroke-linecap="round" stroke-linejoin="round" stroke-miterlimit="10" x1="249" y1="178.3" x2="249" y2="178.3"/>
	
		<line fill="none" stroke="#505070" stroke-width="5" stroke-linecap="round" stroke-linejoin="round" stroke-miterlimit="10" x1="79.3" y1="206.5" x2="79.3" y2="206.5"/>
	
		<line fill="none" stroke="#505070" stroke-width="5" stroke-linecap="round" stroke-linejoin="round" stroke-miterlimit="10" x1="51" y1="206.5" x2="51" y2="206.5"/>
	
		<line fill="none" stroke="#505070" stroke-width="5" stroke-linecap="round" stroke-linejoin="round" stroke-miterlimit="10" x1="107.6" y1="206.5" x2="107.6" y2="206.5"/>
	
		<line fill="none" stroke="#505070" stroke-width="5" stroke-linecap="round" stroke-linejoin="round" stroke-miterlimit="10" x1="135.9" y1="206.5" x2="135.9" y2="206.5"/>
	
		<line fill="none" stroke="#505070" stroke-width="5" stroke-linecap="round" stroke-linejoin="round" stroke-miterlimit="10" x1="164.1" y1="206.5" x2="164.1" y2="206.5"/>
	
		<line fill="none" stroke="#505070" stroke-width="5" stroke-linecap="round" stroke-linejoin="round" stroke-miterlimit="10" x1="192.4" y1="206.5" x2="192.4" y2="206.5"/>
	
		<line fill="none" stroke="#505070" stroke-width="5" stroke-linecap="round" stroke-linejoin="round" stroke-miterlimit="10" x1="220.7" y1="206.5" x2="220.7" y2="206.5"/>
	
		<line fill="none" stroke="#505070" stroke-width="5" stroke-linecap="round" stroke-linejoin="round" stroke-miterlimit="10" x1="249" y1="206.5" x2="249" y2="206.5"/>
	
		<line fill="none" stroke="#505070" stroke-width="5" stroke-linecap="round" stroke-linejoin="round" stroke-miterlimit="10" x1="51" y1="234.8" x2="51" y2="234.8"/>
	
		<line fill="none" stroke="#505070" stroke-width="5" stroke-linecap="round" stroke-linejoin="round" stroke-miterlimit="10" x1="79.3" y1="234.8" x2="79.3" y2="234.8"/>
	
		<line fill="none" stroke="#505070" stroke-width="5" stroke-linecap="round" stroke-linejoin="round" stroke-miterlimit="10" x1="107.6" y1="234.8" x2="192.4" y2="234.8"/>
	<path fill="none" stroke="#505070" stroke-width="5" stroke-linecap="round" stroke-linejoin="round" stroke-miterlimit="10" d="
		M145.3,140.6v-37.7c0-10.4,8.4-18.8,18.8-18.8h28.3c10.4,0,18.8-8.4,18.8-18.8V27.5"/>
	
		<line fill="none" stroke="#505070" stroke-width="5" stroke-linecap="round" stroke-linejoin="round" stroke-miterlimit="10" x1="220.7" y1="234.8" x2="220.7" y2="234.8"/>
	
		<line fill="none" stroke="#505070" stroke-width="5" stroke-linecap="round" stroke-linejoin="round" stroke-miterlimit="10" x1="249" y1="234.8" x2="249" y2="234.8"/>
</g>
</svg>
