<?xml version="1.0" encoding="utf-8"?>
<!-- Generator: Adobe Illustrator 18.1.0, SVG Export Plug-In . SVG Version: 6.00 Build 0)  -->
<!DOCTYPE svg PUBLIC "-//W3C//DTD SVG 1.1//EN" "http://www.w3.org/Graphics/SVG/1.1/DTD/svg11.dtd">
<svg version="1.1" id="Layer_1" xmlns="http://www.w3.org/2000/svg" xmlns:xlink="http://www.w3.org/1999/xlink" x="0px" y="0px"
	 viewBox="0 90 300 120" enable-background="new 0 90 300 120" xml:space="preserve">
<g>
	<path fill="#5B605B" d="M4.4,150.1c0-11.8,0-23.6,0-35.4c0-5.8,5.4-11.3,11.3-11.2c8.1,0.2,16.3,0.5,24.4,0.9
		c4.3,0.2,8.5,0.4,12.8,0.5c7.8,0.3,15.6,0.6,23.4,0.9c4.5,0.2,9.1,0.4,13.6,0.6c7.5,0.3,15,0.6,22.5,0.9c4.6,0.2,9.3,0.4,13.9,0.6
		c7.4,0.3,14.7,0.6,22.1,0.9c4.7,0.2,9.4,0.4,14.1,0.6c7.4,0.3,14.7,0.6,22.1,0.9c4.8,0.2,9.5,0.4,14.2,0.6c7.3,0.3,14.7,0.6,22,0.9
		c4.6,0.2,9.2,0.4,13.8,0.6c7.5,0.3,15,0.6,22.5,0.9c4.5,0.2,9,0.3,13.5,0.6c5.4,0.3,10.9,0.3,16.3,0.9c5.3,0.5,9.2,5,9.2,10.3
		c0.1,17,0.1,34.1,0,51.1c0,5-4.5,9.6-9.6,10c-4.3,0.3-8.6,0.4-12.9,0.6c-10.4,0.4-20.8,0.8-31.2,1.2c-7.1,0.3-14.2,0.6-21.2,0.8
		c-7.3,0.3-14.6,0.6-21.8,0.9c-7.2,0.3-14.5,0.6-21.7,0.9c-7.2,0.3-14.4,0.6-21.5,0.9c-7.3,0.3-14.6,0.6-21.8,0.9
		c-7.2,0.3-14.5,0.6-21.7,0.9c-7.2,0.3-14.5,0.6-21.7,0.9c-7.2,0.3-14.5,0.6-21.7,0.9c-7.2,0.3-14.5,0.6-21.7,0.9
		c-7.3,0.3-14.6,0.6-21.8,0.9c-3.3,0.1-6.6,0.4-9.9,0.5c-6.5,0.2-11.7-6.5-11.6-11.5C4.6,173.6,4.5,161.8,4.4,150.1
		C4.4,150.1,4.4,150.1,4.4,150.1z M30.6,161.1c0.5-2.7,1.2-5.1,1.5-7.5c0.2-1.3,0.8-1.6,2-1.5c3.5,0.1,7.1,0.1,10.7,0
		c2.3,0,3.7-1.8,3.7-4.4c0-1.8-1.2-2.6-3.5-2.6c-2.5,0-5.1,0-7.6,0c-1,0-2.1,0-3.3,0c0.5-2.4,1.1-4.5,1.4-6.7
		c0.2-1.2,0.7-1.6,1.9-1.6c4.8,0.1,9.5,0.1,14.3,0c1.2,0,2.6-0.3,3.5-1c1.5-1.2,1.9-3.1,1.4-4.8c-0.5-1.7-2.2-1.8-3.7-1.8
		c-6.4,0-12.8,0-19.1,0c-3.4,0-5,1.4-5.7,4.7c-1.6,7.6-3.3,15.2-4.8,22.9c-0.6,2.8-1.2,5.6-1.5,8.5c-0.2,1.8,1,3.1,2.9,3.4
		c0.7,0.1,1.3,0.2,2,0.2c6.3,0,12.6,0,18.9,0c3.2,0,4.4-1.1,4.9-4.2c0.3-1.6-0.4-2.7-2-3.1c-0.7-0.2-1.4-0.2-2.1-0.2
		C40.9,161.1,35.9,161.1,30.6,161.1z M176.6,144.3c0.3-1.4,0.6-2.6,0.8-3.7c0.5-2.8,1.1-5.6,1.5-8.5c0.2-1.1-0.4-1.9-1.4-2.4
		c-3.2-1.5-6.1-0.1-6.8,3.3c-2.4,11.3-4.8,22.6-7.2,33.9c-0.2,1,0.1,1.6,1.1,1.8c3.1,0.6,5.4,0,6.9-2.7c0.2-0.4,0.4-0.7,0.5-0.8
		c0.8,0.6,1.5,1.3,2.3,1.9c0.8,0.6,1.7,1.2,2.6,1.5c4.7,1.9,10.1,0.6,13.7-3.2c3.7-4,5.2-8.8,4.9-14.1c-0.2-3.5-1.6-6.6-4.5-8.8
		C187.5,139.9,180.8,139.6,176.6,144.3z M122,145.3c-0.4-3-2.2-4.5-4.9-4.3c-1.3,0.1-2,0.6-2.3,2c-0.8,4.4-1.8,8.8-2.8,13.2
		c-0.6,3.1-1.3,6.2-1.8,9.3c-0.3,1.8,0.5,3.1,2.2,3.3c3.5,0.3,5.1,0.5,6-3.8c0.9-4.1,1.8-8.1,2.6-12.2c0.5-2.4,1.9-3.8,4-4.7
		c1.7-0.7,3.5-0.8,5,0.5c1.5,1.2,1.7,2.9,1.2,4.7c-0.7,3.1-1.6,6.2-2.2,9.4c-0.8,4,1,6.4,5.1,6.7c2.1,0.1,5-0.7,5.2-3.4
		c-2.3-1.3-2.4-1.4-1.8-4.2c0.7-3.5,1.8-6.9,2.4-10.3c1.1-6.4-2.9-10.9-8.8-10.7C127.3,140.7,124.4,142.3,122,145.3z M88.7,157.6
		c0.7,0,1.5,0.1,2.2,0.1c4.7,0.3,9.4,0.2,13.8-1.6c3.2-1.3,4.7-3.8,4.7-7.2c0-3.4-1.6-5.7-4.6-7.1c-2.2-1-4.6-1.1-7-1.1
		c-7.2,0.1-13.8,4.9-15.7,11.9c-1.2,4.1-1.3,8.2,1.2,11.9c2.1,3.1,5.3,4.4,9,4.8c3.9,0.4,7.7,0.1,11.1-2c1.5-0.9,2.6-2.1,2.9-3.9
		c0.2-1.4-0.5-2.6-1.8-3.3c-1.2-0.7-2-0.3-2.9,0.7c-2.6,2.7-6.9,3.6-10,2.2C89.4,161.9,88.2,159.8,88.7,157.6z M264,157.6
		c1.4,0.1,2.8,0.2,4.2,0.2c4,0,8.1-0.1,11.9-1.7c3.3-1.4,4.9-3.9,4.8-7.6c-0.1-3.2-1.9-5.7-5-7c-2.9-1.2-6-1.3-9.1-0.7
		c-8,1.6-12.8,6.7-13.9,14.7c-0.7,5.6,1.3,10.8,7,12.7c2.5,0.8,5.3,1,7.9,1c2.5,0,5-0.7,7.2-2.2c1.3-1,2.4-2.1,2.7-3.8
		c0.2-1.4-0.5-2.6-1.9-3.4c-1.3-0.7-2-0.1-2.8,0.8c-2,2.1-4.5,2.9-7.3,2.8C266,163.3,263.6,160.9,264,157.6z M52.4,144.5
		c2.1,0.4,2.8,1.9,3,3.6c0.8,5.2,1.5,10.4,2.3,15.6c0.3,1.6,0.1,3.4,1.8,4.5c2.3,1.5,6.4,0.9,7.9-1.4c4.2-6.3,8.4-12.7,12.4-19.2
		c2-3.2,0.4-6.1-3.3-6.7c-1-0.1-1.6,0.1-2.2,1c-3,5.4-6.1,10.7-9.1,16c-0.3,0.4-0.5,0.9-0.9,1.4c-0.4-4.1-0.8-8-1.3-11.9
		c-0.3-2.1-0.9-4.1-2.5-5.5c-1.6-1.3-3.4-1.6-5.3-1C53.8,141.6,52.8,142.7,52.4,144.5z M157.3,141.2c0.4-1.8,0.7-3.4,1.1-4.9
		c0.3-1.2-0.1-1.8-1.3-2.1c-3.1-0.9-6,0.5-7.1,3.5c-0.3,0.7-0.5,1.6-0.6,2.4c-0.1,1-0.6,1.2-1.5,1.2c-2.9,0-3.9,1-4.2,3.8
		c-0.1,1.2,0.3,2.1,1.5,2.4c0.7,0.2,1.6,0.3,2.4,0.5c-0.1,0.5-0.1,1-0.2,1.4c-0.7,3.9-1.6,7.8-2.2,11.7c-0.5,3,0.8,6,3.3,7.3
		c3,1.5,6.2,1.6,9.3,0.2c2-0.9,3.1-2.9,2.8-4.7c-0.3-1.8-1-2.2-2.6-1.3c-1.2,0.6-2.5,1.1-3.8,0.1c-1.2-0.9-1-2.2-0.8-3.5
		c0.7-3.3,1.5-6.5,2.1-9.8c0.2-1.2,0.7-1.4,1.8-1.4c1.7,0,3.4,0,5-0.3c1.5-0.3,2.6-2.4,2.4-4.1c-0.1-1.4-1.2-2.1-3.1-2.1
		C160.3,141.2,158.9,141.2,157.3,141.2z M240.2,147.9c-0.2,1.2-0.5,2.2-0.6,3.2c-0.6,3.9-1.4,7.8-1.8,11.7c-0.3,2.7,1.5,5.1,4.2,5.9
		c1.8,0.5,3.7,0.7,5.5,0.5c3.2-0.3,5.3-1.9,5.6-4.3c0.1-0.9-0.4-2-0.8-2.9c-0.1-0.1-1.3,0.2-1.9,0.5c-1.2,0.5-2.5,0.9-3.7,0
		c-1-0.8-1-2-0.7-3.3c0.7-3.3,1.4-6.6,2.1-10c0.2-1.2,0.7-1.6,1.9-1.5c1.7,0.1,3.4,0,5-0.3c1.5-0.3,2.6-2.6,2.3-4.3
		c-0.2-1.3-1.3-1.9-3.1-1.9c-1.3,0-2.7,0-4.2,0c0.4-1.8,0.6-3.5,1-5.2c0.3-1-0.1-1.5-1.1-1.8c-3.3-0.8-6.8-0.1-7.7,5
		c-0.3,1.4-0.6,2.2-2.3,2c-2.2-0.1-3.4,1.3-3.5,3.8c0,1.9,0.7,2.5,3.2,2.7C239.7,147.8,239.9,147.8,240.2,147.9z M208.9,144.9
		c-0.6-2.9-2.5-4.2-5.2-3.9c-1.1,0.1-1.8,0.6-2,1.8c-0.5,2.6-1.1,5.2-1.6,7.9c-1,4.9-2.1,9.8-3,14.7c-0.1,0.8,0.3,2.1,0.9,2.6
		c2.2,2,6.3,0.7,7.1-2.2c0.6-2.2,1-4.5,1.5-6.7c0.7-3.1,1.3-6.2,3.2-8.8c1.9-2.6,4.3-3,7-1.2c0.3,0.2,0.8,0.4,1.1,0.3
		c1.6-0.3,3-2.4,3.2-4.5c0.2-1.7-0.7-3.1-2.3-3.9c-2.4-1.1-5.6-0.6-7.6,1.4C210.3,143.2,209.7,144,208.9,144.9z M231.2,166.2
		c-2.3-1.1-2.6-1.6-2.1-4.2c0.2-0.9,0.4-1.8,0.5-2.7c1-4.9,2.1-9.8,3.1-14.7c0.4-1.9-0.4-3.1-2.2-3.5c-3.4-0.9-5.3,0.3-6,3.8
		c-1.2,5.7-2.4,11.4-3.6,17.1c-0.9,4.4,0.9,6.8,5.2,7.1C228.3,169.4,231,168.6,231.2,166.2z M231.1,137.4c3,0,4.8-1.7,4.8-4.5
		c0-2.4-1.6-3.8-4.4-3.8c-2.9,0-4.8,1.8-4.8,4.6C226.7,136.2,228.2,137.4,231.1,137.4z"/>
	<path fill="#5B605B" d="M187.6,153.7c-0.3,2.4-0.7,4.8-2.5,6.8c-1.9,2.2-5.1,3-7.8,1.8c-2.4-1.1-3.5-3.7-3.1-6.7
		c0.4-2.9,1.1-5.6,4-7.2c1.6-0.9,3.3-1.4,5.1-0.9C186,148,187.7,150.4,187.6,153.7z"/>
	<path fill="#5B605B" d="M89.7,152.3c1.3-4,6.2-6.9,10.1-5.9c1.2,0.3,2.4,0.8,2.6,2.3c0.1,1.6-1,2.3-2.2,2.8
		C98.1,152.4,92.9,152.8,89.7,152.3z"/>
	<path fill="#5B605B" d="M265,152.4c1.7-4.1,5.8-6.6,9.8-6.1c1.6,0.2,2.8,1.2,2.9,2.3c0.1,1.3-0.6,2.3-2.3,2.9
		C272.1,152.8,268.6,152.5,265,152.4z"/>
</g>
</svg>
