<?xml version="1.0" encoding="utf-8"?>
<!-- Generator: Adobe Illustrator 18.1.0, SVG Export Plug-In . SVG Version: 6.00 Build 0)  -->
<!DOCTYPE svg PUBLIC "-//W3C//DTD SVG 1.1//EN" "http://www.w3.org/Graphics/SVG/1.1/DTD/svg11.dtd">
<svg version="1.1" id="Layer_1" xmlns="http://www.w3.org/2000/svg" xmlns:xlink="http://www.w3.org/1999/xlink" x="0px" y="0px"
	 viewBox="0 0 1042 348" enable-background="new 0 0 1042 348" xml:space="preserve">
<g>
	<path fill="#B6C0B5" d="M15.4,174.3c0-41,0-82,0-123c0-20.3,18.9-39.3,39.2-38.8c28.3,0.7,56.5,1.9,84.8,3
		c14.8,0.6,29.6,1.3,44.3,1.9c27.1,1.1,54.2,2,81.3,3.1c15.8,0.6,31.6,1.3,47.4,2c26.1,1,52.2,2,78.3,3c16.1,0.6,32.2,1.3,48.3,2
		c25.6,1,51.2,2,76.8,3c16.3,0.6,32.6,1.3,48.9,2c25.6,1,51.2,2,76.8,3c16.5,0.7,32.9,1.3,49.4,2c25.4,1,50.9,2,76.3,3
		c16,0.6,31.9,1.3,47.8,2c26.1,1,52.2,2,78.3,3c15.6,0.6,31.2,1.2,46.9,2c18.9,0.9,37.9,1.1,56.7,3.1c18.3,1.9,31.9,17.5,32,35.8
		c0.3,59.2,0.3,118.3,0,177.5c-0.1,17.4-15.7,33.5-33.2,34.8c-14.9,1.1-29.9,1.5-44.9,2.1c-36.1,1.5-72.2,2.9-108.3,4.3
		c-24.6,1-49.2,2-73.8,2.9c-25.3,1-50.6,2-75.8,3c-25.1,1-50.2,2-75.3,3c-24.9,1-49.9,2-74.8,3c-25.3,1-50.6,2-75.8,3
		c-25.1,1-50.2,2-75.3,3c-25.1,1-50.2,2-75.3,3c-25.1,1-50.2,2-75.3,3c-25.1,1-50.2,2-75.3,3c-25.3,1-50.6,2-75.8,3
		c-11.5,0.5-22.9,1.3-34.4,1.6c-22.5,0.6-40.5-22.5-40.2-39.8c0.7-40.8,0.2-81.7,0.2-122.5C15.3,174.3,15.3,174.3,15.4,174.3z
		 M106.4,212.7c1.9-9.3,4-17.6,5.3-26.1c0.7-4.6,2.8-5.4,6.9-5.3c12.3,0.2,24.7,0.2,37,0c8-0.1,12.7-6.1,12.7-15.4
		c0-6.1-4-9.2-12.2-9.2c-8.8-0.1-17.7,0-26.5,0c-3.6,0-7.2,0-11.4,0c1.8-8.3,3.7-15.6,5-23.1c0.7-4,2.3-5.5,6.5-5.5
		c16.5,0.2,33,0.3,49.5-0.1c4.1-0.1,9-1,12-3.4c5.1-4.1,6.6-10.7,4.7-16.8c-1.9-5.9-7.7-6.1-13-6.1c-22.2,0-44.3-0.1-66.5,0
		c-11.7,0-17.4,4.8-19.8,16.2c-5.6,26.5-11.3,52.9-16.7,79.4c-2,9.7-4,19.5-5.1,29.4c-0.7,6.3,3.6,10.6,9.9,11.7
		c2.3,0.4,4.6,0.7,6.9,0.7c21.8,0.1,43.6,0.1,65.5,0c11.1,0,15.3-3.7,17-14.6c0.9-5.6-1.5-9.4-7-10.8c-2.4-0.6-4.9-0.8-7.4-0.8
		C142.2,212.7,124.8,212.7,106.4,212.7z M613.3,154.1c1.1-5,2.1-9,2.8-13c1.8-9.8,3.7-19.5,5.3-29.4c0.6-3.9-1.4-6.6-5-8.3
		c-11-5.2-21.1-0.5-23.6,11.3c-8.3,39.3-16.5,78.6-24.9,117.9c-0.8,3.5,0.5,5.5,3.9,6.2c10.8,2.2,18.9,0,23.9-9.3
		c0.7-1.3,1.4-2.5,1.6-2.9c2.7,2.2,5.3,4.6,8.1,6.6c2.9,2,5.8,4,9,5.3c16.2,6.5,35.1,2.1,47.5-11.1c12.9-13.8,18.2-30.4,17.1-49
		c-0.7-12.3-5.4-22.9-15.8-30.4C651.1,139,628.1,137.8,613.3,154.1z M423.7,157.7c-1.5-10.4-7.7-15.6-17.1-15c-4.6,0.3-7,2.2-7.9,7
		c-2.9,15.3-6.4,30.5-9.6,45.8c-2.2,10.7-4.6,21.4-6.4,32.2c-1.1,6.3,1.9,10.8,7.7,11.3c12.1,1,17.6,1.9,21-13.3
		c3.1-14.1,6.1-28.2,8.9-42.4c1.6-8.2,6.7-13.3,13.8-16.4c5.9-2.6,12.2-2.8,17.5,1.6c5.2,4.2,5.9,10.1,4.3,16.4
		c-2.6,10.8-5.4,21.6-7.7,32.5c-2.9,14,3.4,22.4,17.6,23.4c7.3,0.5,17.2-2.6,17.9-11.7c-8-4.5-8.4-4.8-6.3-14.6
		c2.6-12,6.4-23.8,8.4-35.8c3.8-22.1-10.2-37.7-30.4-37.2C442.1,141.7,432.2,147.2,423.7,157.7z M308.1,200.3
		c2.5,0.1,5.1,0.3,7.7,0.4c16.4,0.9,32.7,0.7,48.1-5.6c11.1-4.5,16.3-13.3,16.3-25.1c0-11.7-5.6-19.9-16.1-24.7
		c-7.8-3.6-16-3.8-24.4-3.8c-25.1,0.2-47.9,17.1-54.6,41.3c-4,14.2-4.4,28.4,4.3,41.3c7.3,10.9,18.5,15.2,31.1,16.6
		c13.5,1.5,26.6,0.3,38.5-7.1c5.1-3.2,9-7.4,10.1-13.6c0.8-4.7-1.6-8.9-6.1-11.5c-4.3-2.5-6.9-1.1-10.1,2.4
		c-8.9,9.5-23.9,12.5-34.9,7.6C310.6,215.2,306.5,207.9,308.1,200.3z M916.8,200.3c5,0.3,9.8,0.8,14.6,0.8c14,0,28-0.3,41.2-5.8
		c11.6-4.8,17-13.5,16.8-26.3c-0.2-11.1-6.5-19.9-17.5-24.3c-10.2-4.1-21-4.4-31.5-2.4c-27.7,5.4-44.6,23.2-48.3,51.2
		c-2.6,19.4,4.6,37.6,24.4,44c8.6,2.8,18.3,3.3,27.5,3.4c8.8,0.1,17.4-2.5,24.9-7.8c4.6-3.3,8.3-7.2,9.3-13.1
		c0.8-5-1.8-9.2-6.5-11.8c-4.4-2.5-6.8-0.4-9.7,2.7c-6.8,7.2-15.6,10.1-25.3,9.7C923.8,220.1,915.7,212,916.8,200.3z M182.1,155
		c7.2,1.5,9.6,6.5,10.5,12.4c2.8,18,5.3,36.1,8.1,54.1c0.9,5.6,0.4,11.9,6.1,15.6c7.9,5.2,22.3,3,27.5-4.9
		c14.6-22,29.1-44.2,43.2-66.6c7-11.2,1.5-21.1-11.6-23.1c-3.6-0.5-5.7,0.2-7.6,3.6c-10.4,18.6-21.1,37-31.7,55.5
		c-0.9,1.5-1.8,3-3,4.8c-1.5-14.2-2.8-27.7-4.4-41.2c-0.9-7.2-3-14.1-8.8-19c-5.4-4.6-11.7-5.5-18.3-3.4
		C186.8,144.8,183.5,148.7,182.1,155z M546.5,143.6c1.3-6.2,2.4-11.7,3.7-17.1c1-4.1-0.4-6.1-4.4-7.2c-10.7-3.1-20.8,1.6-24.6,12
		c-1,2.6-1.9,5.4-2.2,8.2c-0.3,3.6-2.1,4.2-5.3,4.3c-9.9,0-13.4,3.4-14.5,13.1c-0.5,4.2,1.2,7.2,5.2,8.5c2.6,0.8,5.4,1,8.5,1.6
		c-0.3,1.8-0.5,3.4-0.8,5c-2.6,13.5-5.5,27-7.8,40.5c-1.8,10.5,2.9,20.9,11.4,25.2c10.5,5.3,21.5,5.4,32.3,0.6
		c7-3.1,10.8-10.1,9.8-16.4c-1-6.4-3.4-7.6-9-4.6c-4.3,2.2-8.8,3.7-13.1,0.5c-4.2-3.2-3.6-7.8-2.7-12.3c2.5-11.4,5.1-22.7,7.2-34.1
		c0.8-4.1,2.6-5,6.3-5c5.8,0.1,11.7,0.1,17.4-0.9c5.1-0.9,9.1-8.4,8.4-14.3c-0.5-4.7-4.3-7.3-10.8-7.4
		C556.7,143.6,551.9,143.6,546.5,143.6z M834.4,166.7c-0.8,4.1-1.7,7.7-2.2,11.2c-2.2,13.6-5,27.1-6.3,40.7
		c-0.9,9.5,5.3,17.8,14.5,20.4c6.1,1.7,12.8,2.4,19.1,1.9c11.1-1,18.3-6.7,19.3-15c0.4-3.2-1.4-6.9-2.8-10.1
		c-0.2-0.4-4.4,0.8-6.6,1.7c-4.3,1.7-8.7,3.2-12.7-0.1c-3.6-2.9-3.6-7.1-2.6-11.4c2.6-11.5,5-23,7.2-34.6c0.8-4,2.4-5.4,6.6-5.3
		c5.8,0.2,11.7,0.1,17.4-0.9c5.2-0.9,9.1-9,8.1-14.9c-0.8-4.4-4.4-6.7-10.8-6.7c-4.6,0-9.3,0-14.7,0c1.3-6.3,2.2-12.2,3.6-17.9
		c0.9-3.6-0.4-5.3-3.7-6.2c-11.6-2.9-23.6-0.3-26.9,17.2c-0.9,4.9-2.2,7.5-8.1,7.1c-7.7-0.5-11.9,4.6-12.1,13.2
		c-0.1,6.5,2.6,8.7,11.2,9.3C832.5,166.3,833.1,166.5,834.4,166.7z M725.6,156.3c-2.2-9.9-8.8-14.7-18-13.6
		c-3.9,0.5-6.2,2.2-6.9,6.4c-1.6,9.1-3.7,18.2-5.6,27.3c-3.5,17-7.2,34.1-10.3,51.2c-0.5,2.9,0.9,7.3,3,9.2
		c7.5,6.8,21.9,2.3,24.5-7.5c2.1-7.7,3.4-15.5,5.1-23.3c2.3-10.7,4.4-21.6,11.1-30.7c6.6-9,15-10.3,24.3-4.1
		c1.1,0.7,2.7,1.5,3.9,1.2c5.5-1.1,10.3-8.3,11.1-15.8c0.6-5.9-2.4-10.9-8.1-13.5c-8.2-3.8-19.3-2-26.5,4.7
		C730.5,150.4,728.3,153.3,725.6,156.3z M803.2,230.4c-8.1-3.7-9.1-5.7-7.2-14.5c0.6-3.1,1.3-6.2,1.9-9.3c3.6-17,7.3-34,10.8-51.1
		c1.3-6.5-1.5-10.6-7.8-12.3c-11.7-3.1-18.4,1.1-21,13.3c-4.2,19.8-8.4,39.6-12.5,59.4c-3.1,15.2,3,23.5,18.2,24.8
		C793,241.4,802.5,238.5,803.2,230.4z M802.8,130.4c10.3,0,16.6-5.9,16.7-15.6c0-8.4-5.5-13.2-15.2-13.2c-9.9,0-16.6,6.4-16.7,15.9
		C787.5,126.2,792.5,130.4,802.8,130.4z"/>
	<path fill="#B6C0B5" d="M651.6,186.7c-0.9,8.4-2.6,16.7-8.6,23.6c-6.7,7.8-17.8,10.4-27.1,6.1c-8.4-3.9-12.3-12.8-10.8-23.4
		c1.4-10.2,3.8-19.5,13.9-24.9c5.6-3,11.4-4.8,17.7-3.2C646.1,167.2,651.8,175.5,651.6,186.7z"/>
	<path fill="#B6C0B5" d="M311.7,182.1c4.6-13.9,21.6-23.8,35-20.5c4.3,1.1,8.4,2.9,8.9,8.1c0.5,5.5-3.4,8-7.7,9.8
		C340.8,182.5,322.6,183.7,311.7,182.1z"/>
	<path fill="#B6C0B5" d="M920.4,182.5c5.8-14.4,20.1-23,34.1-21.1c5.4,0.7,9.7,4.1,10.2,8.1c0.5,4.6-2,8-7.9,10.1
		C945.1,183.7,933,182.7,920.4,182.5z"/>
</g>
</svg>
