<?xml version="1.0" encoding="utf-8"?>
<!-- Generator: Adobe Illustrator 18.1.0, SVG Export Plug-In . SVG Version: 6.00 Build 0)  -->
<!DOCTYPE svg PUBLIC "-//W3C//DTD SVG 1.1//EN" "http://www.w3.org/Graphics/SVG/1.1/DTD/svg11.dtd">
<svg version="1.1" id="Layer_1" xmlns="http://www.w3.org/2000/svg" xmlns:xlink="http://www.w3.org/1999/xlink" x="0px" y="0px"
	 viewBox="0 41 300 224" enable-background="new 0 41 300 224" xml:space="preserve">
<g>
	<path fill="#5B605B" d="M51.4,255.6c-4,0-8.1,0-12.1,0c-0.4-0.2-0.9-0.3-1.4-0.6c-2-1.1-3.9-2.2-5.7-3.8c-2.3-2.2-3.9-4.6-4.8-7.5
		c-0.7-2.2-1-4.5-1.3-6.8c-0.3-2.4-0.5-4.7-0.7-7.1c0-0.2,0-0.3-0.1-0.5c-0.3-1.9-0.7-3.8-1-5.8c-0.3-2.4-0.5-4.8-0.7-7.1
		c0-0.1,0-0.2,0-0.3c-0.3-1.9-0.6-3.8-0.9-5.7c-0.3-2.3-0.5-4.6-0.7-6.9c0-0.1,0-0.1,0-0.2c-0.3-2.4-0.7-4.7-1-7.1
		c-0.3-2.2-0.5-4.4-0.7-6.5c0-0.1,0-0.1,0-0.2c-0.3-2-0.7-4-1-6c-0.4-2.8-0.7-5.5-1-8.3c-0.4-3-0.8-6-1.2-9c-0.6-4.5-1.1-9-1.7-13.5
		c-0.4-2.9-0.7-5.9-1.1-8.8c-0.4-2.9-0.8-5.8-1.2-8.8c-0.4-3.1-0.8-6.2-1.2-9.4c-0.3-2.4-0.5-4.8-0.7-7.1c0-0.1,0-0.2,0-0.3
		c-0.3-2-0.8-4-1-6c-0.3-2.2-0.4-4.4-0.6-6.7c0-0.2,0-0.4-0.1-0.6c-0.3-2.1-0.8-4.2-1-6.3c-0.2-3-0.1-5.9,1-8.8
		c0.9-2.4,2.1-4.4,3.8-6.2c1.7-1.9,3.9-3.4,6.3-4.2c1.4-0.5,2.9-0.8,4.4-1.1c2-0.4,4.1-0.7,6.1-1.1c1.2-0.2,2.5-0.3,3.7-0.4
		c2.9-0.4,5.9-0.8,8.8-1.2c1.5-0.2,3-0.4,4.5-0.6c1.8-0.2,3.6-0.4,5.4-0.6c2.2-0.2,4.5-0.5,6.7-0.7c0.1,0,0.2,0,0.3-0.1
		c2.1-0.3,4.2-0.8,6.3-1c2.2-0.3,4.3-0.4,6.5-0.6c0.2,0,0.5-0.1,0.7-0.1c2.1-0.3,4.2-0.7,6.3-1c2.2-0.3,4.5-0.5,6.7-0.7
		c1.6-0.2,3.1-0.3,4.7-0.5c2.2-0.3,4.4-0.7,6.5-1c2.3-0.3,4.6-0.5,6.8-0.7c1.3-0.1,2.7-0.3,4-0.5c1.9-0.3,3.9-0.7,5.8-1
		c1.4-0.2,2.8-0.4,4.3-0.6c1.8-0.2,3.7-0.4,5.5-0.6c2.2-0.2,4.5-0.5,6.7-0.7c0.1,0,0.1,0,0.2,0c2.1-0.3,4.2-0.8,6.4-1
		c2.1-0.3,4.3-0.4,6.4-0.6c0.2,0,0.4-0.1,0.7-0.1c2-0.3,3.9-0.7,5.9-1c2.3-0.3,4.7-0.5,7-0.7c0.1,0,0.2,0,0.3-0.1
		c2-0.3,4.1-0.7,6.1-0.9c2.4-0.3,4.7-0.5,7.1-0.7c0.1,0,0.2,0,0.3,0c1.9-0.3,3.9-0.6,5.8-0.9c2.3-0.3,4.6-0.5,6.9-0.7
		c0.1,0,0.3-0.1,0.4-0.1c2.3-0.3,4.6-0.7,7-1c2.1-0.3,4.3-0.4,6.4-0.7c2-0.3,4.1-0.7,6.1-1c2.4-0.3,4.8-0.5,7.1-0.7
		c0.1,0,0.2,0,0.3,0c1.9-0.3,3.9-0.6,5.8-0.9c2.3-0.3,4.6-0.5,6.8-0.7c0.1,0,0.1,0,0.2,0c2.1-0.3,4.2-0.7,6.3-1
		c2.4-0.3,4.8-0.5,7.2-0.8c0.1,0,0.2,0,0.3,0c1.9-0.3,3.7-0.7,5.6-1c2.9-0.4,5.8-0.8,8.7-1c3.3-0.2,6.6-0.6,9.9,0.4
		c2.7,0.8,5,2.2,7.1,3.9c1.5,1.3,2.7,3.1,3.7,4.9c1.1,2.1,1.8,4.3,2,6.7c0.3,2.2,0.5,4.4,0.7,6.5c0,0.1,0.1,0.2,0.1,0.3
		c0.3,2.1,0.7,4.3,1,6.4c0.3,2.4,0.4,4.7,0.7,7.1c0,0.1,0,0.2,0,0.3c0.3,2,0.7,3.9,1,5.9c0.3,2.3,0.5,4.7,0.7,7.1c0,0.1,0,0.2,0,0.3
		c0.3,2.1,0.6,4.1,0.9,6.2c0.3,2.2,0.5,4.4,0.7,6.6c0,0.1,0.1,0.3,0.1,0.4c0.3,2.1,0.7,4.2,0.9,6.3c0.3,2.3,0.5,4.6,0.7,6.9
		c0,0.1,0,0.2,0,0.3c0.3,2.1,0.8,4.1,1,6.2c0.3,2.2,0.4,4.3,0.6,6.5c0,0.2,0.1,0.4,0.1,0.6c0.3,2,0.7,4,1,6c0.3,2.4,0.5,4.8,0.7,7.1
		c0,0.1,0.1,0.3,0.1,0.4c0.3,2.1,0.7,4.2,0.9,6.3c0.3,2.2,0.5,4.5,0.7,6.7c0,0.1,0,0.1,0,0.2c0.3,2,0.6,4.1,0.9,6.1
		c0.3,2.3,0.5,4.6,0.7,6.9c0,0.1,0,0.1,0,0.2c0.3,2,0.8,3.9,1,5.9c0.5,3.9,0.9,7.9,1.3,11.8c0,0.1,0,0.2,0,0.3
		c0.4,2.6,0.7,5.3,1.1,7.9c0.1,0.4,0.3,0.7,0.4,1c0,1.8,0,3.7,0,5.5c-0.1,0.2-0.3,0.4-0.4,0.7c-0.3,2.7-1.6,5.1-3.1,7.3
		c-2.3,3.4-5.6,5.6-9.4,6.7c-2.4,0.7-4.9,0.9-7.3,1.3c-2.3,0.3-4.7,0.5-7,0.7c-0.1,0-0.2,0-0.3,0c-2,0.3-4.1,0.6-6.1,0.9
		c-2.2,0.3-4.4,0.5-6.6,0.7c-0.1,0-0.1,0-0.2,0c-2.1,0.3-4.3,0.7-6.4,1c-2.4,0.3-4.8,0.5-7.2,0.7c-0.1,0-0.2,0-0.3,0
		c-2,0.3-4,0.8-6.1,1c-2.2,0.3-4.3,0.4-6.5,0.6c-0.1,0-0.3,0.1-0.4,0.1c-2,0.3-4,0.7-6.1,1c-2.4,0.3-4.8,0.5-7.2,0.8
		c-0.1,0-0.3,0-0.4,0.1c-2,0.3-3.9,0.6-5.9,0.9c-2.3,0.3-4.6,0.5-6.9,0.7c-0.1,0-0.2,0-0.3,0c-2.1,0.3-4.3,0.6-6.4,0.9
		c-2.2,0.3-4.4,0.5-6.5,0.7c-0.1,0-0.3,0.1-0.4,0.1c-1.9,0.3-3.8,0.7-5.7,0.9c-2.4,0.3-4.9,0.5-7.4,0.7c-0.1,0-0.3,0-0.4,0.1
		c-2,0.3-4.1,0.8-6.2,1c-2.2,0.3-4.5,0.5-6.7,0.7c-0.1,0-0.2,0-0.3,0.1c-2.1,0.3-4.1,0.6-6.2,0.9c-2.2,0.3-4.5,0.5-6.7,0.7
		c-0.2,0-0.3,0.1-0.5,0.1c-2.1,0.3-4.2,0.6-6.3,0.9c-2.2,0.3-4.5,0.5-6.7,0.7c-0.1,0-0.1,0-0.2,0c-2.1,0.3-4.2,0.8-6.3,1
		c-2.1,0.3-4.3,0.4-6.4,0.6c-0.3,0-0.6,0.1-0.9,0.2c-1.9,0.3-3.9,0.7-5.8,0.9c-2.3,0.3-4.6,0.5-6.8,0.7c-0.2,0-0.4,0.1-0.6,0.1
		c-2.2,0.3-4.4,0.6-6.6,0.9c-2.1,0.3-4.2,0.5-6.3,0.7c0,0-0.1,0-0.1,0c-2,0.3-4,0.6-6,0.9c-2.3,0.3-4.7,0.5-7,0.7
		c-0.1,0-0.3,0.1-0.4,0.1c-2.2,0.3-4.3,0.7-6.5,1c-2.2,0.3-4.4,0.4-6.6,0.6c-0.1,0-0.2,0-0.3,0.1c-2.3,0.4-4.6,0.7-7,1.1
		c-2.1,0.3-4.3,0.5-6.4,0.7C51.8,255.3,51.6,255.5,51.4,255.6z M272.9,94.4c-1.2,0.2-2.4,0.5-3.6,0.7c-2.8,0.4-5.6,0.7-8.4,1
		c-3,0.4-5.9,0.8-8.9,1.2c-4,0.5-8,0.9-12,1.3c-0.1,0-0.3,0-0.4,0c-1.9,0.3-3.8,0.7-5.7,1c-2.8,0.4-5.7,0.7-8.5,1
		c-3,0.4-6,0.8-8.9,1.2c-3.1,0.4-6.1,0.8-9.2,1.1c-2.9,0.4-5.9,0.8-8.8,1.2c-3,0.4-6,0.7-9,1.1c-2.8,0.4-5.6,0.8-8.4,1.1
		c-3.2,0.4-6.5,0.8-9.8,1.2c-1.3,0.2-2.6,0.4-3.9,0.5c-3.1,0.4-6.2,0.7-9.3,1.1c-2.2,0.3-4.5,0.5-6.7,0.7c-0.2,0-0.3,0.1-0.5,0.1
		c-1.9,0.3-3.9,0.7-5.8,0.9c-3.9,0.5-7.8,0.9-11.8,1.3c-0.1,0-0.2,0-0.3,0c-2.2,0.4-4.4,0.8-6.7,1c-2,0.3-4.1,0.3-6.1,0.6
		c-1.6,0.2-3.2,0.4-4.8,0.7c-1.9,0.3-3.9,0.7-5.8,1c-3.8,0.5-7.7,0.8-11.6,1.3c-0.1,0-0.1,0-0.2,0c-2.1,0.4-4.3,0.8-6.4,1
		c-2.7,0.4-5.4,0.7-8.1,1c-3,0.4-6,0.8-9,1.2c-4,0.5-8,0.9-11.9,1.3c-0.1,0-0.3,0-0.4,0.1c-2,0.3-3.9,0.7-5.9,1
		c-2.7,0.4-5.5,0.7-8.2,1c-3,0.4-6,0.8-9.1,1.2c-4.6,0.6-9.2,1.2-13.8,1.8c-3.1,0.4-6.1,0.7-9.2,1.1c-0.6,0.1-0.9,0.3-0.9,0.9
		c0.2,2.4,0.5,4.8,0.8,7.2c0.3,2.2,0.7,4.5,1,6.7c0.3,2.2,0.5,4.4,0.7,6.5c0,0.1,0,0.1,0,0.2c0.3,2.1,0.8,4.2,1,6.3
		c0.3,2.1,0.4,4.3,0.6,6.4c0,0.2,0.1,0.4,0.1,0.6c0.3,2,0.7,4.1,1,6.1c0.3,2.3,0.5,4.7,0.7,7c0,0.1,0.1,0.3,0.1,0.4
		c0.3,2.1,0.7,4.3,0.9,6.4c0.3,2.3,0.5,4.6,0.7,6.8c0,0.1,0,0.1,0,0.2c0.3,1.9,0.6,3.9,0.9,5.8c0.3,2.4,0.5,4.8,0.7,7.1
		c0,0.1,0,0.1,0,0.2c0.3,2,0.8,3.9,1,5.9c0.5,3.9,0.8,7.8,1.3,11.8c0,0.1,0,0.2,0,0.3c0.4,2.2,0.8,4.3,1,6.5
		c0.3,2.1,0.3,4.2,0.6,6.3c0,0.4,0.5,1,0.8,1c1.1,0.1,2.2,0,3.4-0.2c2-0.3,4-0.7,6-1c2.8-0.4,5.6-0.7,8.4-1c3-0.4,6-0.8,9-1.2
		c3.1-0.4,6.1-0.8,9.2-1.2c3-0.4,6-0.8,8.9-1.2c2.9-0.4,5.7-0.7,8.6-1c2.9-0.4,5.8-0.8,8.6-1.1c3.1-0.4,6.2-0.8,9.3-1.2
		c2.9-0.4,5.9-0.8,8.8-1.2c2.9-0.4,5.9-0.7,8.8-1.1c2.3-0.3,4.7-0.5,7-0.7c0.1,0,0.3,0,0.4-0.1c2.1-0.3,4.1-0.7,6.2-0.9
		c2.3-0.3,4.7-0.5,7-0.7c0.1,0,0.1,0,0.2,0c2.4-0.4,4.8-0.8,7.2-1.1c2.6-0.4,5.1-0.7,7.7-1c2.3-0.3,4.6-0.5,6.9-0.7
		c0.1,0,0.1,0,0.2,0c2.1-0.3,4.3-0.7,6.4-1c2.4-0.3,4.8-0.5,7.1-0.7c0.1,0,0.1,0,0.2,0c2-0.3,3.9-0.8,5.9-1c2.2-0.3,4.3-0.4,6.5-0.6
		c0.2,0,0.5-0.1,0.7-0.1c2.2-0.3,4.4-0.7,6.5-1c2.2-0.3,4.4-0.4,6.5-0.7c3.6-0.5,7.2-1.1,10.8-1.6c2.3-0.3,4.7-0.5,7-0.7
		c0.2,0,0.3,0,0.5-0.1c1.9-0.3,3.8-0.6,5.7-0.9c2.3-0.3,4.7-0.5,7-0.8c0.1,0,0.2,0,0.3,0c2.1-0.3,4.3-0.7,6.4-1
		c2.2-0.3,4.4-0.5,6.6-0.7c0.1,0,0.2,0,0.3,0c2.1-0.4,4.1-0.8,6.2-1c2.7-0.4,5.5-0.7,8.2-1c3.1-0.4,6.2-0.8,9.3-1.2
		c4.3-0.6,8.7-1.1,13-1.7c1.8-0.2,3.6-0.5,5.4-0.6c0.7-0.1,0.9-0.4,0.8-1c-0.2-1.4-0.4-2.8-0.6-4.2c-0.4-2.9-0.7-5.9-1.1-8.8
		s-0.8-5.8-1.2-8.8c-0.4-3.2-0.8-6.4-1.2-9.6c-0.2-1.3-0.4-2.6-0.5-3.9c-0.4-3.1-0.8-6.2-1.1-9.3c-0.3-2.3-0.5-4.7-0.7-7
		c0-0.1,0-0.2,0-0.3c-0.3-1.9-0.7-3.8-1-5.8c-0.4-2.9-0.8-5.9-1.1-8.9c-0.4-3.1-0.8-6.2-1.2-9.2c-0.3-2.2-0.4-4.4-0.6-6.6
		c0-0.2,0-0.4-0.1-0.6c-0.3-2-0.7-4-1-6.1c-0.3-2.3-0.5-4.7-0.7-7.1c0-0.1-0.1-0.3-0.1-0.4c-0.3-2.2-0.7-4.4-0.9-6.6
		C275.5,94.4,275.6,94.4,272.9,94.4z"/>
	<path fill="#5B605B" d="M103.6,194.7c-0.8-0.6-1.3-0.7-1.7,0.3c-0.2,0.5-1.1,0.8-1.8,1c-1.3,0.5-2.8,0.7-4.1,1.3
		c-1.5,0.6-2,0.5-2.6-1c-1-2.4-2-4.8-3.5-7c-1.1-1.7-1.8-3.8-2.7-5.7c-0.7-1.4-1.4-2.8-2-4.3c-0.6-1.3-1-2.6-1.6-4
		c-0.7-1.7-1.4-3.3-2-5c-0.3-0.7-0.5-1.5-0.8-2.2c-0.1-0.3-0.4-0.5-0.6-0.7c-0.1,0.3-0.4,0.5-0.4,0.8c0,0.8,0.2,1.6,0.3,2.4
		c0.1,1.2,0.2,2.4,0.2,3.6c0.2,2.7,0.1,5.5,0.6,8.1c0.7,3.4,0.4,6.7,0.4,10.1c0,0.7-0.3,1.5-0.7,2.1c-0.2,0.3-0.7,0.6-1.1,0.7
		c-2,0.4-4.1,0.8-6.2,1.2c-0.6,0.1-1.1,0.4-1.6,0.5c-1.1,0.2-2.1,0-2.9-1c-1.6-2-3.4-3.9-5.1-5.9c-1.1-1.3-2.2-2.6-3.3-3.9
		c-0.6-0.7-1-1.5-1.8-2.2c0,0.3-0.1,0.6,0,0.8c0.4,1.5,1,3,1.4,4.5c0.5,1.7,0.9,3.4,1.3,5.1c0.4,1.7-0.8,2.6-2,3.2
		c-1.6,0.9-3.3,1.7-5.1,2.2c-1,0.3-2.2,0.4-3.1,0.1c-0.7-0.2-1.4-1.1-1.7-1.9c-0.6-1.6-0.8-3.4-1.2-5c-0.3-1.1-0.6-2.1-1-3.2
		c-0.3-0.8-0.6-1.7-0.7-2.5c-0.2-1.2-0.3-2.4-0.6-3.6c-0.3-1.7-0.7-3.4-1-5.2c0-0.1,0-0.2-0.1-0.3c-0.2-2-0.5-4-0.6-6.1
		c-0.2-2.8-0.4-5.6-0.6-8.4c-0.1-0.8-0.3-1.7-0.5-2.5c-0.1-0.7,0.2-1.1,0.8-1.3c1-0.4,2.1-0.8,3.1-1.2c2.2-0.9,4.6-1.4,6.9-1
		c0.8,0.1,1.6,1.1,2.2,1.9c1.7,2.2,3.4,4.5,5,6.8c1.4,2.1,2.8,4.3,4.2,6.3c0.8,1.2,1.7,2.3,2.7,3.7c0.1-0.5,0.2-0.8,0.2-1.1
		c0-1.7-0.1-3.4,0-5c0.2-2.9,0.6-5.7,0.9-8.6c0-0.4,0-0.9,0.1-1.3c0.3-1.6,0.7-3.1,1.1-4.7c0.2-1,0.6-2,0.7-2.9
		c0.1-1.4,0.4-2.7,1.1-3.9c0.2-0.3,0-0.9,0.2-1.3c0.3-0.5,0.7-1.2,1.2-1.4c3.1-1.1,6.4-0.6,9.6-0.7c0.4,0,0.9,0.4,1.1,0.7
		c0.6,0.8,1.3,1.7,1.8,2.6c0.6,1.2,1,2.4,1.5,3.6c0.7,1.7,1.4,3.5,2,5.2c0.5,1.4,1,2.8,1.6,4.2c0.5,1.3,1,2.5,1.5,3.8
		c0.5,1.4,0.9,2.7,1.3,4.1c0.4,1.2,0.8,2.5,1.2,3.7c0.5,1.4,0.9,2.7,1.5,4.1c0.6,1.6,1.3,3.2,2,4.8c0.3,0.8,0.6,1.5,0.9,2.3
		c0.5,1.2,0.9,2.4,1.4,3.6c0.8,1.8,1.7,3.5,2.5,5.3C103.7,193.9,103.6,194.2,103.6,194.7z"/>
	<path fill="#5B605B" d="M258.6,146c-0.2,2.4-0.2,4.4-0.6,6.3c-0.5,2.4-1.5,4.7-3.1,6.7c-2.3,2.8-4.3,5.8-6.6,8.6
		c-2.5,3-5.5,5.5-9.2,7c-0.2,0.1-0.4,0.1-0.6,0.1c-0.6,0-0.9,0.3-0.9,0.9c0.3,2.7,0.6,5.4,0.9,8.1c0.2,1.4,0.4,2.8,0.7,4.1
		c0.3,1.2,0.6,2.4,0.9,3.6c0.2,0.6,0.3,1.3,0.6,1.8c0.8,1.7,1.6,3.3,2.3,5c0.1,0.2,0,0.8-0.1,0.9c-0.8,0.2-1.7,0.3-2.6,0.4
		c-0.7,0-1.4-0.2-2.1-0.1c-0.5,0.1-0.9,0.6-1.4,0.8c-0.3,0.1-0.7,0.1-1.1,0.1c-0.2,0-0.3-0.1-0.4,0c-1.1,0.5-1.9,0-2.3-1.1
		c-0.4-1.3-1.1-2.6-1.6-3.9c-0.2-0.5-0.5-1.1-0.6-1.6c-0.3-1.1-0.5-2.2-0.7-3.3c-0.1-0.6-0.4-1.2-0.6-1.8c-0.5-2-1-4-1.5-6
		c-0.3-1.2-0.5-2.5-0.7-3.8c-0.2-1-0.3-2-0.6-3c-0.2-0.4-0.8-0.7-1.3-0.9c-2.2-1-2.4-2.5-2.1-4.5c0.1-0.9,1-1.3,1.8-1.3
		c0.8,0,1.1-0.4,1.1-1.2c0-1.3,0.1-2.7,0-4c-0.3-3,0-6,0.2-9c0.1-1.7,0-3.4,0.5-5c0.6-2.1,0.4-4.3,1.6-6.3c0.6-1.1,0.7-2.4,1.2-3.5
		c1-2.2,2.1-4.5,4.2-6c0.4-0.3,0.6-0.8,0.8-1.1c2.1-3.1,5.8-4.5,9.3-3.7c1.6,0.4,3.2,0.7,4.7,1.1c1.1,0.3,2.1,0.7,3.2,0.9
		c1.8,0.3,2.5,1.9,3.4,3.2c1.2,1.7,2.1,3.6,2.4,5.7C257.9,142.3,258.3,144.3,258.6,146z M236.8,165c0.1,0,0.3,0.1,0.4,0.1
		c0.6-0.4,1.4-0.7,1.9-1.3c1.8-2.3,3.7-4.5,5.3-6.9c1.2-1.9,2.1-4.1,2.5-6.4c0.4-2.6,0.4-5.1,0-7.6c-0.2-1.1-0.4-2.2-0.7-3.2
		c-0.2-0.8-0.4-1.5-0.7-2.3c-0.1-0.1-0.8-0.2-0.9,0c-0.5,0.4-0.9,0.9-1.2,1.4c-1,1.8-2.1,3.7-2.9,5.6c-0.9,2.1-1.6,4.3-2.1,6.5
		c-0.4,1.9-0.4,3.8-0.6,5.8c-0.1,1-0.1,2-0.2,3.1C237.2,161.5,237,163.3,236.8,165z"/>
	<path fill="#5B605B" d="M135.7,188.4c-1,0.6-1.8,1.1-2.7,1.6c-1,0.6-2.1,1.1-3.2,1.5c-1.1,0.4-2.2,0.6-3.3,0.9
		c-1.7,0.5-3.4,1-5.1,1.5c-0.3,0.1-0.7,0.2-1.1,0.2c-2.5-0.1-5.1-0.2-7.6-0.6c-1-0.1-1.9-0.5-2.8-1.3c-0.7-0.7-1.8-1-2.7-1.4
		c-1.7-0.6-2.9-1.7-3.8-3.1c-0.7-1.1-1.3-2.4-2-3.6c-0.1-0.1-0.1-0.3-0.2-0.5c-0.2-1.4-0.4-2.7-0.5-4.1c-0.2-2-0.2-4.1-0.7-6
		c-0.9-3.6-0.3-7.2-0.4-10.8c0-1.5,0.7-2.9,1-4.4c0.6-2.9,2.4-5.1,4-7.3c1-1.3,2.4-2.4,3.6-3.5c0.2-0.2,0.3-0.4,0.5-0.6
		c0.8-0.9,1.6-1.8,3.1-1.7c1.7,0.1,3.4-0.1,5.1,0.1c1.3,0.1,2.6,0.3,3.9,0.6c2,0.6,2.6,2.3,3.2,4c0.4,1.2,0.7,2.4,1.1,3.5
		c0,0.1,0.1,0.3,0.1,0.4c0.4,2.5,0.8,5.1,1.2,7.6c0.2,1.2,0.7,2.4,0.9,3.7c0.1,0.7,0.1,1.5,0.1,2.3c-0.1,1.3-0.3,2.6-0.3,3.9
		c0,1.7,0,1.6-1.6,1.9c-2,0.3-3.9,0.7-5.9,0.9c-2,0.1-4.1,0-6.1-0.2c-1.1-0.1-1.9,0.3-1.8,1.4c0.3,2.4,0.5,4.9,1.2,7.2
		c0.8,2.7,2.9,4.6,5.4,6c1.7,1,2.8-0.1,4.2-0.4c1.6-0.4,2.8-1.5,4.2-2.3c0.8-0.4,2-0.1,3.1,0c0.4,0,0.9,0.3,1.3,0.3
		c1.5-0.2,2.4,1,3.7,1.2C135.1,187.4,135.3,187.9,135.7,188.4z M114,156.7c-0.1,0-0.3,0.1-0.4,0.1c-0.3,0.9-0.6,1.8-0.8,2.7
		c-0.4,1.7-0.9,3.3-1,5c-0.3,3.7-0.6,2.8,3.1,3c0.1,0,0.2,0,0.3,0c0.2-0.1,0.5-0.3,0.5-0.5c0-1.3,0.1-2.5-0.1-3.7
		c-0.2-1.8-0.6-3.6-1-5.4C114.5,157.5,114.2,157.1,114,156.7z"/>
	<path fill="#5B605B" d="M155.8,170.3c-0.9,0.3-2,0.7-3.1,1.1c-0.3,0.1-0.6,0.4-0.9,0.6c-1.5,1-3.2,0.6-4.8,0.6
		c-1.6,0-3.2,0-4.7-0.1c-0.7,0-1,0.2-1,0.9c-0.2,3,1,5.5,3.1,7.5c1.2,1.2,2.5,2.6,4.1,3.2c1.5,0.6,3.3,0.6,4.9-0.2
		c1.1-0.5,2.2-1,3.4-1.4c1.1-0.3,1.6-1.1,2-2c0.6-1.3,1.4-1.6,2.8-1.2c0.6,0.2,1.1,0.4,1.7,0.6c1.3,0.4,1.8,1.6,1.9,2.8
		c0,0.5-0.7,1.3-1.3,1.7c-2,1.2-4,2.4-6.2,3.3c-1.4,0.6-3.1,1.3-4.6,1c-2.7-0.4-5.4,0.1-8-0.3c-2.3-0.4-4.7-0.8-6.7-2.3
		c-1.1-0.8-1.9-2-2.8-3c-0.6-0.7-1.1-1.5-1.8-2c-1.2-0.9-1.6-2.1-2-3.3c-0.4-1.3-0.4-2.7-0.6-4.1c-0.2-1.2-0.3-2.5-0.7-3.6
		c-0.5-1.2,0-2.2,0.3-3.2c0.1-0.5,0.3-1.1,0.4-1.6c0.3-2.7,0.3-5.4,0.7-8c0.3-2.2,0.9-4.3,1.7-6.3c1.2-3,3-5.8,5.2-8.2
		c0.6-0.7,1.1-1.6,1.6-2.4c0.6-1.1,1.7-1.7,2.9-1.6c2.2,0,4.4,0.2,6.5,1.2c0.3,0.2,0.8,0.2,1.1,0.2c1.4,0.1,2.6,0.6,3.4,1.8
		c0.1,0.2,0.2,0.5,0.3,0.7c0.8,2.5,0.6,5,0.6,7.5c0,1.3,0.2,2.7,0.3,4c0,0.2-0.1,0.5-0.2,0.7c-0.1,0.4-0.1,0.9-0.2,1.3
		c-0.1,0.5-0.2,1-0.2,1.4c-0.1,0.4-0.1,0.8-0.1,1.2c0.1,1.9,0.3,3.8,0.5,5.7C155.3,166.3,155.5,168.2,155.8,170.3z M144.8,152.3
		c-0.5,1.4-0.9,2.4-1.2,3.5c-0.3,1.1-0.5,2.2-0.7,3.3c-0.4,2.2-0.7,4.4-1,6.5c-0.1,0.6,0.2,1,0.9,1c0.6,0,1.3,0,1.9,0
		c1.6,0,1.9-0.2,1.8-1.8c-0.1-2.1-0.3-4.1-0.5-6.2c-0.2-1.9-0.4-3.8-0.7-5.7C145.2,152.8,145.1,152.7,144.8,152.3z"/>
	<path fill="#5B605B" d="M174.3,127c0,1.1-0.1,2.2,0,3.3c0.3,1.9,0.7,3.8,1,5.8c0.2,1.2,0.4,2.4,0.7,3.7c0.4,1.9,0.7,3.7,1,5.6
		c0.3,1.6,0.5,3.1,0.8,4.7c0.2,1.1,0.5,2.1,0.7,3.2c0.1,0.6-0.1,1.3-0.1,2c0,1-0.1,1.9,0,2.8c0,0.2,0.6,0.4,0.9,0.4
		c0.2,0,0.6-0.3,0.6-0.5c0.1-0.4,0.1-0.8,0-1.2c-0.4-1.2,0.4-1.7,1.3-2.2c0.2-0.1,0.5-0.1,0.7,0c1.5,0.9,3,1.8,4.4,2.7
		c1.2,0.8,2.3,1.7,3.4,2.6c0.3,0.3,0.7,0.5,0.9,0.8c0.3,0.4,0.5,1-0.3,1.2c-1.3,0.4-2.7,0.8-3.7,1.9c-0.1,0.1-0.4,0.2-0.6,0.2
		c-1.6,0.2-3.2,0.5-4.9,0.6c-1.5,0.2-2.1,0.7-1.7,2.1c0.6,1.9,0.4,3.8,0.6,5.8c0.1,1.3,0.5,2.7,0.7,4c0.3,1.9,0.6,3.8,1,5.7
		c0.2,1,0.4,2,0.6,3c0.1,0.6,0.1,1.1-0.8,1.2c-0.8,0.1-1.5,0.6-2.2,0.8c-0.6,0.2-1.1,0.8-1.9,0.3c-0.1-0.1-0.5,0-0.7,0.1
		c-1.3,0.9-2.1,0.7-2.3-0.9c-0.2-1.8-0.3-3.5-0.6-5.3c-0.2-1.4-0.6-2.8-1-4.2c-0.1-0.3-0.1-0.5-0.2-0.8c-0.4-2.2-0.8-4.4-1.2-6.6
		c-0.1-0.8-0.3-1.5-0.6-2.3c-0.1-0.3-0.4-0.6-0.7-0.6c-1.1,0-2.3,0.2-3.4,0.3c-1.6,0.1-3.2,0.3-4.8,0.2c-0.4,0-1-0.5-1.3-0.9
		c-0.9-1.1-0.8-2.5-0.3-3.6c0.4-1,1.4-1.7,2.7-1.8c1.8-0.1,3.5-0.3,5.3-0.5c0.9-0.1,1.1-0.6,0.8-1.5c-0.4-1-0.7-2.1-1-3.1
		c-0.5-2-0.8-4-1.3-5.9c-0.5-1.8-1.1-3.6-1.6-5.4c-0.2-0.8-0.3-1.7-0.5-2.5c-0.3-1.3-0.4-2.7-0.7-4c-0.3-1.4-0.8-2.8-1.1-4.2
		c-0.3-1.7-0.5-3.4-0.6-5.2c-0.2-2.2-0.4-4.4-0.5-6.5c0-0.9,0.3-1.8,0.6-2.6c0.1-0.3,0.5-0.5,0.8-0.7c1.7-0.8,3.3-0.8,5-0.1
		c1.3,0.6,2.7,1.1,4.2,1.6c1.4,0.5,1.7,1.7,1.8,2.9C174.3,124.5,174.3,125.7,174.3,127C174.3,127,174.3,127,174.3,127z"/>
	<path fill="#5B605B" d="M207.1,175.7c0.9-1.5,1.8-2.7,2.5-4c0.8-1.4,1.6-2.9,2-4.4c0.5-1.5,0.7-3.2,0.8-4.8
		c0.1-1.9,0.1-3.8-0.1-5.7c-0.1-1.5-0.3-2.9-0.6-4.4c-0.1-0.5-0.5-0.9-0.8-1.4c-0.1-0.3-0.3-0.6-0.3-0.8c0.2-1.4,0.6-2.8,2-3.6
		c1-0.6,1.9,0.2,2.8,0.4c1,0.2,1.9,0.5,2.8,0.9c1,0.4,1.9,0.9,2.9,1.2c1.8,0.4,1.8,2,1.9,3.2c0.2,3,0.1,6,0.1,9c0,0.5-0.4,1-0.5,1.4
		c-0.5,1.4-1,2.8-2.2,3.9c-0.6,0.6-0.7,1.6-1.1,2.5c-0.3,0.7-0.6,1.5-0.9,2.3c-0.3-0.1-0.6-0.3-0.8-0.4c0.8,1,0.2,1.7-0.3,2.4
		c-0.6,0.9-0.9,1.9-2,2.4c-0.3,0.1-0.6,0.7-0.6,1.1c-0.1,1.8-1.5,2.5-2.9,3c-1.8,0.6-3.6,0.9-5.5,1.3c-1.3,0.3-2.6,0.5-4,0.5
		c-1.3,0-2.4-0.7-3.1-1.7c-1.2-1.6-2.3-3.3-3.2-5.1c-0.6-1.2-0.9-2.6-1.4-3.9c-0.5-1.5-1-3-1.5-4.4c-0.3-0.8-0.5-1.6-0.7-2.4
		c-0.2-1.3-0.3-2.5-0.6-3.8c-0.3-1.5-0.7-2.9-1-4.3c-0.1-0.4-0.1-0.9-0.1-1.4c-0.1-0.7-0.2-1.5-0.4-2.1c-0.6-1.9,0.7-3.9,2.6-3.8
		c1.3,0.1,2.5,0.5,3.8,0.8c0.9,0.2,1.7,0.6,2.6,0.8c1.3,0.3,2.6,1.4,2.8,2.7c0.3,1.3,0.4,2.7,0.6,4.1c0.3,1.7,0.6,3.4,0.9,5
		c0.5,2.6,1,5.1,1.5,7.7c0.3,1.6,0.6,3.1,1,4.6C206.3,174.7,206.7,175,207.1,175.7z"/>
</g>
</svg>
