<?xml version="1.0" encoding="utf-8"?>
<!-- Generator: Adobe Illustrator 18.1.0, SVG Export Plug-In . SVG Version: 6.00 Build 0)  -->
<!DOCTYPE svg PUBLIC "-//W3C//DTD SVG 1.1//EN" "http://www.w3.org/Graphics/SVG/1.1/DTD/svg11.dtd">
<svg version="1.1" id="Layer_1" xmlns="http://www.w3.org/2000/svg" xmlns:xlink="http://www.w3.org/1999/xlink" x="0px" y="0px"
	 viewBox="0 0 2272 1648" enable-background="new 0 0 2272 1648" xml:space="preserve">
<g>
	<path fill="#B6C0B5" d="M389.5,1623.5c-30.5,0-61,0-91.5,0c-3.4-1.5-7.1-2.6-10.3-4.4c-15-8.5-29.8-16.4-42.8-28.7
		c-17.2-16.3-29.3-35-36.2-56.6c-5.3-16.5-7.2-34.3-9.5-51.6c-2.4-17.8-3.5-35.7-5.2-53.6c-0.1-1.2-0.2-2.5-0.4-3.7
		c-2.5-14.6-5.5-29.1-7.4-43.8c-2.3-18-3.8-36.1-5.6-54.1c-0.1-0.7-0.2-1.5-0.3-2.2c-2.2-14.4-4.7-28.8-6.5-43.3
		c-2.1-17.5-3.6-35-5.4-52.6c0-0.5-0.2-1-0.3-1.5c-2.6-17.9-5.4-35.8-7.7-53.8c-2.1-16.5-3.6-33.1-5.4-49.6c-0.1-0.5-0.2-1-0.2-1.5
		c-2.6-15.1-5.5-30-7.6-45.2c-2.9-20.9-5.1-41.8-7.8-62.7c-2.9-22.8-6.1-45.6-9.1-68.4c-4.4-34.2-8.7-68.4-13-102.6
		c-2.8-22.2-5.2-44.4-8-66.5c-2.8-22.1-6-44.2-8.8-66.3c-3-23.6-6.1-47.3-8.8-70.9c-2.1-18-3.6-36.1-5.4-54.1
		c-0.1-0.7-0.2-1.5-0.3-2.2c-2.6-15.1-5.8-30.2-7.7-45.4c-2.1-16.8-2.9-33.7-4.3-50.5c-0.1-1.5-0.3-3-0.5-4.5
		c-2.6-15.8-6.3-31.6-7.5-47.5c-1.7-22.4-0.7-44.4,7.6-66.3c6.8-17.8,16.2-33.2,28.6-47c13.1-14.7,29.2-25.6,47.8-32.1
		c10.8-3.8,22.2-5.9,33.5-8.1c15.4-3,31-5.6,46.5-8c9.3-1.4,18.7-2,28.1-3.2c22.3-2.9,44.6-6,66.9-9c11.3-1.5,22.5-3.1,33.8-4.4
		c13.6-1.6,27.2-3.1,40.8-4.5c17-1.8,34-3.5,51-5.3c0.7-0.1,1.5-0.2,2.2-0.4c15.8-2.6,31.6-5.7,47.5-7.7c16.3-2,32.7-3,49-4.4
		c1.7-0.2,3.5-0.5,5.2-0.7c15.8-2.5,31.6-5.3,47.5-7.4c17-2.2,34-3.7,51-5.6c11.9-1.3,23.8-2.4,35.6-4.1c16.6-2.4,33-5.6,49.6-7.8
		c17.2-2.3,34.5-3.7,51.8-5.6c10.1-1.1,20.3-1.9,30.3-3.5c14.6-2.2,29.2-5.2,43.8-7.5c10.7-1.7,21.5-3.2,32.2-4.5
		c13.8-1.6,27.7-3,41.5-4.5c17-1.8,34-3.5,51.1-5.3c0.5-0.1,1-0.2,1.5-0.2c16.1-2.6,32.1-5.8,48.3-7.8c16-2,32.2-2.8,48.3-4.2
		c1.7-0.2,3.4-0.6,5.2-0.9c14.8-2.4,29.6-5.3,44.5-7.2c17.7-2.3,35.5-3.7,53.3-5.6c0.7-0.1,1.5-0.3,2.2-0.5
		c15.4-2.4,30.8-5.1,46.2-7.1c17.9-2.2,35.9-3.8,53.9-5.6c0.7-0.1,1.5-0.2,2.2-0.3c14.7-2.2,29.3-4.8,44-6.6
		c17.5-2.2,35-3.7,52.6-5.6c1-0.1,2-0.4,2.9-0.5c17.6-2.6,35.1-5.4,52.8-7.6c16-2,32.2-3.1,48.3-5.2c15.4-2.1,30.7-5.5,46.1-7.5
		c17.9-2.3,36-3.8,54-5.6c0.7-0.1,1.5-0.2,2.2-0.3c14.6-2.2,29.2-4.8,43.9-6.6c17.2-2.1,34.6-3.7,51.8-5.5c0.5-0.1,1-0.1,1.5-0.2
		c15.9-2.5,31.7-5.3,47.7-7.3c18.2-2.3,36.5-3.8,54.7-5.7c0.7-0.1,1.5-0.1,2.2-0.2c14.1-2.5,28-5.5,42.2-7.5
		c21.9-3,43.8-6.3,65.7-7.7c24.9-1.7,49.7-4.4,74.8,2.8c20.6,5.9,37.9,16.4,53.4,29.9c11.7,10.1,20.4,23.1,27.9,37.1
		c8.6,16.1,13.3,32.9,15.4,50.7c1.9,16.5,3.5,33,5.2,49.6c0.1,0.7,0.4,1.4,0.5,2.2c2.6,16.1,5.6,32.2,7.6,48.4
		c2.2,17.8,3.4,35.7,5.1,53.5c0.1,0.7,0.2,1.5,0.3,2.2c2.5,14.8,5.6,29.5,7.5,44.4c2.3,17.7,3.7,35.6,5.6,53.4
		c0.1,0.7,0.2,1.5,0.3,2.2c2.3,15.7,4.8,31.3,6.8,47c2.1,16.7,3.7,33.5,5.5,50.3c0.1,1,0.4,2,0.6,2.9c2.4,15.9,5,31.8,7,47.8
		c2.2,17.5,3.7,35.1,5.5,52.6c0.1,0.7,0.2,1.5,0.3,2.2c2.6,15.6,5.7,31.1,7.6,46.8c2,16.3,2.9,32.7,4.3,49c0.1,1.5,0.5,2.9,0.8,4.4
		c2.5,15.1,5.4,30.2,7.4,45.4c2.3,18,3.7,36,5.6,54.1c0.1,1,0.4,2,0.6,2.9c2.4,15.9,5,31.8,7,47.8c2.1,17,3.6,34.1,5.4,51.1
		c0.1,0.5,0.1,1,0.2,1.5c2.3,15.4,4.9,30.8,6.8,46.3c2.1,17.2,3.6,34.6,5.4,51.9c0.1,0.5,0.2,1,0.3,1.5c2.6,14.9,5.7,29.7,7.6,44.6
		c3.6,29.9,6.5,59.8,9.7,89.7c0.1,0.7,0.1,1.5,0.2,2.2c2.8,19.9,5.5,39.8,8.5,59.6c0.4,2.7,2,5.2,3,7.7c0,14,0,28,0,42
		c-0.9,1.7-2.5,3.3-2.7,5c-2.2,20.8-11.8,38.5-23.2,55.3c-17.4,25.8-42.2,42.3-71.5,50.9c-17.9,5.3-36.8,7-55.4,9.5
		c-17.7,2.4-35.5,3.7-53.3,5.5c-0.7,0.1-1.5,0.2-2.2,0.3c-15.4,2.3-30.7,4.9-46.1,6.9c-16.7,2.1-33.5,3.5-50.3,5.2
		c-0.5,0.1-1,0.2-1.5,0.3c-16.2,2.5-32.3,5.5-48.5,7.5c-18.2,2.3-36.5,3.7-54.8,5.5c-0.7,0.1-1.5,0.2-2.2,0.3
		c-15.3,2.6-30.5,5.8-45.9,7.7c-16.3,2-32.7,2.9-49,4.3c-1,0.1-2,0.4-2.9,0.5c-15.3,2.6-30.6,5.6-46,7.6c-18.2,2.4-36.4,4-54.7,5.9
		c-1,0.1-2,0.2-3,0.4c-14.9,2.3-29.8,4.9-44.7,6.8c-17.5,2.2-35.1,3.7-52.6,5.5c-0.7,0.1-1.5,0.2-2.2,0.3
		c-16.1,2.3-32.2,4.9-48.4,6.9c-16.4,2.1-33,3.6-49.5,5.4c-1,0.1-1.9,0.5-2.9,0.6c-14.4,2.4-28.7,5.4-43.1,7.1
		c-18.5,2.2-37.2,3.5-55.7,5.1c-1,0.1-2,0.2-3,0.4c-15.5,2.6-31,5.7-46.6,7.8c-16.9,2.3-34,3.6-51,5.4c-0.7,0.1-1.5,0.2-2.2,0.4
		c-15.7,2.3-31.3,4.9-47,6.8c-17,2.1-34,3.8-51,5.6c-1.2,0.1-2.5,0.4-3.7,0.6c-15.9,2.3-31.8,4.9-47.8,6.8
		c-17,2.1-34.1,3.6-51.1,5.4c-0.5,0.1-1,0.1-1.5,0.2c-15.8,2.6-31.6,5.8-47.5,7.8c-16,2-32.2,2.8-48.2,4.2c-2.2,0.2-4.4,0.9-6.6,1.2
		c-14.6,2.4-29.2,5.1-43.9,7c-17.2,2.2-34.5,3.8-51.8,5.6c-1.5,0.2-2.9,0.6-4.4,0.8c-16.6,2.3-33.3,4.8-49.9,6.8
		c-15.9,2-32,3.5-47.9,5.2c-0.2,0-0.5,0.1-0.7,0.2c-15.2,2.3-30.3,4.9-45.5,6.8c-17.7,2.2-35.5,3.7-53.2,5.6c-1,0.1-2,0.4-2.9,0.6
		c-16.3,2.6-32.6,5.5-49,7.6c-16.5,2.1-33.2,3.2-49.8,4.8c-0.7,0.1-1.5,0.3-2.2,0.4c-17.6,2.7-35.1,5.6-52.8,8
		c-16.2,2.2-32.5,3.7-48.7,5.6C392.5,1621.5,391,1622.7,389.5,1623.5z M2067.1,402.7c-9.2,1.8-18.3,4-27.6,5.3
		c-21.1,2.8-42.3,5.1-63.4,7.8c-22.4,2.9-44.7,6.3-67.1,8.9c-30.4,3.6-60.8,6.6-91.2,9.8c-1,0.1-2,0.1-3,0.3
		c-14.3,2.5-28.5,5.5-42.9,7.5c-21.4,3-42.9,5.2-64.3,7.9c-22.6,2.9-45.1,6.1-67.7,9c-23.1,3-46.3,5.7-69.4,8.6
		c-22.3,2.9-44.6,6.1-66.9,8.9c-22.6,2.9-45.3,5.3-67.9,8.2c-21.2,2.7-42.3,5.8-63.4,8.6c-24.6,3.2-49.3,6-73.9,9.1
		c-9.8,1.2-19.5,2.9-29.3,4.1c-23.4,2.9-46.9,5.6-70.3,8.3c-17,1.9-34.1,3.6-51.1,5.4c-1.2,0.1-2.4,0.5-3.7,0.7
		c-14.6,2.4-29.2,5.3-43.9,7.1c-29.6,3.6-59.3,6.5-89,9.7c-0.7,0.1-1.5,0.2-2.2,0.3c-16.8,2.7-33.6,5.8-50.5,7.9
		c-15.3,1.9-30.7,2.6-46.1,4.2c-12.1,1.3-24.1,3.1-36.1,5c-14.7,2.3-29.3,5.5-44,7.3c-29.1,3.6-58.3,6.4-87.5,9.6
		c-0.5,0.1-1,0.1-1.5,0.2c-16.1,2.7-32.2,5.7-48.4,7.9c-20.4,2.9-40.9,5.1-61.3,7.7c-22.6,2.9-45.2,6.2-67.9,8.9
		c-30.1,3.5-60.3,6.6-90.5,9.8c-1,0.1-2,0.3-3,0.4c-14.9,2.5-29.8,5.4-44.7,7.5c-20.6,2.9-41.3,5.1-62,7.7
		c-22.9,2.9-45.8,6.1-68.7,9.1c-34.7,4.5-69.5,9-104.2,13.3c-23.2,2.9-46.4,5.6-69.6,8c-4.8,0.5-6.9,2.4-6.5,7
		c1.8,18.3,3.5,36.6,5.8,54.8c2.1,17,5.1,33.8,7.2,50.8c2.1,16.5,3.6,33.1,5.3,49.6c0.1,0.5,0.2,1,0.2,1.5
		c2.6,15.9,5.8,31.7,7.7,47.6c2,16,2.8,32.2,4.2,48.3c0.1,1.5,0.5,3,0.7,4.4c2.5,15.4,5.5,30.7,7.5,46.1c2.3,17.7,3.7,35.6,5.6,53.3
		c0.1,1,0.4,2,0.6,2.9c2.4,16.2,5,32.4,7,48.6c2.1,17.2,3.6,34.5,5.4,51.8c0.1,0.5,0.2,1,0.3,1.5c2.3,14.7,4.9,29.3,6.7,44.1
		c2.2,18,3.7,36,5.5,54.1c0,0.5,0.1,1,0.2,1.5c2.6,14.8,5.9,29.5,7.7,44.4c3.6,29.6,6.4,59.3,9.6,89c0.1,0.7,0.2,1.5,0.3,2.2
		c2.7,16.4,5.9,32.7,7.9,49.1c2,15.8,2.5,31.8,4.4,47.6c0.3,2.9,4,7.4,6.3,7.6c8.4,0.5,17,0,25.4-1.2c15.1-2.2,30.1-5.6,45.3-7.7
		c21.1-3,42.3-5.1,63.4-7.8c22.8-2.9,45.5-6.1,68.3-9.1c23.1-3,46.3-5.8,69.4-8.8c22.6-2.9,45.1-6.1,67.7-9
		c21.6-2.7,43.3-5.1,64.9-7.9c21.9-2.8,43.7-5.9,65.5-8.7c23.6-3,47.2-5.8,70.8-8.8c22.3-2.9,44.6-6.1,67-8.9
		c22.3-2.8,44.7-5.5,67-8c17.7-2,35.5-3.7,53.2-5.5c1-0.1,2-0.3,3-0.5c15.7-2.4,31.3-5.1,47-7.1c17.7-2.2,35.5-3.7,53.3-5.5
		c0.5-0.1,1-0.1,1.5-0.1c18.3-2.8,36.6-5.7,54.9-8.3c19.4-2.7,38.8-5.3,58.2-7.6c17.3-2.1,34.6-3.7,51.9-5.5c0.5-0.1,1-0.2,1.5-0.2
		c16.2-2.5,32.3-5.4,48.5-7.4c18-2.2,36-3.7,54-5.5c0.5,0,1-0.1,1.5-0.2c14.8-2.6,29.6-5.8,44.5-7.7c16.3-2,32.7-2.9,49-4.3
		c1.7-0.1,3.5-0.5,5.2-0.8c16.5-2.6,33-5.6,49.6-7.8c16.5-2.2,33.1-3.2,49.6-5.5c27.2-3.7,54.4-8.2,81.6-11.8
		c17.7-2.3,35.5-3.7,53.2-5.5c1.2-0.1,2.5-0.2,3.7-0.4c14.4-2.2,28.8-4.7,43.3-6.6c17.7-2.2,35.5-3.8,53.2-5.7
		c0.7-0.1,1.5-0.2,2.2-0.3c16.2-2.4,32.3-5.2,48.5-7.2c16.7-2.1,33.5-3.5,50.3-5.3c0.7-0.1,1.5-0.2,2.2-0.3
		c15.6-2.7,31.1-5.7,46.8-7.9c20.6-2.9,41.3-5,61.9-7.7c23.4-3,46.7-6.1,70.1-9.2c32.9-4.3,65.8-8.6,98.7-12.8
		c13.7-1.8,27.4-3.7,41.2-4.9c5.5-0.5,7-2.8,6.4-7.5c-1.4-10.5-3-21-4.3-31.6c-2.7-22.2-5.2-44.4-8-66.5c-2.8-22.1-6-44.2-8.8-66.3
		c-3.1-24.1-5.9-48.3-8.9-72.5c-1.2-9.8-2.7-19.6-3.9-29.5c-2.9-23.4-5.7-46.8-8.4-70.2c-2-17.7-3.7-35.5-5.5-53.3
		c-0.1-0.7-0.2-1.5-0.3-2.2c-2.5-14.6-5.4-29.1-7.5-43.8c-3.2-22.3-5.7-44.8-8.6-67.1c-3-23.3-6.4-46.6-9.1-70
		c-1.9-16.6-2.9-33.2-4.3-49.9c-0.1-1.5-0.2-3-0.5-4.5c-2.6-15.3-5.6-30.6-7.7-46c-2.3-17.7-3.7-35.6-5.5-53.4
		c-0.1-1-0.5-1.9-0.6-2.9c-2.4-16.7-5.6-33.3-7-50.1C2086.5,403,2087.1,403,2067.1,402.7z"/>
	<path fill="#B6C0B5" d="M784.5,1162.5c-6.4-4.7-9.8-5.6-13.1,2.3c-1.6,3.8-8.6,6-13.6,7.7c-10.2,3.6-21,5.6-31.1,9.6
		c-11.5,4.6-14.9,3.6-19.5-7.9c-7.3-18.3-15.4-36.1-26.4-52.8c-8.7-13.2-13.5-28.9-20.2-43.5c-5-10.9-10.4-21.5-15.1-32.5
		c-4.3-9.9-7.8-20-11.8-30c-5.1-12.5-10.4-25-15.4-37.5c-2.2-5.4-3.7-11.1-5.8-16.5c-0.8-2-2.7-3.5-4.2-5.2c-1,2-3,3.9-3,5.8
		c0.3,6.2,1.5,12.3,2,18.4c0.8,9.2,1.2,18.4,1.8,27.6c1.4,20.4,0.6,41.3,4.6,61.1c5.2,25.7,3.2,51.1,3,76.7c0,5.4-2.4,11.1-5.1,15.9
		c-1.4,2.5-5.4,4.4-8.6,5.1c-15.5,3.2-31.2,5.8-46.7,8.9c-4.2,0.8-8.2,3.2-12.4,4c-8.5,1.6-15.8-0.1-21.8-7.5
		c-12.4-15.3-25.5-29.9-38.3-44.9c-8.3-9.8-16.7-19.5-24.7-29.5c-4.3-5.4-7.9-11.5-13.5-16.8c-0.1,2-0.9,4.2-0.3,6
		c3.4,11.4,7.3,22.6,10.6,33.9c3.6,12.7,7.1,25.5,10.1,38.4c2.9,12.6-6.1,19.4-14.8,24.3c-12.2,6.9-25.2,12.6-38.5,17
		c-7.2,2.4-16.4,2.9-23.5,0.6c-5.4-1.8-10.9-8.7-13-14.5c-4.3-12.3-6.1-25.4-9.3-38.1c-2-8-4.8-15.9-7.2-23.9
		c-1.9-6.3-4.2-12.6-5.5-19c-1.8-8.9-2.6-18.1-4.2-27c-2.4-13.1-5.2-26.1-7.8-39.1c-0.1-0.7-0.3-1.5-0.4-2.2
		c-1.7-15.3-3.6-30.6-4.9-45.9c-1.8-21.1-3-42.3-4.8-63.4c-0.5-6.3-2.4-12.5-3.7-18.8c-1-5.1,1.7-8,6.1-9.7
		c7.8-3.1,15.6-6.1,23.3-9.3c16.8-7.1,34.6-10.3,52.4-7.2c6.4,1.1,12.4,8.7,17,14.6c13.1,16.9,25.7,34.2,37.9,51.8
		c10.9,15.7,20.9,32.2,31.7,48c6.1,8.9,12.9,17.4,20.6,27.7c0.6-3.9,1.2-6.3,1.2-8.6c0.1-12.7-0.8-25.6,0.1-38.2
		c1.6-21.8,4.4-43.4,6.6-65.1c0.3-3.2,0-6.6,0.7-9.7c2.6-11.8,5.5-23.6,8.3-35.4c1.8-7.4,4.4-14.8,5-22.3c0.9-10.5,2.8-20.3,8-29.5
		c1.5-2.6-0.1-6.9,1.3-9.5c2.3-4.1,5.3-9.3,9.2-10.7c23.6-8.6,48.3-4.3,72.6-5c2.8-0.1,6.5,3,8.5,5.6c4.9,6.2,9.7,12.7,13.3,19.7
		c4.5,8.8,7.8,18.1,11.5,27.3c5.2,13.1,10.4,26.3,15.4,39.5c4,10.5,7.8,21,11.8,31.5c3.7,9.5,7.8,18.9,11.3,28.5
		c3.7,10.3,6.7,20.8,10.1,31.2c3,9.3,6.1,18.6,9.3,27.9c3.6,10.3,7.1,20.7,11.1,30.9c4.8,12.2,10.1,24.2,15.2,36.3
		c2.4,5.8,4.8,11.7,7,17.7c3.5,9.1,6.5,18.5,10.5,27.4c6,13.5,12.7,26.7,18.8,40.2C785.2,1156.4,784.5,1159,784.5,1162.5z"/>
	<path fill="#B6C0B5" d="M1958.1,793.8c-1.6,18.3-1.4,33.5-4.6,48c-4.1,18.3-11,35.9-23.2,51.1c-17.1,21.3-32.4,44.1-50,65
		c-19.1,22.8-41.8,41.7-69.9,53c-1.4,0.5-2.9,0.7-4.4,0.7c-4.8-0.1-7,2.2-6.5,6.9c2.3,20.4,4.4,40.8,7,61.2
		c1.3,10.5,3.3,20.9,5.5,31.3c2,9.1,4.7,18,7.1,26.9c1.3,4.7,2.4,9.5,4.4,13.9c5.7,12.6,11.9,25,17.6,37.6c0.8,1.8-0.2,6.4-1,6.6
		c-6.4,1.4-12.9,2.6-19.5,2.9c-5.2,0.3-10.6-1.7-15.7-0.9c-3.8,0.6-7.1,4.2-10.9,5.7c-2.5,1-5.6,0.7-8.4,0.8
		c-1.2,0.1-2.6-0.7-3.4-0.3c-8,3.9-14.7,0.1-17.4-8.3c-3.2-10.1-8.1-19.6-12.2-29.4c-1.7-4.1-3.7-8.1-4.8-12.3
		c-2.1-8.3-3.5-16.8-5.6-25.1c-1.1-4.7-3.1-9.1-4.3-13.7c-3.9-15.2-7.9-30.3-11.5-45.6c-2.2-9.4-3.5-18.9-5.3-28.4
		c-1.4-7.5-2.2-15.3-4.9-22.4c-1.2-3.1-6-5.4-9.7-7c-16.6-7.6-18.5-18.7-16-34c1.1-6.6,7.2-9.6,13.7-9.9c6.1-0.3,8.3-2.8,8.1-8.9
		c-0.3-10,0.8-20.1,0-30c-2-22.7,0.3-45.4,1.2-68c0.5-12.6,0.3-25.7,3.7-37.7c4.3-15.7,3.2-32.5,11.8-47.4c4.6-8,5.3-18.2,9.2-26.7
		c7.7-17,16-33.9,31.5-45.8c2.7-2.1,4.3-5.7,6.3-8.6c16.2-23.2,43.7-34.1,70.7-28c12,2.7,23.9,5.4,35.8,8.4
		c8.2,2.1,16.1,5.2,24.4,6.7c14,2.5,19.1,14.2,26,23.9c9.3,13,15.7,27,17.8,43.2C1952.8,765.4,1955.9,781.2,1958.1,793.8z
		 M1793.2,937.9c1.1,0.3,2.2,0.6,3.3,0.9c4.8-3.2,10.7-5.5,14.2-9.7c13.9-17.1,28.2-33.9,39.9-52.5c9.2-14.6,16.1-30.8,18.8-48.7
		c2.9-19.4,3.3-38.5-0.2-57.7c-1.5-8.2-3.3-16.3-5.4-24.4c-1.5-5.9-3.2-11.7-5.6-17.2c-0.4-1-5.7-1.4-7.1-0.2c-3.6,3-7,6.8-9.3,10.9
		c-7.8,13.9-16.1,27.7-22.2,42.3c-6.7,16-12.3,32.6-16.1,49.4c-3.2,14.2-3,29.1-4.2,43.7c-0.6,7.7-0.6,15.4-1.4,23.1
		C1796.6,911.3,1794.8,924.6,1793.2,937.9z"/>
	<path fill="#B6C0B5" d="M1027.9,1114.5c-7.2,4.4-13.5,8.6-20.1,12.2c-7.9,4.2-15.9,8.4-24.2,11.6c-8,3-16.5,4.5-24.7,6.9
		c-13,3.7-25.9,7.7-38.9,11.4c-2.6,0.7-5.4,1.4-8,1.2c-19.1-1.1-38.3-1.7-57.3-4.2c-7.2-0.9-14.6-3.9-20.9-9.7
		c-5.5-5-13.3-7.9-20.5-10.6c-12.5-4.7-22.1-12.8-29.1-23.8c-5.5-8.7-10-18-14.9-27c-0.6-1.1-1-2.3-1.2-3.5
		c-1.4-10.3-2.8-20.6-3.9-30.9c-1.7-15.3-1.4-31-5.3-45.7c-7.1-27.1-2.2-54.3-3.1-81.5c-0.3-11,5.4-22.1,7.5-33.3
		c4.2-21.9,17.8-38.6,30.6-55.5c7.6-10,17.9-17.9,27-26.7c1.3-1.3,2.3-2.9,3.6-4.3c6.3-7,12.4-13.7,23.5-13
		c12.9,0.8,26-0.4,38.9,0.4c9.8,0.6,19.8,2.1,29.3,4.8c14.8,4.3,19.9,17.2,23.9,30.5c2.7,8.9,5.3,17.8,8,26.7c0.3,1,0.6,1.9,0.8,2.9
		c3.1,19.3,5.9,38.6,9.3,57.8c1.7,9.4,5,18.5,6.7,27.9c1,5.5,0.7,11.4,0.4,17.1c-0.6,9.8-2.3,19.6-2.5,29.4
		c-0.3,12.5-0.1,12.4-12.4,14.1c-14.9,2.1-29.6,5.6-44.6,6.5c-15.3,0.9-30.9,0-46.2-1.3c-8.5-0.7-14.4,2.5-13.4,10.9
		c2.3,18.2,3.6,36.9,8.9,54.2c6.3,20.6,21.7,34.6,40.6,45.7c12.8,7.5,21.5-0.6,31.8-3.1c12.1-2.9,21.3-11.5,31.8-17.4
		c5.9-3.4,15.5-0.5,23.4,0c3.4,0.2,6.9,2.6,10.1,2.2c11.1-1.6,18.4,7.3,28.1,9.4C1023.1,1107.3,1024.5,1110.7,1027.9,1114.5z
		 M863.2,874.7c-1.1,0.3-2.2,0.6-3.3,0.8c-2.1,6.7-4.6,13.3-6.2,20.1c-2.9,12.6-6.7,25.2-7.6,38c-2.1,27.9-4.3,21.5,23.5,22.9
		c0.7,0,1.7,0.1,2.2-0.3c1.4-1.1,3.6-2.5,3.6-3.7c0.1-9.5,0.6-19-0.6-28.3c-1.7-13.6-4.6-27.1-7.3-40.6
		C866.8,880.5,864.6,877.7,863.2,874.7z"/>
	<path fill="#B6C0B5" d="M1179.9,977.8c-6.7,2.4-15,5.2-23.1,8.2c-2.5,0.9-4.7,2.7-6.9,4.2c-11.3,7.6-24,4.5-36.2,4.7
		c-12,0.3-24-0.2-35.9-0.7c-5.3-0.2-7.2,1.4-7.5,7.1c-1.2,22.8,7.5,41.6,23.2,57.1c9.4,9.2,19.2,19.5,30.9,24.4
		c11.2,4.7,25,4.9,37.4-1.2c8.2-4,16.8-7.5,25.5-10.3c8.1-2.6,11.8-8.7,15.3-15.5c4.9-9.7,10.9-12.3,20.9-9.2
		c4.2,1.3,8.3,2.9,12.6,4.3c10.2,3.3,13.9,12.1,14.5,20.9c0.3,4.1-5.4,10.1-9.9,12.8c-15.2,9.1-30.6,18-46.8,25
		c-10.9,4.7-23.8,9.5-34.8,7.8c-20.5-3.2-40.9,0.9-60.9-2.4c-17.6-2.9-35.8-6.2-50.5-17.1c-8.3-6.2-14.4-15.2-21.5-23
		c-4.6-5.1-8.6-11.2-14-15.3c-8.8-6.5-12.2-15.8-14.8-25.2c-2.7-9.9-3-20.5-4.7-30.8c-1.5-9.1-2.1-18.6-5.5-27
		c-3.6-9.1,0-16.5,1.9-24.6c1-4,2.5-8,2.9-12.1c1.9-20.3,2.4-40.8,5.5-60.9c2.6-16.3,6.6-32.8,12.9-48c9.4-22.8,22.5-43.6,39.6-61.8
		c4.9-5.2,8.2-12,11.8-18.3c4.9-8.5,12.6-12.5,21.9-12.3c16.8,0.3,33.5,1.5,49,9.2c2.6,1.3,5.8,1.4,8.7,1.6
		c10.5,0.8,19.5,4.2,25.6,13.4c1.1,1.6,1.8,3.5,2.4,5.4c5.7,18.6,4.4,37.7,4.8,56.8c0.2,10.1,1.4,20.3,1.9,30.4
		c0.1,1.8-1,3.7-1.4,5.6c-0.6,3.3-1,6.7-1.5,10.1c-0.6,3.6-1.3,7.2-1.8,10.8c-0.4,3.1-1.1,6.3-0.9,9.4c1.1,14.3,2.3,28.6,3.9,42.8
		C1175.8,947.7,1177.8,961.6,1179.9,977.8z M1096.6,841.4c-3.6,10.3-6.8,18.4-9.2,26.8c-2.3,8.3-4,16.7-5.4,25.2
		c-2.8,16.5-5.4,33-7.8,49.5c-0.7,4.9,1.7,7.5,6.9,7.3c4.7-0.2,9.5-0.3,14.2-0.3c12,0,14.2-1.7,13.6-13.9c-0.8-15.6-2.4-31.1-4-46.6
		c-1.5-14.5-3.4-29-5.2-43.5C1099.5,845.2,1098.8,844.6,1096.6,841.4z"/>
	<path fill="#B6C0B5" d="M1320.1,649.7c0,8.2-0.9,16.6,0.2,24.7c1.9,14.6,5,29.1,7.7,43.6c1.7,9.2,3.4,18.5,5.2,27.7
		c2.7,14.1,5.4,28.1,7.9,42.2c2.1,11.9,3.6,23.8,5.7,35.7c1.5,8.2,4.1,16.1,5.3,24.3c0.7,4.8-0.4,9.9-0.6,14.8
		c-0.3,7.2-0.8,14.4-0.3,21.5c0.1,1.2,4.6,2.8,7.1,2.8c1.7,0,4.5-2.1,4.9-3.8c0.7-2.8,0.6-6.1-0.3-8.9c-2.9-9.2,3.1-13,9.5-16.5
		c1.3-0.7,3.8-0.9,5-0.1c11.3,6.7,22.6,13.3,33.5,20.6c9,6,17.3,13,25.9,19.6c2.5,1.9,5.5,3.6,7.1,6.1c2.2,3.4,3.5,7.4-2.5,9.2
		c-10.2,3.1-20.3,6.2-28,14.4c-1,1.1-3.2,1.2-4.9,1.4c-12.3,1.7-24.5,3.5-36.9,4.8c-11.5,1.3-15.8,5.3-12.5,15.8
		c4.5,14.4,3.2,29.1,4.6,43.6c1,10.2,3.8,20.2,5.6,30.3c2.5,14.3,4.8,28.7,7.3,43.1c1.3,7.6,2.9,15.2,4.2,22.8
		c0.8,4.7,1.1,8.4-6,9.1c-5.8,0.6-11.2,4.4-16.9,6.4c-4.5,1.6-8.7,6-14.3,1.9c-1.1-0.8-4.1-0.2-5.5,0.7c-10.1,7.1-16.1,5-17.7-6.9
		c-1.7-13.3-2.3-26.7-4.4-40c-1.7-10.6-4.8-21-7.3-31.5c-0.5-1.9-0.9-3.9-1.3-5.8c-3.1-16.7-6-33.5-9.2-50.2
		c-1.1-5.8-2.4-11.5-4.3-17.1c-0.7-2-3.4-4.7-5.1-4.6c-8.7,0.2-17.3,1.4-25.9,1.9c-12.2,0.8-24.4,1.9-36.6,1.7
		c-3.4-0.1-7.6-3.5-10-6.6c-6.7-8.5-5.7-19.2-2.1-27.6c3.1-7.3,10.5-13,20.5-13.4c13.3-0.5,26.6-2.3,39.9-3.7
		c6.7-0.7,8.6-4.8,6.3-11.3c-2.9-7.8-5.6-15.6-7.5-23.6c-3.5-14.9-5.8-30-9.5-44.8c-3.5-13.7-8.3-27.1-12.1-40.7
		c-1.7-6.2-2.5-12.6-3.7-18.9c-1.9-10.2-3.3-20.5-5.6-30.6c-2.3-10.6-6.1-20.9-8-31.5c-2.3-12.9-3.5-26.1-4.8-39.2
		c-1.6-16.5-3.4-33.1-3.8-49.6c-0.2-6.7,2.5-13.5,4.7-20c0.7-2.2,3.6-4.1,5.9-5.2c12.5-5.8,25-6.2,37.9-0.5
		c10.2,4.5,20.8,8.3,31.5,11.9c10.9,3.7,13.1,12.6,13.8,22.1c0.7,9.2,0.2,18.5,0.2,27.7C1319.8,649.7,1319.9,649.7,1320.1,649.7z"/>
	<path fill="#B6C0B5" d="M1568.7,1018.7c7.1-11,13.7-20.2,19.1-30c5.9-10.7,12-21.7,15.5-33.2c3.6-11.7,5.1-24.2,5.8-36.4
		c0.8-14.4,0.4-29-0.5-43.5c-0.7-11.1-2.6-22.1-4.7-33c-0.8-3.8-4-7.1-5.9-10.8c-1-1.9-2.4-4.2-2-6.1c1.8-10.9,4.6-21.5,15.4-27.5
		c7.7-4.3,14.3,1.4,21.4,2.7c7.2,1.3,14.1,4.1,20.9,6.7c7.3,2.8,14.2,7.1,21.8,9c13.7,3.4,13.9,15.4,14.5,24.6
		c1.6,22.6,0.9,45.4,0.7,68.1c0,3.6-2.9,7.2-4.1,10.9c-3.6,10.9-7.8,21.1-16.5,29.6c-4.5,4.4-5.5,12.3-8,18.6
		c-2.2,5.6-4.2,11.2-6.5,17.4c-2.4-1-4.3-1.9-6.3-2.7c6,7.4,1.3,12.6-2.5,18.3c-4.4,6.5-6.7,14.4-15.1,18c-2.3,1-4.3,5.2-4.6,8.1
		c-1.1,13.8-11.5,19.2-21.8,22.7c-13.4,4.5-27.6,6.9-41.6,9.6c-9.9,1.9-20,3.7-30,3.7c-9.7,0-18.2-5.6-23.8-13.2
		c-9-12.3-17.3-25.1-24.4-38.6c-4.9-9.3-7.1-19.9-10.6-29.9c-3.9-11.2-7.8-22.4-11.5-33.7c-2-6-4.1-12.1-5.3-18.3
		c-1.8-9.5-2.4-19.1-4.3-28.6c-2.2-11-5.3-21.9-7.8-32.8c-0.8-3.4-0.5-7-1.1-10.4c-0.8-5.4-1.2-11-2.8-16.1
		c-4.6-14.3,5-29.2,19.7-28.4c9.7,0.5,19.2,3.6,28.8,6c6.6,1.6,13,4.4,19.7,5.7c9.8,2,19.5,10.4,21.3,20.3c1.9,10.2,3,20.5,4.6,30.7
		c2,12.7,4.2,25.5,6.5,38.2c3.6,19.4,7.3,38.7,11.2,58.1c2.4,11.8,4.9,23.5,7.9,35.1C1562.6,1010.8,1565.3,1013.4,1568.7,1018.7z"/>
</g>
</svg>
