<?xml version="1.0" encoding="utf-8"?>
<!-- Generator: Adobe Illustrator 18.1.0, SVG Export Plug-In . SVG Version: 6.00 Build 0)  -->
<!DOCTYPE svg PUBLIC "-//W3C//DTD SVG 1.1//EN" "http://www.w3.org/Graphics/SVG/1.1/DTD/svg11.dtd">
<svg version="1.1" xmlns="http://www.w3.org/2000/svg" xmlns:xlink="http://www.w3.org/1999/xlink" x="0px" y="0px"
	 viewBox="0 0 100 100" enable-background="new 0 0 100 100" xml:space="preserve">
<g id="Layer_1">
	<g>
		<path fill="none" stroke="#505070" stroke-width="2" stroke-linecap="round" stroke-linejoin="round" stroke-miterlimit="10" d="
			M4.4,27.9v9.5c0,3.8,3.3,6.7,7.1,6.2L24.7,42c2.9-0.4,5.1-2.6,5.5-5.5l0.3-3c0.4-3.2,3.1-5.6,6.2-5.6h26.5c3.2,0,5.9,2.4,6.2,5.6
			l0.3,3c0.3,2.9,2.6,5.1,5.5,5.5l13.2,1.6c3.8,0.5,7.1-2.5,7.1-6.2v-9.5c0-6.5-9.2-15.7-45.6-15.7C13.6,12.3,4.4,21.9,4.4,27.9z"/>
		
			<line fill="none" stroke="#505070" stroke-width="2" stroke-linecap="round" stroke-linejoin="round" stroke-miterlimit="10" x1="64.1" y1="59.4" x2="64.1" y2="59.4"/>
		
			<line fill="none" stroke="#505070" stroke-width="2" stroke-linecap="round" stroke-linejoin="round" stroke-miterlimit="10" x1="54.7" y1="59.4" x2="54.7" y2="59.4"/>
		
			<line fill="none" stroke="#505070" stroke-width="2" stroke-linecap="round" stroke-linejoin="round" stroke-miterlimit="10" x1="45.3" y1="59.4" x2="45.3" y2="59.4"/>
		
			<line fill="none" stroke="#505070" stroke-width="2" stroke-linecap="round" stroke-linejoin="round" stroke-miterlimit="10" x1="35.9" y1="59.4" x2="35.9" y2="59.4"/>
		
			<line fill="none" stroke="#505070" stroke-width="2" stroke-linecap="round" stroke-linejoin="round" stroke-miterlimit="10" x1="64.1" y1="53.1" x2="64.1" y2="53.1"/>
		
			<line fill="none" stroke="#505070" stroke-width="2" stroke-linecap="round" stroke-linejoin="round" stroke-miterlimit="10" x1="54.7" y1="53.1" x2="54.7" y2="53.1"/>
		
			<line fill="none" stroke="#505070" stroke-width="2" stroke-linecap="round" stroke-linejoin="round" stroke-miterlimit="10" x1="45.3" y1="53.1" x2="45.3" y2="53.1"/>
		
			<line fill="none" stroke="#505070" stroke-width="2" stroke-linecap="round" stroke-linejoin="round" stroke-miterlimit="10" x1="35.9" y1="53.1" x2="35.9" y2="53.1"/>
		
			<line fill="none" stroke="#505070" stroke-width="2" stroke-linecap="round" stroke-linejoin="round" stroke-miterlimit="10" x1="64.1" y1="65.7" x2="64.1" y2="65.7"/>
		
			<line fill="none" stroke="#505070" stroke-width="2" stroke-linecap="round" stroke-linejoin="round" stroke-miterlimit="10" x1="54.7" y1="65.7" x2="54.7" y2="65.7"/>
		
			<line fill="none" stroke="#505070" stroke-width="2" stroke-linecap="round" stroke-linejoin="round" stroke-miterlimit="10" x1="45.3" y1="65.7" x2="45.3" y2="65.7"/>
		
			<line fill="none" stroke="#505070" stroke-width="2" stroke-linecap="round" stroke-linejoin="round" stroke-miterlimit="10" x1="35.9" y1="65.7" x2="35.9" y2="65.7"/>
		
			<line fill="none" stroke="#505070" stroke-width="2" stroke-linecap="round" stroke-linejoin="round" stroke-miterlimit="10" x1="64.1" y1="72" x2="64.1" y2="72"/>
		
			<line fill="none" stroke="#505070" stroke-width="2" stroke-linecap="round" stroke-linejoin="round" stroke-miterlimit="10" x1="54.7" y1="72" x2="54.7" y2="72"/>
		
			<line fill="none" stroke="#505070" stroke-width="2" stroke-linecap="round" stroke-linejoin="round" stroke-miterlimit="10" x1="45.3" y1="72" x2="45.3" y2="72"/>
		
			<line fill="none" stroke="#505070" stroke-width="2" stroke-linecap="round" stroke-linejoin="round" stroke-miterlimit="10" x1="35.9" y1="72" x2="35.9" y2="72"/>
		<path fill="none" stroke="#505070" stroke-width="2" stroke-linecap="round" stroke-linejoin="round" stroke-miterlimit="10" d="
			M75.3,42c-2.9-0.4-5.1-2.6-5.5-5.5l-0.3-3c-0.4-3.2-3.1-5.6-6.2-5.6H36.7c-3.2,0-5.9,2.4-6.2,5.6l-0.3,3c-0.3,2.9-2.6,5.1-5.5,5.5
			L17,43v35.3c0,5.2,4.2,9.4,9.4,9.4h47.2c5.2,0,9.4-4.2,9.4-9.4V43L75.3,42z"/>
		
			<rect x="39" y="34.3" fill="none" stroke="#505070" stroke-width="2" stroke-linecap="round" stroke-linejoin="round" stroke-miterlimit="10" width="22" height="6.3"/>
	</g>
</g>
<g id="Layer_2" display="none">
	<g display="inline">
		<path fill="none" stroke="#505070" stroke-width="2" stroke-linecap="round" stroke-linejoin="round" stroke-miterlimit="10" d="
			M76,88.7l6.7-6.7c2.7-2.7,2.4-7.1-0.6-9.4l-10.5-8.2c-2.3-1.8-5.5-1.8-7.8,0l-2.3,1.8c-2.5,2-6.1,1.8-8.4-0.5L34.4,46.9
			c-2.3-2.3-2.5-5.8-0.5-8.4l1.8-2.3c1.8-2.3,1.8-5.5,0-7.8L27.6,18c-2.3-3-6.7-3.3-9.4-0.6l-6.7,6.7c-4.6,4.6-4.6,17.6,21.2,43.4
			C58.4,93.3,71.8,92.9,76,88.7z"/>
		<path fill="none" stroke="#505070" stroke-width="2" stroke-linecap="round" stroke-linejoin="round" stroke-miterlimit="10" d="
			M90.9,48.5c0-21.7-17.6-39.3-39.3-39.3"/>
		<path fill="none" stroke="#505070" stroke-width="2" stroke-linecap="round" stroke-linejoin="round" stroke-miterlimit="10" d="
			M51.6,18.6c16.5,0,29.9,13.4,29.9,29.9"/>
		<path fill="none" stroke="#505070" stroke-width="2" stroke-linecap="round" stroke-linejoin="round" stroke-miterlimit="10" d="
			M51.6,28C62.9,28,72,37.2,72,48.5"/>
		<path fill="none" stroke="#505070" stroke-width="2" stroke-linecap="round" stroke-linejoin="round" stroke-miterlimit="10" d="
			M51.6,37.5c6.1,0,11,4.9,11,11"/>
	</g>
</g>
<g id="Layer_3" display="none">
	<g display="inline">
		
			<polyline fill="none" stroke="#505070" stroke-width="2" stroke-linecap="round" stroke-linejoin="round" stroke-miterlimit="10" points="
			10.7,51.6 50,12.3 89.3,51.6 		"/>
		
			<polyline fill="none" stroke="#505070" stroke-width="2" stroke-linecap="round" stroke-linejoin="round" stroke-miterlimit="10" points="
			64.1,26.4 64.1,18.6 73.6,18.6 73.6,35.9 		"/>
		
			<polyline fill="none" stroke="#505070" stroke-width="2" stroke-linecap="round" stroke-linejoin="round" stroke-miterlimit="10" points="
			20.1,42.1 20.1,87.7 42.1,87.7 42.1,65.7 57.9,65.7 57.9,87.7 79.9,87.7 79.9,42.1 		"/>
	</g>
</g>
<g id="Layer_4" display="none">
	<g display="inline">
		<path fill="none" stroke="#505070" stroke-width="2" stroke-linecap="round" stroke-linejoin="round" stroke-miterlimit="10" d="
			M89.3,90.9H10.7c-1.7,0-3.1-1.4-3.1-3.1V50c0-1.7,1.4-3.1,3.1-3.1h78.6c1.7,0,3.1,1.4,3.1,3.1v37.7C92.4,89.5,91,90.9,89.3,90.9z"
			/>
		
			<line fill="none" stroke="#505070" stroke-width="2" stroke-linecap="round" stroke-linejoin="round" stroke-miterlimit="10" x1="17" y1="59.4" x2="17" y2="59.4"/>
		
			<line fill="none" stroke="#505070" stroke-width="2" stroke-linecap="round" stroke-linejoin="round" stroke-miterlimit="10" x1="26.4" y1="59.4" x2="26.4" y2="59.4"/>
		
			<line fill="none" stroke="#505070" stroke-width="2" stroke-linecap="round" stroke-linejoin="round" stroke-miterlimit="10" x1="35.9" y1="59.4" x2="35.9" y2="59.4"/>
		
			<line fill="none" stroke="#505070" stroke-width="2" stroke-linecap="round" stroke-linejoin="round" stroke-miterlimit="10" x1="45.3" y1="59.4" x2="45.3" y2="59.4"/>
		
			<line fill="none" stroke="#505070" stroke-width="2" stroke-linecap="round" stroke-linejoin="round" stroke-miterlimit="10" x1="54.7" y1="59.4" x2="54.7" y2="59.4"/>
		
			<line fill="none" stroke="#505070" stroke-width="2" stroke-linecap="round" stroke-linejoin="round" stroke-miterlimit="10" x1="64.1" y1="59.4" x2="64.1" y2="59.4"/>
		
			<line fill="none" stroke="#505070" stroke-width="2" stroke-linecap="round" stroke-linejoin="round" stroke-miterlimit="10" x1="73.6" y1="59.4" x2="73.6" y2="59.4"/>
		
			<line fill="none" stroke="#505070" stroke-width="2" stroke-linecap="round" stroke-linejoin="round" stroke-miterlimit="10" x1="83" y1="59.4" x2="83" y2="59.4"/>
		
			<line fill="none" stroke="#505070" stroke-width="2" stroke-linecap="round" stroke-linejoin="round" stroke-miterlimit="10" x1="26.4" y1="68.9" x2="26.4" y2="68.9"/>
		
			<line fill="none" stroke="#505070" stroke-width="2" stroke-linecap="round" stroke-linejoin="round" stroke-miterlimit="10" x1="17" y1="68.9" x2="17" y2="68.9"/>
		
			<line fill="none" stroke="#505070" stroke-width="2" stroke-linecap="round" stroke-linejoin="round" stroke-miterlimit="10" x1="35.9" y1="68.9" x2="35.9" y2="68.9"/>
		
			<line fill="none" stroke="#505070" stroke-width="2" stroke-linecap="round" stroke-linejoin="round" stroke-miterlimit="10" x1="45.3" y1="68.9" x2="45.3" y2="68.9"/>
		
			<line fill="none" stroke="#505070" stroke-width="2" stroke-linecap="round" stroke-linejoin="round" stroke-miterlimit="10" x1="54.7" y1="68.9" x2="54.7" y2="68.9"/>
		
			<line fill="none" stroke="#505070" stroke-width="2" stroke-linecap="round" stroke-linejoin="round" stroke-miterlimit="10" x1="64.1" y1="68.9" x2="64.1" y2="68.9"/>
		
			<line fill="none" stroke="#505070" stroke-width="2" stroke-linecap="round" stroke-linejoin="round" stroke-miterlimit="10" x1="73.6" y1="68.9" x2="73.6" y2="68.9"/>
		
			<line fill="none" stroke="#505070" stroke-width="2" stroke-linecap="round" stroke-linejoin="round" stroke-miterlimit="10" x1="83" y1="68.9" x2="83" y2="68.9"/>
		
			<line fill="none" stroke="#505070" stroke-width="2" stroke-linecap="round" stroke-linejoin="round" stroke-miterlimit="10" x1="17" y1="78.3" x2="17" y2="78.3"/>
		
			<line fill="none" stroke="#505070" stroke-width="2" stroke-linecap="round" stroke-linejoin="round" stroke-miterlimit="10" x1="26.4" y1="78.3" x2="26.4" y2="78.3"/>
		
			<line fill="none" stroke="#505070" stroke-width="2" stroke-linecap="round" stroke-linejoin="round" stroke-miterlimit="10" x1="35.9" y1="78.3" x2="64.1" y2="78.3"/>
		<path fill="none" stroke="#505070" stroke-width="2" stroke-linecap="round" stroke-linejoin="round" stroke-miterlimit="10" d="
			M48.4,46.9V34.3c0-3.5,2.8-6.3,6.3-6.3h9.4c3.5,0,6.3-2.8,6.3-6.3V9.1"/>
		
			<line fill="none" stroke="#505070" stroke-width="2" stroke-linecap="round" stroke-linejoin="round" stroke-miterlimit="10" x1="73.6" y1="78.3" x2="73.6" y2="78.3"/>
		
			<line fill="none" stroke="#505070" stroke-width="2" stroke-linecap="round" stroke-linejoin="round" stroke-miterlimit="10" x1="83" y1="78.3" x2="83" y2="78.3"/>
	</g>
</g>
</svg>
