<?xml version="1.0" encoding="utf-8"?>
<!-- Generator: Adobe Illustrator 18.1.0, SVG Export Plug-In . SVG Version: 6.00 Build 0)  -->
<!DOCTYPE svg PUBLIC "-//W3C//DTD SVG 1.1//EN" "http://www.w3.org/Graphics/SVG/1.1/DTD/svg11.dtd">
<svg version="1.1" id="Layer_1" xmlns="http://www.w3.org/2000/svg" xmlns:xlink="http://www.w3.org/1999/xlink" x="0px" y="0px"
	 viewBox="54 0 192 300" enable-background="new 54 0 192 300" xml:space="preserve">
<g>
	<path fill="#5B605B" d="M62.8,286c0.5,0.6,1.1,0.3,1.7,0.3c57.1,0,114.3,0,171.4,0c0.4,0,0.8,0,1.3,0s0.6-0.3,0.5-0.6
		c0-0.3-0.2-0.5-0.5-0.5c-0.4,0-0.8,0-1.1,0c-8.3,0-16.6,0-24.9,0c-48.8,0-97.7,0-146.5,0c-0.6,0-1.3-0.3-1.8,0.3
		C62.8,285.6,62.8,285.8,62.8,286z M62.8,172.8c0.5,0.6,1.1,0.3,1.7,0.3c57.1,0,114.3,0,171.4,0c0.6,0,1.8,0.6,1.8-0.6
		c0-1.2-1.2-0.6-1.8-0.6c-27.5,0-55.1,0-82.6,0c-29.6,0-59.1,0-88.6,0c-0.6,0-1.3-0.4-1.8,0.4C62.8,172.4,62.8,172.6,62.8,172.8z
		 M207.9,195.9c-0.8,0.1-1.7,0.1-2.5,0.3c-10.5,1.8-18.4,7.3-22.7,17.3c-3.7,8.6-4,17.6-1.4,26.6c2.3,8,6.8,14.4,14.4,18.2
		c7.5,3.8,15.5,4.6,23.7,3.2c7.5-1.3,12.7-5.5,15.2-12.9c1.4-4.2,1.8-8.6,1.9-13c0-0.8,0.1-1.4-1.1-1.5c-1.2,0-1.2,0.6-1.2,1.5
		c0,3.9-0.4,7.7-1.4,11.4c-3,10.6-15.1,16.4-25,11.9c-4.6-2.1-7.4-5.9-9.3-10.5c-2.4-5.9-3.1-12.1-3.2-18.4
		c-0.1-7.2,0.3-14.3,2.9-21.1c1.8-4.9,4.7-9,9.9-10.9c3.5-1.2,7-1,10.6-0.4c6.6,1.1,11.5,4.5,14,11c0.9,2.4,1.3,5,1.4,7.6
		c0,0.6,0.1,1,0.8,1c0.8,0,0.8-0.5,0.8-1c0-5.9,0-11.7,0-17.6c0-0.6-0.1-1.1-0.8-1.2c-4.4-0.6-8.7-1.3-13.1-1.5
		C217,195.4,212.5,195.3,207.9,195.9z M88.4,247c0-12.3,0-24.6,0-36.9c0.1-0.8,0.2-1.6,0.3-2.4c0.6-5.9,3.5-9.1,8.8-9.8
		c0.4-0.1,1,0.2,1-0.5c0-0.8-0.7-0.4-1.1-0.4c-11,0-22,0-33,0c-0.4,0-1.1-0.3-1.2,0.4c-0.1,0.7,0.7,0.5,1.1,0.6
		c0.1,0.1,0.3,0.1,0.4,0.1c4.1,0.6,6.9,3,8.3,6.9c0.9,2.4,1,5,1,7.5c0,11,0.1,22,0,33c-0.1,6.7,3,11.4,9.2,13.7
		c8.4,3.1,17.1,3.9,25.9,1.9c7.2-1.6,12-7.5,12.4-14.6c0.3-0.7,0.3-1.4,0.3-2.1c0-7.3,0.1-14.7,0.1-22c0-3.7,0-7.3-0.1-11
		c0.1-0.9,0.2-1.8,0.3-2.6c0.5-5.2,2.9-10.5,9.1-10.8c0.4,0,1,0,0.9-0.6c-0.1-0.6-0.7-0.3-1.1-0.3c-6.8,0-13.6,0-20.4,0
		c-0.4,0-1.1-0.3-1.1,0.4c0,0.7,0.7,0.5,1.1,0.6c4.9,0.7,7.8,3.4,8.8,8.3c0.3,1.7,0.5,3.3,0.5,5c0,10.9,0.1,21.9-0.1,32.8
		c-0.1,6.3-2.4,11.5-8.6,14.1c-3.6,1.5-7.4,1.9-11.2,1.5c-3.8-0.5-7-2.3-9.3-5.5C89.1,252,88.8,249.5,88.4,247z M159.7,195.9
		c-2.4-0.4-4.9-0.4-7.4-0.3c-1.8,0-3.5-0.2-5.3,0.3c-1,0.1-2.1,0.1-3.1,0.3c-8.2,1.4-14.3,5.3-15.5,14.2c-0.5,4.1-0.3,8.2,1.9,12
		c2.3,3.9,5.9,6.1,9.9,7.8c4.6,2,9.6,3.1,14.3,5.1c3.3,1.4,6.6,3.2,7.9,6.8c1.7,4.8,1,9.5-1.5,13.9c-1.6,2.7-4.3,3.8-7.2,4.4
		c-1.4,0-2.9,0-4.3,0c-0.5-0.1-0.9-0.2-1.4-0.3c-4.1-0.7-7.7-2.4-10.7-5.3c-4-3.9-5.7-8.8-6.6-14.1c-0.4-2.2-0.5-4.4-0.6-6.6
		c0-0.4,0.2-1-0.5-1c-0.8,0-0.5,0.6-0.6,1c0,0.1,0,0.3,0,0.4c0,7.7,0,15.5,0,23.2c0,1.1,0.4,1.5,1.4,1.8c5,1.3,10,1.9,15.1,2.2
		c4.5,0.3,9,0.4,13.4-0.6c10.8-2.3,17.6-10.2,17.8-20.7c0.1-6.7-2.3-12.1-8.1-15.7c-3.4-2.1-7.2-3.3-11.1-4.4c-3.4-1-6.8-1.8-10-3.2
		c-2.9-1.3-5.5-3-6-6.5c-0.3-2.3-0.1-4.7,0.6-7c1.1-3.4,3.4-5.5,7-6.2c2.1-0.4,4.1-0.4,6.2-0.1c6,0.8,10.6,3.7,13.4,9.2
		c1.5,3,2.1,6.2,2.3,9.5c0,0.4-0.1,1,0.5,1c0.6,0,0.5-0.6,0.5-1c0-5.9,0-11.8,0-17.7c0-0.6-0.2-1-0.8-1.1
		C167.4,196.7,163.6,196,159.7,195.9z M150.1,278.1c-28.4,0-56.8,0-85.3,0c-0.5,0-0.9,0-1.4,0c-0.3,0-0.6,0-0.6,0.4
		c-0.1,1.1-0.3,2.2,0.1,3.2c0.3,0.7,1.4,0.3,2.1,0.3c56.8,0,113.7,0,170.5,0c0.5,0,0.9,0,1.4,0c0.3,0,0.6,0,0.7-0.3
		c0.3-1.1,0.3-2.2,0-3.2c-0.2-0.7-1.2-0.3-1.8-0.3C207.2,278.1,178.7,278.1,150.1,278.1z M150.2,180.1c28.5,0,56.9,0,85.4,0
		c0.5,0,0.9,0,1.4,0c0.3,0,0.6-0.1,0.6-0.4c0.1-1.1,0.4-2.3-0.1-3.2c-0.4-0.7-1.4-0.3-2.1-0.3c-56.8,0-113.6,0-170.4,0
		c-0.5,0-0.9,0-1.4,0c-0.3,0-0.7,0-0.7,0.3c-0.2,1.1-0.3,2.3,0,3.3c0.2,0.7,1.2,0.3,1.8,0.3C93.2,180.1,121.7,180.1,150.2,180.1z
		 M189.4,89c-0.2,1.2,0.8,1.6,1.7,1.8c1.1,0.3,2.1,0.6,2.8,1.5c0.3,0.4,0.8,0.8,1.3,0.2c0.8-1.1,1.9-1.4,3.1-1.8
		c0.8-0.3,1.5-0.7,2-1.5c0.8-1.2,0.4-2-1.1-2c-2.2,0-4.3,0.1-6.4,0.6c-0.5,0.1-0.9,0.3-1.4,0C190,87,189.4,87.3,189.4,89z M195.4,97
		c0-1.5-1-2.6-2.6-2.8c-1-0.1-1.9,0.1-2.8,0.5c-1.6,0.5-3.1,0.9-4.8,0.3c-1.1-0.5-2.2,0.5-2.1,1.5c0.1,0.4,0.1,0.8,0.6,0.7
		c1.1-0.3,2.1,0.2,3.2-0.1c2-0.5,3.9-0.4,5.6,0.8c0.3,0.2,0.6,0.3,0.9,0.4C194.8,98.8,195.4,98.4,195.4,97z M195.8,104.8
		c-0.9-1-0.8-1.8-0.5-2.7c0.1-0.4,0.2-0.9-0.2-1.3c-1.3-1.5-4.6-1.8-6.2-0.5c-0.4,0.3-0.8,0.8-0.5,1.3s0.7,0.9,1.4,0.7
		c1.4-0.4,2.3,0.3,3.3,1C193.7,103.9,194.3,104.7,195.8,104.8z"/>
	<path fill="#5B605B" d="M153.6,260.4c3-0.6,5.7-1.6,7.2-4.4c2.5-4.4,3.3-9.1,1.5-13.9c-1.3-3.6-4.6-5.3-7.9-6.8
		c-4.6-2-9.6-3.1-14.3-5.1c-4-1.7-7.6-3.9-9.9-7.8c-2.2-3.8-2.4-7.9-1.9-12c1.1-8.9,7.3-12.9,15.5-14.2c1-0.2,2.1-0.2,3.1-0.3
		c4.2,0,8.4,0,12.7,0c3.9,0.1,7.7,0.8,11.6,1.5c0.6,0.1,0.8,0.5,0.8,1.1c0,5.9,0,11.8,0,17.7c0,0.4,0.1,1-0.5,1
		c-0.6,0-0.5-0.6-0.5-1c-0.2-3.3-0.7-6.5-2.3-9.5c-2.8-5.5-7.4-8.4-13.4-9.2c-2-0.3-4.1-0.3-6.2,0.1c-3.6,0.7-5.9,2.8-7,6.2
		c-0.7,2.3-1,4.6-0.6,7c0.5,3.5,3.1,5.2,6,6.5c3.2,1.5,6.6,2.3,10,3.2c3.8,1.1,7.7,2.3,11.1,4.4c5.8,3.6,8.2,9,8.1,15.7
		c-0.2,10.6-7,18.4-17.8,20.7c-4.4,1-8.9,0.9-13.4,0.6c-5.1-0.4-10.2-1-15.1-2.2c-1-0.3-1.4-0.7-1.4-1.8c0.1-7.7,0-15.5,0-23.2
		c0-0.1,0-0.3,0-0.4c0.1-0.4-0.2-1,0.6-1c0.6,0,0.5,0.6,0.5,1c0,2.2,0.2,4.4,0.6,6.6c0.9,5.3,2.6,10.2,6.6,14.1
		c3,2.9,6.6,4.6,10.7,5.3c0.5,0.1,0.9,0.2,1.4,0.3c1.5,0.6,3,0.3,4.5,0.2c0,0,0-0.1-0.1-0.1C153.7,260.4,153.6,260.4,153.6,260.4z"
		/>
	<path fill="#5B605B" d="M121.3,246.6c-0.4,7-5.2,13-12.4,14.6c-8.8,1.9-17.5,1.2-25.9-1.9c-6.2-2.3-9.2-7-9.2-13.7
		c0.1-11,0-22,0-33c0-2.5-0.2-5.1-1-7.5c-1.4-3.9-4.1-6.2-8.3-6.9c-0.1,0-0.3,0-0.4-0.1c-0.4-0.1-1.1,0.1-1.1-0.6
		c0.1-0.7,0.8-0.4,1.2-0.4c11,0,22,0,33,0c0.4,0,1.1-0.3,1.1,0.4c0,0.7-0.6,0.4-1,0.5c-5.3,0.7-8.2,3.9-8.8,9.8
		c-0.1,0.8-0.2,1.6-0.3,2.4c-0.1-0.1,0.1-0.4-0.2-0.4c0,0-0.1,0.2-0.1,0.3c0,0.3,0,0.6,0,0.8c0,11.7,0,23.4,0,35.2
		c0,0.3-0.3,0.8,0.3,1c0.4,2.5,0.7,5,2.2,7.2c2.3,3.3,5.4,5,9.3,5.5c3.8,0.5,7.6,0.1,11.2-1.5c6.2-2.6,8.5-7.8,8.6-14.1
		c0.1-10.9,0.1-21.9,0.1-32.8c0-1.7-0.2-3.3-0.5-5c-1-4.9-3.9-7.6-8.8-8.3c-0.4-0.1-1.1,0.1-1.1-0.6c0-0.8,0.7-0.4,1.1-0.4
		c6.8,0,13.6,0,20.4,0c0.4,0,1-0.2,1.1,0.3c0.1,0.6-0.5,0.6-0.9,0.6c-6.2,0.3-8.6,5.6-9.1,10.8c-0.1,0.9-0.2,1.8-0.3,2.6
		c0-0.2-0.1-0.5-0.1-0.7c-0.1,0-0.1,0-0.2,0C121.3,222.8,121.3,234.7,121.3,246.6z"/>
	<path fill="#5B605B" d="M221.6,195.9c4.4,0.2,8.8,0.9,13.1,1.5c0.7,0.1,0.9,0.5,0.8,1.2c0,5.9,0,11.7,0,17.6c0,0.5,0,1-0.8,1
		c-0.7,0-0.8-0.5-0.8-1c-0.1-2.6-0.5-5.2-1.4-7.6c-2.4-6.5-7.3-9.9-14-11c-3.5-0.6-7.1-0.8-10.6,0.4c-5.2,1.9-8.1,5.9-9.9,10.9
		c-2.5,6.8-2.9,13.9-2.9,21.1c0.1,6.3,0.7,12.6,3.2,18.4c1.9,4.5,4.6,8.4,9.3,10.5c9.9,4.4,22.1-1.4,25-11.9c1-3.7,1.4-7.5,1.4-11.4
		c0-0.9,0-1.5,1.2-1.5c1.2,0,1.1,0.7,1.1,1.5c-0.1,4.4-0.5,8.8-1.9,13c-2.5,7.3-7.7,11.5-15.2,12.9c-8.2,1.5-16.2,0.6-23.7-3.2
		c-7.5-3.9-12.1-10.2-14.4-18.2c-2.6-9-2.3-17.9,1.4-26.6c4.3-10,12.1-15.4,22.7-17.3c0.8-0.1,1.7-0.2,2.5-0.3
		C212.5,195.9,217,195.9,221.6,195.9z"/>
	<path fill="#5B605B" d="M150.1,278.1c28.6,0,57.1,0,85.7,0c0.6,0,1.5-0.4,1.8,0.3c0.3,1,0.3,2.1,0,3.2c-0.1,0.3-0.4,0.3-0.7,0.3
		c-0.5,0-0.9,0-1.4,0c-56.8,0-113.7,0-170.5,0c-0.7,0-1.7,0.4-2.1-0.3c-0.4-1-0.2-2.1-0.1-3.2c0-0.4,0.4-0.4,0.6-0.4
		c0.5,0,0.9,0,1.4,0C93.3,278.1,121.7,278.1,150.1,278.1z"/>
	<path fill="#5B605B" d="M150.2,180.1c-28.5,0-57,0-85.6,0c-0.6,0-1.6,0.4-1.8-0.3c-0.3-1-0.2-2.2,0-3.3c0.1-0.3,0.5-0.3,0.7-0.3
		c0.5,0,0.9,0,1.4,0c56.8,0,113.6,0,170.4,0c0.7,0,1.7-0.4,2.1,0.3c0.5,0.9,0.2,2.1,0.1,3.2c0,0.3-0.3,0.4-0.6,0.4
		c-0.5,0-0.9,0-1.4,0C207.2,180.1,178.7,180.1,150.2,180.1z"/>
	<path fill="#5B605B" d="M62.8,172.2c0.5-0.7,1.2-0.4,1.8-0.4c29.6,0,59.1,0,88.6,0c27.5,0,55.1,0,82.6,0c0.6,0,1.8-0.5,1.8,0.6
		c0,1.2-1.2,0.6-1.8,0.6c-57.1,0-114.3,0-171.4,0c-0.6,0-1.2,0.3-1.7-0.3c12.1,0,24.2,0,36.3,0c45.2,0,90.4,0,135.5,0
		c0.7,0,1.4,0.2,2.1-0.2c0-0.1,0-0.3,0-0.4C178.7,172.2,120.7,172.2,62.8,172.2z"/>
	<path fill="#5B605B" d="M62.8,285.4c0.5-0.6,1.2-0.3,1.8-0.3c48.8,0,97.7,0,146.5,0c8.3,0,16.6,0,24.9,0c0.4,0,0.8,0,1.1,0
		c0.3,0,0.5,0.2,0.5,0.5c0,0.4-0.1,0.6-0.5,0.6c-0.4,0-0.8,0-1.3,0c-57.1,0-114.3,0-171.4,0c-0.6,0-1.2,0.3-1.7-0.3
		c11.8,0,23.6,0,35.3,0c45.5,0,91,0,136.5,0c0.7,0,1.4,0.2,2.3-0.3c-0.8-0.4-1.5-0.3-2.1-0.3c-17,0-34,0-51,0
		C143.5,285.4,103.1,285.4,62.8,285.4z"/>
	<path fill="#5B605B" d="M62.8,285.4c40.3,0,80.7,0,121,0c17,0,34,0,51,0c0.6,0,1.3-0.1,2.1,0.3c-0.8,0.5-1.5,0.3-2.3,0.3
		c-45.5,0-91,0-136.5,0c-11.8,0-23.6,0-35.3,0C62.8,285.8,62.8,285.6,62.8,285.4z"/>
	<path fill="#5B605B" d="M62.8,172.2c58,0,115.9,0,173.9,0c0,0.1,0,0.3,0,0.4c-0.6,0.3-1.4,0.2-2.1,0.2c-45.2,0-90.4,0-135.5,0
		c-12.1,0-24.2,0-36.3,0C62.8,172.6,62.8,172.4,62.8,172.2z"/>
	<path fill="#5B605B" d="M189.4,89c0.1-1.7,0.6-2.1,1.9-1.2c0.5,0.3,0.9,0.1,1.4,0c2.1-0.5,4.3-0.6,6.4-0.6c1.5,0,1.8,0.7,1.1,2
		c-0.5,0.8-1.2,1.2-2,1.5c-1.1,0.4-2.3,0.7-3.1,1.8c-0.4,0.6-1,0.2-1.3-0.2c-0.7-0.9-1.7-1.2-2.8-1.5
		C190.2,90.6,189.2,90.3,189.4,89z"/>
	<path fill="#5B605B" d="M195.4,97c0,1.4-0.6,1.8-1.9,1.4c-0.3-0.1-0.6-0.2-0.9-0.4c-1.7-1.2-3.7-1.4-5.6-0.8
		c-1.1,0.3-2.1-0.2-3.2,0.1c-0.5,0.1-0.6-0.3-0.6-0.7c-0.1-1.1,1-2,2.1-1.5c1.7,0.7,3.2,0.3,4.8-0.3c0.9-0.3,1.8-0.6,2.8-0.5
		C194.4,94.4,195.3,95.5,195.4,97z"/>
	<path fill="#5B605B" d="M195.8,104.8c-1.5-0.1-2.1-0.9-2.8-1.5c-1-0.8-1.9-1.5-3.3-1c-0.6,0.2-1.1-0.2-1.4-0.7
		c-0.3-0.6,0.1-1,0.5-1.3c1.5-1.3,4.9-1,6.2,0.5c0.3,0.4,0.3,0.9,0.2,1.3C194.9,103,194.9,103.8,195.8,104.8z"/>
	<path fill="#5B605B" d="M88.4,247c-0.5-0.2-0.3-0.7-0.3-1c0-11.7,0-23.4,0-35.2c0-0.3,0-0.6,0-0.8c0-0.1,0.1-0.3,0.1-0.3
		c0.3,0,0.1,0.3,0.2,0.4C88.4,222.4,88.4,234.7,88.4,247z"/>
	<path fill="#5B605B" d="M121.3,246.6c0-11.9,0-23.8,0-35.8c0.1,0,0.1,0,0.2,0c0,0.2,0.1,0.5,0.1,0.7c0,3.7,0.1,7.3,0.1,11
		c0,7.3,0,14.7-0.1,22C121.6,245.2,121.6,245.9,121.3,246.6z"/>
	<path fill="#5B605B" d="M221.6,195.9c-4.6,0-9.1,0-13.7,0C212.5,195.3,217,195.4,221.6,195.9z"/>
	<path fill="#5B605B" d="M159.7,195.9c-4.2,0-8.4,0-12.7,0c1.7-0.5,3.5-0.3,5.3-0.3C154.7,195.5,157.2,195.5,159.7,195.9z"/>
	<path fill="#5B605B" d="M153.6,260.4c0.1,0,0.1,0,0.1,0.1c0,0,0,0.1,0.1,0.1c-1.5,0.1-3,0.4-4.5-0.2
		C150.7,260.4,152.1,260.4,153.6,260.4z"/>
	<path fill="#5B605B" d="M135.4,39.6C135.3,39.6,135.3,39.7,135.4,39.6C135.2,39.6,135.2,39.6,135.4,39.6
		C135.4,39.6,135.4,39.6,135.4,39.6z"/>
	<path fill="#5B605B" d="M145.1,88.3c1.4,1.7,1.8,3.7,3.3,5.2C146.2,93.1,144.6,90.6,145.1,88.3z"/>
</g>
<path fill="#5B605B" d="M140.4,19.4c0.9-2.3,2.4-3.2,4.9-2.9c0.5,0.1,0.8-0.1,1.2-0.3c2.4-1.6,5-2.2,7.8-0.9
	c0.4,0.2,0.7,0.1,0.9-0.1c0.8-1,1.9-0.9,3-0.9c6.8-0.1,13.4,1.2,20.1,2.9c8.4,2.1,15.7,6.3,23,10.6c0.8,0.5,1.6,1.1,2.4,1.7
	c0.5,0.4,1.3,0.8,1,1.7c-0.2,0.7-1.1,0.7-1.7,0.8c-1.5,0.3-3,0.3-4.4,0.7c-4.8,1.1-9,3.2-11.7,7.6c-0.6,0.9-0.5,1.5,0.2,2.2
	c0.5,0.5,1.5,0.8,1.2,1.7c-0.4,1.2-0.5,2.7-2,3.4c-1.4,0.7-3,1-4,2.4c-0.3,0.4-0.9,0-1.3-0.2c-5.3-2-10.7-3-16.4-2.9
	c-8.1,0.1-15.5,2-21.6,7.6c-2.1,1.9-4.3,3.6-6,5.9c-0.4,0.6-0.8,1.2-1.2,1.7c-0.9,1.6-0.9,1.6,0.6,2.6c1.5,1,2.8,2.3,5,1.6
	c0.7-0.2,1,0.6,0.6,1.3c-0.4,0.6-0.7,1.3-0.1,1.9c0.6,0.6,1.3,0.3,2,0c0.3-0.1,0.6-0.5,0.9-0.1c0.2,0.3-0.1,0.6-0.3,0.9
	c-0.1,0.2-0.3,0.4-0.4,0.6c-0.2,0.3-0.5,0.7-0.1,1c0.3,0.3,0.6,0,0.9-0.1c0.8-0.5,1.4-0.3,1.5,0.7c0.1,1.2,0.7,1.4,1.7,0.8
	c0.6-0.4,1.3-0.8,1.9,0c0.5,0.7-0.1,1.3-0.6,1.8c-0.8,0.6-1.5,1.2-2.3,1.8c-0.8,0.5-0.5,0.9,0.1,1.1c1.2,0.5,2.4,0.2,3.5-0.3
	c6.8-3.5,14.1-6.1,21.2-9c8.2-3.3,16.7-5.6,25.7-5.6c2.2,0,4.4,0.2,6.5,0.9c3.4,1.2,4.7,3.7,3.6,7.1c-1.1,3.5-3.6,6-6.4,8.2
	s-2.8,2.2-4.6-0.9c-0.8-1.4-1.6-2.9-2.5-4.3c-0.5-0.8-1.2-1.5-2.3-1.1c-1,0.4-1.3,1.2-1.4,2.3c-0.1,2.6-1.1,3.7-3.6,4.2
	c-0.5,0.1-0.9,0.1-1.4-0.3c-4.7-3.5-9.9-3-15.1-1.5c-2.7,0.7-5.3,1.5-7.5,3.4c-1.5,1.4-1.4,2,0.5,2.8c1.6,0.6,3.2,1.2,3.9,3.1
	c0.2,0.5,0.9,1,1.5,1.2c1.2,0.6,1,1.9,1.3,2.9c0.1,0.3-0.2,0.5-0.5,0.6c-0.4,0.1-0.6-0.2-0.7-0.5c-0.3-1-0.9-1.5-1.9-1.8
	c-0.8-0.2-1.3-0.1-1.5,0.7c-0.4,1.4-0.8,0.6-1.2,0.1c-1.3-1.8-2.6-3.7-3.9-5.5c-0.3-0.5-0.6-1.5-1.2-1.1c-0.7,0.4,0.1,1.1,0.4,1.7
	c1.7,4.1,4.2,7.8,6,11.9c0.2,0.4,0.4,0.8,0.5,1.2c0.1,0.4,0.7,0.9,0.2,1.2c-0.5,0.3-0.7-0.4-1-0.8c-0.8-1-1.7-2-2.7-2.8
	c-1.5,2.2-1.4,2.3,0,4.4c0.9,1.2,2.1,2.3,2.4,3.9c0.1,0.8,1,0.7,1.5,0.5c1.7-0.6,2.8,0.2,3.8,1.4c0.3,0.4,0.6,0.8,1,1.2
	c1.4,1.7,2.1,1.9,3.9,0.6c1-0.7,1.9-0.8,2.9-0.3c3,1.4,6.2,1.5,9.5,1.2c1.8-0.2,3.6-0.3,5.3,0.3c0.9,0.3,2.1,0.7,2.1,1.8
	c0,1.2-0.6,2.3-1.9,2.7c-2.8,1-5.7,1.7-8.2,3.3c-0.8,0.5-1.5,0.9-2.2,1.5c-1.2,0.9-1.9,1.9-1.5,3.7c0.6,2.6-0.3,5.3-0.5,8
	c-1.1-0.2-1-1-1.2-1.7c-0.3-1.7-0.3-1.6-1.9-1.1c-1.5,0.5-2.3,1.4-2.6,3c-0.2,1.5-1,2.6-2.6,3.2c-1.2,0.4-2,1.5-2.5,2.6
	c-1,2.1-2.8,3.3-4.8,4.4c-1.4,0.8-2.8,0.1-3.7-1.7c-0.4-0.9-0.5-1.9-1.4-2.9c-0.1,2.3-1.2,3.9-1.1,6c0.1,1.4-0.4,1.7-1.9,1.5
	c-2.3-0.4-4.6-1.1-6.6-2.3c-1.6-0.9-3-0.9-4.5,0.3c-0.9,0.8-1.9,1-2.8-0.2c-0.3-0.5-0.8-0.3-1.3-0.2c-2.5,0.5-5,1.1-7.5,1.6
	c-2,0.4-3.9,0.3-5.8-0.6c-1.9-0.9-3.6-0.8-5.3,0.3c-1.2,0.8-2.4,1.3-3.4,2.4c-1,1.2-2.6,1.3-4.1,1.4c-0.3,0-0.5-0.1-0.5-0.4
	c-0.1-0.3,0.1-0.5,0.3-0.6c0.2-0.1,0.4-0.3,0.6-0.4c6.3-3.9,12.5-8.2,19.2-11.4c1.2-0.6,1.7-1.7,2.3-2.7c2.1-3.5,2.7-7.5,3.3-11.4
	c0.1-0.4,0.1-0.8,0.2-1.3c0.4-2.7,0-3.5-2.5-4.7c-1-0.5-1.8-1.1-2.4-1.8c-1.7-1.9-1.9-2.7-0.8-5c1-2.1,1.8-4.2,2.1-6.5
	c0.3-2.2-0.4-4-1.5-6c-1.5-2.6-3.3-3.3-6-2.5c-1,0.3-2.1,0-3.1-0.2c-0.9-0.1-1.4,0.2-1.8,1c-0.7,1.1-0.9,2.3-1.2,3.6
	c-1.4,7.7-3.1,15.5-5.7,22.9c-2.4,6.7-5.7,12.9-10.5,18.2c-1.6,1.8-3.7,3-5.7,4.1c-4.2,2.4-8.5,4.6-13.3,5.7
	c-1.4,0.3-2.9,0.5-4.3,0.7c-2.8,0.5-4.9-1.1-7.1-2.5c-0.6-0.4-0.5-0.8,0.1-1.2c3.3-1.7,6.5-3.8,10.3-4.4c0.9-0.1,1.5-0.8,2.3-1.2
	c2.1-1,4.2-1.9,6.2-3c7.9-4.2,13.6-10.4,16.6-18.9c0.9-2.6,1.9-5.5,0.7-8.4c-0.2-0.5-0.4-1-0.6-1.5c-0.3-0.6-0.7-0.9-1-0.1
	c-0.4,1-1.6,0.3-2.1,1.3c-0.7,1.5-1.7,2.9-3.2,3.8c-0.3,0.2-0.5,0.6-0.6,1c-0.1,0.4-0.3,0.9,0.1,1.2c0.4,0.3,0.8,0,1.1-0.3
	c0.3-0.2,0.6-0.4,1-0.5c0.5-0.2,1.1-0.4,1.5,0.2c0.3,0.7-0.1,1.2-0.6,1.5c-0.4,0.3-0.9,0.4-1.3,0.6c-1.2,0.7-1.4,1.5-0.5,2.6
	c0.3,0.4,0.4,0.8,0.4,1.3c-0.2,1.9-0.8,3.7-1.5,5.4c-0.3,0.9-4,2.8-4.8,2.6c-0.4-0.1-0.6-0.5-0.8-0.8c-0.5-0.8-1.1-0.9-1.9-0.3
	c-1.2,1-2.4,2-3.6,3c-0.2,0.2-0.6,0.4-0.5,0.8c0.1,0.4,0.6,0.2,0.9,0.3c0.3,0,0.6-0.1,0.7,0.2c0.1,0.4-0.1,0.6-0.4,0.8
	c-0.9,0.6-1.7,1.4-3,1c-1.4-0.3-2.7,0.4-4,1.2c-1.2,0.7-2.3,1.5-3.6,1.9c0.7-1.1,1.4-2.1,2.5-2.8c0.8-0.5,1.2-1.2,0.2-1.9
	c-0.9-0.6-0.4-1,0.1-1.5c3-2.7,6.2-5.3,8.8-8.4c1.8-2.2,3.3-4.5,3.8-7.4c0.2-1.4,1.1-2.6,2-3.8c0.3-0.4,0.8-0.7,1.4-0.6
	c1.1,0.2,1.5-0.4,1.8-1.4c0.2-0.7,0.4-1.4,1.2-1.7c0.1-0.1,0.3-0.3,0.3-0.4c0.3-2.5,2.3-4.5,2.5-7.1c0-0.3,0.4-0.8,0-1
	c-0.5-0.3-0.6,0.4-0.9,0.6c-3,4.1-5.9,8.1-8.9,12.2c-2.4,3.3-5,6.4-8.1,9.3c-0.1-1.8,0.6-3.1,1.9-4.1c1.5-1.1,2.7-2.5,3.6-4.1
	c0.7-1.1,1.3-2.3,2-3.4c0.6-1,1.1-1.9,0.7-3.2c-0.3-1.1,0.3-1.9,0.9-2.7c1.6-2.1,3.3-4.2,4.9-6.3c0.3-0.4,1-0.8,0.4-1.3
	c-0.6-0.5-0.8,0.3-1.1,0.6c-3,3.6-6.4,6.7-10.1,9.5c-0.3,0.3-0.6,0.7-1.1,0.6c-0.5-0.2-0.4-0.8-0.4-1.2c0-0.6,0.1-1.2,0.2-1.8
	c0.1-0.4,0-1,0.7-0.4c0.4,0.3,0.5-0.3,0.6-0.5c1-2,2.6-3.5,4-5.2c1.5-1.7,3-3.6,3.1-6.1c0-0.5,0.2-1,0.6-1.3
	c2.6-2.3,4.3-5.3,7.3-7.2c0.2-0.1,0.5-0.4,0.7-0.5c3.8-0.6,5.7-4.1,8.9-5.6c0.6-0.3,1.7-0.8,1.3-1.4c-0.5-0.8-1.3,0.2-1.9,0.5
	c-3,1.5-6,3.2-8.9,4.8c-0.3,0.2-0.7,0.5-1,0.3c-0.5-0.2-0.2-0.8-0.2-1.2c0.1-0.5,0.2-0.9,0.4-1.4c0.1-0.3,0.6-0.6,0.2-1
	c-0.3-0.3-0.7-0.3-1.1-0.1c-1.8,0.6-3.6,3-3.7,4.9c-0.1,1.1-0.9,1.4-1.7,1.4c-0.8-0.1-1.1,0.3-1.5,0.8c-1.7,1.8-3.4,3.6-5.2,5.4
	c-0.2,0.2-0.4,0.5-0.9,0.4c0.2-1.2,0.8-2.1,1.3-3.2c0.7-1.7,2.3-2.8,2.8-4.6c0.2-0.6,0.9-0.7,1.4-1c1.2-0.8,2.4-1.5,2.1-3.3
	c-0.1-0.5,0.4-0.7,0.7-1c0.5-0.5,0.4-0.9,0-1.3c-0.5-0.5-0.8-0.1-1.2,0.2c-1.2,1.2-2,2.7-3.4,3.9c-0.5-0.8-0.7-1.7-1.4-2.4
	c-0.5-0.6,0.1-1,0.5-1.4c2.2-1.9,4.3-3.7,6.5-5.6c0.3-0.3,0.6-0.5,0.9-0.7c0.4-0.4,1.1-0.6,0.8-1.3c-0.2-0.5-0.9-0.3-1.4-0.3
	c-1.1,0-2.6,0.2-2.9-0.8c-0.4-1.1,1.1-1.7,1.9-2.3c1.3-0.9,2.7-1.7,4.1-2.5c0.4-0.3,1.3-0.3,1-0.9c-0.3-0.5-0.9,0-1.4,0.2
	c-1.9,0.8-3.9,1.7-5.8,2.6c-0.5,0.2-0.9,0.5-1.4,0.5c-0.2-1.9,0.9-3.8,2.7-4.3c0.7-0.2,1.3-0.4,1.4-1.3c0.1-0.5,0.5-0.9,0.9-1.2
	c0.9-0.7,1.8-1.3,1.4-2.8c-0.2-0.7,0.6-1.1,1.1-1.5c0.6-0.5,1.5-0.6,2.2-1.5c-1.5-0.4-3-0.3-4.5-0.1c-0.2-0.6,0.3-1.1,0.5-1.5
	c0.6-1,1.1-2.1,1.2-3.3c0.1-1.3,1-2.1,2.2-2.5c1.4-0.6,2.9-1.1,4.4-1.7c-0.5-0.8-1.2-0.8-1.9-0.6c-0.8,0.2-1-0.1-0.6-0.8
	c1.2-2.6,3-4.8,5.4-6.5c0.3-0.2,0.6-0.3,0.7-0.6c0.9-2.5,3.1-3.8,4.8-5.5c1-1,2.4-1.4,3.9-0.8c0.3,0.1,0.6,0.3,0.9-0.1
	c0.3-0.4-0.1-0.6-0.4-0.8c-0.8-0.6-0.5-1.1,0.2-1.5c1.4-0.8,2.8-1.6,4.2-2.3c0.5-0.3,1.2-0.6,1.7-0.1c0.5,0.5,0.3,1,0.1,1.6
	c-0.2,0.6-0.5,1.2-0.2,1.8c0.3,0.9,1.5,1.3,2.3,0.7c1-0.8,1.7-1,2.4,0.3c0.3,0.5,0.7,0.9,1.1,1.3c0.5,0.5,0.9,0.2,1.2-0.1
	c0.5-0.4,0-0.7-0.3-0.9c-1.6-1.6-2.8-3.5-4.3-5.2c-0.6-0.7-0.5-1.2,0.3-1.7c1.1-0.6,2.3-0.8,3.4-1.2
	C139.8,18.2,139.9,19.1,140.4,19.4z M135.4,39.6C135.3,39.6,135.2,39.6,135.4,39.6C135.3,39.6,135.4,39.6,135.4,39.6
	c0.1,1.3,0.8,2.4,1.1,3.7c0,0.2,0.1,0.4,0.4,0.4c1.1-0.2,1.3,0.8,1.7,1.4c0.8,1.3,1.3,1.5,2.6,0.6c0.8-0.6,1.5-1.4,2.6-1.7
	c0.3,0.7,0.5,1.4,0.8,2.1c0.2,0.4,0.4,0.8,0.9,0.3c1.2-1.1,3-1.9,2.1-4.3c1.5,0.9,2.6-0.1,3.7,0.1c2,0.5,3.4-0.3,4.7-1.7
	c0.7-0.8,2.5-0.8,3.3,0c0.6,0.6,1,0.3,1.5-0.2c0.5-0.6,0.5-1.4,0.8-1.9c0.5-0.7,3.1-0.4,3.6,0.4c0.4,0.6,0.6,0.7,1.2,0.3
	c2-1.1,3.8-0.8,5.4,0.8c0.3,0.3,0.5,0.3,0.8,0.1c1.3-0.7,2.4-0.3,3.5,0.5c0.6,0.5,1.3,1,2,1.3c1.2,0.6,2.8,0.2,3.3-0.9
	c0.6-1.4-0.6-1.9-1.5-2.2c-3.2-1.3-6.4-2-9.9-1.5c-0.3,0.1-0.6,0.2-0.9-0.1c-0.9-0.7-1.9-0.6-3-0.6c-1.4-0.1-2.9,0.5-4.3-0.3
	c-0.2-0.1-0.4,0-0.5,0.1c-2.1,1.8-4.4,1.2-6.7,0.6c-0.6-0.2-1-0.4-1.4,0.5c-0.6,1.4-1.8,1.3-2.5,0c-0.3-0.7-0.5-1.4-0.8-2.1
	c-0.3-0.8-0.5-1.8-1.3-2.4c-0.2,0.9,0.1,1.9-0.5,2.4c-0.9,0.7-0.8,1.2-0.1,2c0.8,0.8,0,1.7-0.6,2.1c-0.8,0.6-0.9-0.4-1.1-0.8
	c-1.3-2.1-2.4-4.2-3.5-6.4c-0.3-0.5-0.3-1.7-1.1-1.3c-0.9,0.5,0.1,1.2,0.3,1.7c0.6,1.4,1.2,2.8,1.6,4.2c0.5,1.5-0.7,1.8-1.5,2.3
	c-0.5,0.3-0.9-0.5-1.2-0.9c-1.7-1.9-2.9-4.1-4.8-5.7c-0.9-0.8-1.9-1.6-3.2-1.8c0,0.7,0.1,1.2,0.7,1.4c0.8,0.4,1.4,1.1,1.9,1.8
	c1.9,2.4,3.4,5.1,4.7,7.8c0.3,0.6,1.1,1.4,0.4,2c-0.8,0.6-1.4-0.5-1.9-1C137.8,41.6,136.9,40.3,135.4,39.6z M171.9,120.6
	c-0.2-0.8-0.7-1.8-1.9-2.3c-1.2-0.5-2.4-0.6-3.7-0.7c-1.7-0.1-3.4-0.4-4.4-2c-1.9-3-3.6-6-4.5-9.5c-0.3-1.3-0.8-2.5-1.3-3.7
	c-0.1-0.4-0.5-0.8-0.9-0.7s-0.6,0.6-0.6,1c0,0.9,0,1.8,0.1,2.6c0.6,6.7,1.8,13.3,4.2,19.7c0.5,1.2,1.2,1.3,2.1,0.3
	c0.7-0.8,1.5-1.3,2.6-1.3c1.7,0,3.4-0.8,5.1-0.1c0.1,0.1,0.5-0.1,0.6-0.2c0.6-0.7,1.5-1.2,2.2-1.7
	C171.7,121.8,172.1,121.5,171.9,120.6z M153.3,97.1c0.6,0.1,1.3-0.1,2-0.3c0.5-0.2,1.3-0.2,1.2-1.1c-0.1-0.9-0.1-1.9-1.2-2.1
	c-2.2-0.4-3.9-1.7-5.8-2.8c-1-0.5-0.8-0.9,0-1.5c1.5-1,1.6-1.2,0.4-2.6c-0.9-1-2-1.8-3-2.7c-0.3-0.3-0.7-0.2-1.1-0.1
	c-0.3,0.1-0.7,0.4-0.9,0c-0.2-0.4,0.2-0.7,0.5-0.9c0.6-0.3,1.2-0.4,0.6-1.2c-0.6-0.7-1.2-0.7-1.8-0.1c-0.6,0.6-1,1.4-1.3,2.2
	C140.8,90.4,146,97.1,153.3,97.1z M118.9,85.7c-1.5,1-2.7,2-3.8,3c-2,1.7-3.6,3.8-4.8,6.2c-0.2,0.4-0.8,0.8-0.2,1.4
	c0.6,0.5,0.9-0.2,1.2-0.5c0.1-0.1,0.1-0.1,0.2-0.2c0.7-0.6,1.6-1.9,2.2-1.4c0.8,0.6-0.3,1.8-0.7,2.6c-0.4,0.8-1,1.5,0.2,2.2
	c0.4,0.3,0.2,0.9,0.1,1.3c-0.1,1.2-0.5,2.4-0.4,3.8c1.2-0.8,1.9-1.6,2-3c0.1-1.5,0.1-3.1,0.9-4.6c0.5,0.6,0.3,1.5,0.8,2.3
	C118,94.5,118.5,90.2,118.9,85.7z M123.5,50c1.6,0.4,3,0.9,4.3,1c0.9,0.1,1.4,0.5,1.6,1.2c0.2,0.9,0.6,1,1.3,0.5
	c1.1-0.7,1.7-0.4,2,0.9c0.1,0.5,0.1,0.9,0.3,1.4c0.1,0.3,0.1,0.7,0.5,0.7c0.3,0,0.5-0.3,0.6-0.5c0.7-1,1-2,0.9-3.2
	c-0.1-1.5,0.3-2.7,1.4-3.7c0.6-0.5,0.5-0.8-0.1-1.3c-2.3-1.9-4.8-3.3-7.5-4.3c-1-0.4-2.1-0.8-3.4-0.5c2,1.3,3.9,2.8,6.1,3.5
	c1.4,0.5,1.7,1.3,1.8,2.5c0,0.6,0,1.2,0,2C130.2,49.4,127.1,47.9,123.5,50z M125.2,85.8c-0.1-0.1-0.2-0.1-0.2-0.2
	c0-4.6,0.6-9.1,3.2-13c0.3-0.4,0.6-0.7,0.1-1.2c-0.4-0.5-0.8-0.5-1.4-0.2c-1.8,1-3.5,3.9-3.2,5.8c0.1,0.8,0,1.5-0.4,2.3
	c-1.1,2.6-1.5,5.2-0.4,7.9c0.2,0.5,0.3,1,0.9,1.2c2,0.5,4.3-1.7,3.8-3.7c-0.1-0.4-0.2-0.8-0.6-0.9c-0.5-0.1-0.8,0.2-1.1,0.5
	C125.7,84.7,125.8,85.5,125.2,85.8z M111.8,65.8c1.5,0.1,2.7-0.5,4-1c1.6-0.6,3.2-0.9,4.9-0.3c1.6,0.5,3.4-0.2,4.3-1.5
	c0.3-0.5,0.6-1,0.9-1.4c0.2-0.3,0.6-0.5,0.4-1c-0.3-0.5-0.7-0.4-1.1-0.4C120.3,60.9,116.1,63.3,111.8,65.8z M108.6,90.5
	c1.1,0.3,1.8,0.2,2.4-0.6c0.5-0.7,1.2-1.3,1.9-1.9c1.7-1.4,3.5-2.6,5.1-4.2c0.6-0.6,1.3-1.2,1.5-2.2c0.1-0.5,0.4-1,0-1.3
	c-0.4-0.3-0.9,0.1-1.3,0.3C113.8,82.7,111.5,86.8,108.6,90.5z M138.6,105.2c2.4-0.5,4.7-1,7.1-1.4c0.4-0.1,0.7-0.4,1-0.7
	c0.8-0.7,0.6-1.7,0.3-2.5c-0.2-0.6-1.1-0.3-1.7-0.1C142.5,101.1,140.6,103.2,138.6,105.2z M122.9,67c-2.7,0.5-5,1.5-7,3.2
	c-0.3,0.3-0.9,0.4-0.7,0.9c0.2,0.4,0.7,0.3,1.2,0.4c2.7,0.6,4.1-1.3,5.8-2.8C122.7,68.3,123.1,67.8,122.9,67z M126.6,58.6
	c0.7,0,1.2-0.4,1.6-0.9c0.3-0.4,0.2-0.9-0.1-1.3c-0.4-0.6-1-0.4-1.5-0.3c-0.3,0.1-0.6,0.1-1,0.2c-0.5,0.2-1.3-0.2-1.4,0.5
	c-0.1,0.6,0.6,1,1.1,1.4C125.7,58.4,126.1,58.6,126.6,58.6z"/>
</svg>
