<?xml version="1.0" encoding="utf-8"?>
<!-- Generator: Adobe Illustrator 18.1.0, SVG Export Plug-In . SVG Version: 6.00 Build 0)  -->
<!DOCTYPE svg PUBLIC "-//W3C//DTD SVG 1.1//EN" "http://www.w3.org/Graphics/SVG/1.1/DTD/svg11.dtd">
<svg version="1.1" id="Layer_1" xmlns="http://www.w3.org/2000/svg" xmlns:xlink="http://www.w3.org/1999/xlink" x="0px" y="0px"
	 viewBox="0 0 675.7 1065.7" enable-background="new 0 0 675.7 1065.7" xml:space="preserve">
<g>
	<path fill="#B6C0B5" d="M28,1015.9c1.6,2.2,4,1.2,5.9,1.2c203,0.1,405.9,0,608.9,0c1.5,0,3,0,4.5-0.1c1.5-0.1,2-1,1.9-2.3
		c-0.1-1.2-0.7-1.8-1.9-1.8c-1.3,0-2.7-0.1-4-0.1c-29.5,0-59,0-88.5,0c-173.5,0-346.9,0-520.4,0.1c-2.1,0-4.6-1.2-6.5,1.1
		C28,1014.6,28,1015.2,28,1015.9z M28,613.8c1.6,2.1,4,1.1,5.9,1.1c202.9,0.1,405.9,0.1,608.8-0.1c2.1,0,6.3,2.1,6.3-2.1
		c0-4.1-4.2-2.2-6.4-2.2c-97.8-0.1-195.6-0.1-293.4-0.1c-105,0-209.9,0-314.9,0.1c-2.1,0-4.7-1.3-6.3,1.3
		C28,612.4,28,613.1,28,613.8z M543.7,695.9c-3,0.3-6,0.5-8.9,1c-37.4,6.5-65.4,25.9-80.5,61.3c-13.1,30.7-14.2,62.5-5,94.4
		c8.2,28.4,24.3,51.2,51.1,64.8c26.6,13.6,55.1,16.5,84.2,11.2c26.5-4.7,45.1-19.7,54-45.7c5.1-15,6.5-30.6,6.7-46.3
		c0-2.8,0.4-5.1-3.8-5.2c-4.3-0.1-4.4,2.2-4.4,5.3c0,13.7-1.4,27.3-5.1,40.5c-10.5,37.6-53.5,58.2-88.9,42.4
		c-16.5-7.4-26.2-21.1-32.9-37.3c-8.7-21-11.1-43.1-11.3-65.5c-0.2-25.4,1.2-50.7,10.2-74.8c6.5-17.5,16.7-31.9,35.1-38.6
		c12.3-4.4,25-3.6,37.5-1.5c23.5,3.9,41,15.9,49.6,39c3.2,8.6,4.7,17.7,4.9,26.9c0,2,0.5,3.6,3,3.6c2.8,0,2.7-1.8,2.7-3.7
		c0-20.8,0-41.7,0-62.5c0-2.3-0.5-3.8-3-4.1c-15.5-2.1-30.9-4.7-46.6-5.3C576,694.2,559.9,693.8,543.7,695.9z M118.9,877.5
		c0-43.7,0-87.4,0-131.1c0.3-2.8,0.7-5.6,1-8.4c2.3-20.9,12.6-32.4,31.4-34.9c1.3-0.2,3.6,0.8,3.5-1.6c-0.1-2.7-2.5-1.5-3.9-1.5
		c-39.1-0.1-78.3-0.1-117.4,0c-1.4,0-3.9-1-4.1,1.4c-0.2,2.5,2.4,1.6,3.8,2c0.5,0.2,1,0.2,1.5,0.2c14.7,2.3,24.4,10.5,29.4,24.5
		c3.1,8.6,3.6,17.6,3.6,26.6c0,39.1,0.3,78.3-0.1,117.4c-0.2,23.9,10.6,40.5,32.6,48.6c29.8,11,60.8,13.7,91.9,6.9
		c25.6-5.6,42.6-26.7,43.9-51.7c1-2.4,0.9-4.9,0.9-7.4c0.1-26.1,0.2-52.2,0.3-78.3c0-13-0.1-25.9-0.2-38.9c0.3-3.1,0.6-6.3,0.9-9.4
		c1.7-18.6,10.2-37.2,32.3-38.5c1.4-0.1,3.5-0.1,3.1-2.3c-0.4-2-2.5-1.2-3.8-1.2c-24.2-0.1-48.3-0.1-72.5,0c-1.4,0-3.8-1.2-4,1.5
		c-0.1,2.5,2.4,1.8,3.8,2c17.4,2.4,27.7,12.2,31.2,29.5c1.2,5.9,1.9,11.8,1.9,17.9c0,38.8,0.3,77.7-0.2,116.5
		c-0.3,22.3-8.4,40.8-30.5,50.1c-12.7,5.4-26.2,6.8-39.7,5.2c-13.6-1.7-24.9-8-32.9-19.6C121.4,895.3,120.3,886.3,118.9,877.5z
		 M372.2,695.9c-8.7-1.5-17.5-1.3-26.3-1.1c-6.3,0.1-12.6-0.7-18.8,1.1c-3.6,0.3-7.3,0.5-10.9,1.1c-29.1,4.8-50.9,18.9-54.9,50.5
		c-1.9,14.7-1.2,29.2,6.7,42.6c8.1,13.8,20.9,21.6,35,27.7c16.5,7.1,34.2,11.1,50.7,18.2c11.8,5.1,23.4,11.3,28,24.1
		c6.2,17,3.5,33.9-5.5,49.4c-5.6,9.7-15.2,13.5-25.7,15.5c-5.1,0-10.3,0-15.4,0c-1.6-0.3-3.2-0.7-4.9-1
		c-14.5-2.5-27.3-8.4-37.9-18.8c-14.1-13.8-20.3-31.3-23.5-50.2c-1.3-7.7-1.9-15.5-2-23.4c0-1.3,0.6-3.4-1.7-3.4
		c-2.7-0.1-1.9,2.2-2.1,3.6c-0.1,0.5,0,1,0,1.5c0,27.5,0.1,55-0.1,82.5c0,3.9,1.3,5.5,5,6.4c17.7,4.5,35.7,6.6,53.8,7.9
		c16,1.2,31.9,1.4,47.7-2c38.4-8.2,62.5-36.1,63.3-73.6c0.5-23.7-8.2-42.9-28.8-55.8c-12.1-7.6-25.6-11.8-39.3-15.7
		c-12-3.4-24.2-6.3-35.6-11.5c-10.3-4.7-19.5-10.8-21.2-23.2c-1.1-8.3-0.4-16.7,2.3-24.7c4-12.1,12.1-19.5,24.8-21.9
		c7.3-1.4,14.6-1.4,21.9-0.4c21.3,2.9,37.7,13.1,47.6,32.8c5.4,10.7,7.4,22,8,33.7c0.1,1.4-0.4,3.5,1.8,3.6c2.3,0.1,1.8-2,1.8-3.4
		c0-21,0-42,0-63c0-2.1-0.6-3.5-2.9-3.9C399.7,698.7,386.1,696.3,372.2,695.9z M338.3,987.8c-101,0-201.9,0-302.9,0
		c-1.7,0-3.3,0-5,0c-1,0-2.2,0-2.3,1.3c-0.3,3.8-1.2,7.9,0.3,11.3c1.1,2.6,4.8,1.2,7.4,1.2c201.9,0.1,403.9,0,605.8,0
		c1.7,0,3.3,0,5,0c1,0,2.2-0.1,2.5-1.2c0.9-3.8,1.2-7.8,0-11.3c-0.8-2.6-4.2-1.2-6.3-1.2C541.2,987.8,439.7,987.8,338.3,987.8z
		 M338.6,639.9c101.2,0,202.3,0,303.5,0c1.7,0,3.3,0,5,0c1.1,0,2.1-0.3,2.2-1.5c0.3-3.8,1.3-8-0.5-11.3c-1.3-2.4-4.9-1-7.5-1
		c-201.8-0.1-403.6,0-605.4,0c-1.7,0-3.3,0-5,0c-1,0-2.4-0.1-2.6,0.9c-0.8,3.9-1.1,8.1,0,11.9c0.8,2.4,4.2,1.1,6.4,1.1
		C135.9,639.9,237.3,639.9,338.6,639.9z M477.7,316.3c-0.6,4.4,2.8,5.6,6,6.5c3.8,1,7.3,2.1,9.8,5.4c1.1,1.5,3,2.9,4.5,0.6
		c2.7-3.9,6.9-5.1,10.9-6.5c2.9-1.1,5.4-2.5,7.1-5.2c2.7-4.4,1.4-7-3.8-7c-7.7-0.1-15.3,0.4-22.9,2c-1.6,0.3-3.1,0.9-4.8-0.1
		C479.8,308.9,477.8,310.2,477.7,316.3z M499,344.7c-0.1-5.5-3.5-9.2-9.3-9.8c-3.4-0.4-6.6,0.5-9.8,1.6c-5.6,1.9-11,3.3-17,0.9
		c-3.9-1.6-7.8,1.7-7.3,5.5c0.2,1.4,0.5,3,2.3,2.6c3.8-1,7.5,0.7,11.3-0.3c7-1.8,13.8-1.5,20,3c0.9,0.7,2.1,1.1,3.2,1.5
		C497,351.1,499.1,349.6,499,344.7z M500.5,372.3c-3.1-3.4-3-6.3-1.8-9.5c0.5-1.4,0.6-3.2-0.7-4.7c-4.6-5.5-16.5-6.5-22-1.9
		c-1.5,1.2-2.8,2.7-1.9,4.6c0.9,1.9,2.5,3.3,4.8,2.6c4.8-1.5,8.2,1,11.7,3.7C493.2,369.1,495.3,371.9,500.5,372.3z"/>
	<path fill="#B6C0B5" d="M350.6,924.9c10.5-2,20.1-5.8,25.7-15.5c9-15.6,11.7-32.4,5.5-49.4c-4.6-12.8-16.2-19-28-24.1
		c-16.5-7.1-34.2-11.1-50.7-18.2c-14.1-6.1-26.9-13.8-35-27.7c-7.9-13.4-8.5-27.9-6.7-42.6c4-31.5,25.8-45.7,54.9-50.5
		c3.6-0.6,7.3-0.7,10.9-1.1c15,0,30,0,45,0c13.9,0.4,27.5,2.9,41.1,5.2c2.3,0.4,2.9,1.7,2.9,3.9c0,21,0,42,0,63
		c0,1.4,0.4,3.5-1.8,3.4c-2.1-0.1-1.7-2.2-1.8-3.6c-0.6-11.7-2.6-23.1-8-33.7c-9.9-19.7-26.2-29.9-47.6-32.8c-7.2-1-14.6-1-21.9,0.4
		c-12.7,2.4-20.9,9.8-24.8,21.9c-2.6,8-3.4,16.4-2.3,24.7c1.6,12.5,10.9,18.5,21.2,23.2c11.4,5.2,23.6,8.1,35.6,11.5
		c13.6,3.9,27.2,8.2,39.3,15.7c20.6,12.9,29.3,32,28.8,55.8c-0.8,37.5-24.9,65.3-63.3,73.6c-15.8,3.4-31.7,3.3-47.7,2
		c-18.1-1.4-36.1-3.5-53.8-7.9c-3.7-0.9-5-2.5-5-6.4c0.2-27.5,0.1-55,0.1-82.5c0-0.5-0.1-1,0-1.5c0.2-1.5-0.6-3.7,2.1-3.6
		c2.3,0.1,1.7,2.1,1.7,3.4c0.1,7.8,0.7,15.7,2,23.4c3.2,18.9,9.4,36.4,23.5,50.2c10.6,10.4,23.4,16.2,37.9,18.8
		c1.6,0.3,3.3,0.7,4.9,1c5.3,2,10.7,1,16.1,0.6c-0.1-0.1-0.1-0.3-0.2-0.4C350.9,925,350.7,924.9,350.6,924.9z"/>
	<path fill="#B6C0B5" d="M235.9,876c-1.3,25-18.4,46.1-43.9,51.7c-31.1,6.8-62.1,4.1-91.9-6.9c-22-8.1-32.8-24.7-32.6-48.6
		c0.3-39.1,0.1-78.3,0.1-117.4c0-9-0.6-18-3.6-26.6c-5-14-14.7-22.2-29.4-24.5c-0.5-0.1-1-0.1-1.5-0.2c-1.4-0.5-4,0.4-3.8-2
		c0.2-2.4,2.7-1.4,4.1-1.4c39.1-0.1,78.3-0.1,117.4,0c1.4,0,3.8-1.2,3.9,1.5c0.1,2.4-2.2,1.4-3.5,1.6c-18.7,2.5-29.1,13.9-31.4,34.9
		c-0.3,2.8-0.7,5.6-1,8.4c-0.3-0.5,0.2-1.4-0.7-1.5c0,0-0.2,0.6-0.2,0.9c-0.1,1-0.1,2-0.1,3c0,41.6,0,83.3,0.1,124.9
		c0,1.2-1,2.9,1,3.7c1.4,8.9,2.5,17.8,7.8,25.5c8,11.6,19.3,17.9,32.9,19.6c13.5,1.7,27,0.2,39.7-5.2c22-9.4,30.2-27.8,30.5-50.1
		c0.5-38.8,0.2-77.7,0.2-116.5c0-6-0.7-11.9-1.9-17.9c-3.6-17.4-13.8-27.1-31.2-29.5c-1.4-0.2-3.9,0.5-3.8-2c0.1-2.7,2.6-1.5,4-1.5
		c24.2-0.1,48.3-0.1,72.5,0c1.3,0,3.4-0.8,3.8,1.2c0.5,2.2-1.7,2.2-3.1,2.3c-22.1,1.2-30.6,19.9-32.3,38.5c-0.3,3.1-0.6,6.3-0.9,9.4
		c-0.1-0.8-0.2-1.6-0.3-2.4c-0.2,0-0.5,0-0.7,0C235.9,791.3,235.9,833.6,235.9,876z"/>
	<path fill="#B6C0B5" d="M592.2,695.9c15.7,0.6,31.1,3.2,46.6,5.3c2.6,0.3,3.1,1.8,3,4.1c-0.1,20.8,0,41.7,0,62.5
		c0,1.9,0.1,3.7-2.7,3.7c-2.6,0-3-1.6-3-3.6c-0.2-9.2-1.7-18.3-4.9-26.9c-8.5-23.1-26-35.1-49.6-39c-12.5-2.1-25.2-2.9-37.5,1.5
		c-18.5,6.6-28.6,21.1-35.1,38.6c-9,24.1-10.4,49.4-10.2,74.8c0.2,22.5,2.6,44.6,11.3,65.5c6.7,16.1,16.4,29.9,32.9,37.3
		c35.3,15.8,78.4-4.8,88.9-42.4c3.7-13.3,5.1-26.8,5.1-40.5c0-3.1,0.1-5.4,4.4-5.3c4.2,0.1,3.9,2.4,3.8,5.2
		c-0.2,15.7-1.6,31.3-6.7,46.3c-8.8,25.9-27.5,40.9-54,45.7c-29.1,5.2-57.6,2.3-84.2-11.2c-26.8-13.7-42.9-36.4-51.1-64.8
		c-9.2-31.9-8.2-63.7,5-94.4c15.2-35.4,43.1-54.8,80.5-61.3c2.9-0.5,5.9-0.7,8.9-1C559.9,695.9,576,695.9,592.2,695.9z"/>
	<path fill="#B6C0B5" d="M338.3,987.8c101.5,0,202.9,0,304.4,0.1c2.2,0,5.5-1.3,6.3,1.2c1.2,3.6,0.9,7.6,0,11.3
		c-0.3,1.2-1.5,1.2-2.5,1.2c-1.7,0-3.3,0-5,0c-201.9,0-403.9,0-605.8,0c-2.5,0-6.2,1.4-7.4-1.2c-1.5-3.4-0.7-7.5-0.3-11.3
		c0.1-1.3,1.4-1.3,2.3-1.3c1.7-0.1,3.3,0,5,0C136.3,987.8,237.3,987.8,338.3,987.8z"/>
	<path fill="#B6C0B5" d="M338.6,639.9c-101.3,0-202.6,0-304-0.1c-2.2,0-5.6,1.3-6.4-1.1c-1.2-3.7-0.8-7.9,0-11.9
		c0.2-1,1.7-0.9,2.6-0.9c1.7,0,3.3,0,5,0c201.8,0,403.6,0,605.4,0c2.5,0,6.1-1.4,7.5,1c1.8,3.3,0.8,7.5,0.5,11.3
		c-0.1,1.2-1.2,1.5-2.2,1.5c-1.7,0-3.3,0-5,0C540.9,639.9,439.7,639.9,338.6,639.9z"/>
	<path fill="#B6C0B5" d="M28,611.8c1.6-2.6,4.2-1.3,6.3-1.3c105-0.1,209.9-0.1,314.9-0.1c97.8,0,195.6,0,293.4,0.1
		c2.2,0,6.4-1.9,6.4,2.2c0,4.2-4.2,2.1-6.3,2.1c-202.9,0.1-405.9,0.1-608.8,0.1c-2,0-4.3,1.1-5.9-1.1c43,0,86,0.1,129,0.1
		c160.5,0,321,0,481.5,0c2.5,0,5.1,0.6,7.4-0.7c0-0.4-0.1-0.9-0.1-1.3C439.8,611.8,233.9,611.8,28,611.8z"/>
	<path fill="#B6C0B5" d="M28,1013.9c1.8-2.3,4.3-1.1,6.5-1.1c173.5-0.1,346.9-0.1,520.4-0.1c29.5,0,59,0,88.5,0c1.3,0,2.7,0,4,0.1
		c1.2,0,1.8,0.6,1.9,1.8c0.1,1.4-0.4,2.3-1.9,2.3c-1.5,0.1-3,0.1-4.5,0.1c-203,0-405.9,0-608.9,0c-2,0-4.3,1-5.9-1.2
		c41.8,0,83.7,0,125.5,0c161.7,0,323.3,0,485,0c2.5,0,5.1,0.6,8-1c-2.8-1.5-5.2-1-7.5-1c-60.3,0-120.7,0-181,0
		C314.6,1013.9,171.3,1013.9,28,1013.9z"/>
	<path fill="#B6C0B5" d="M28,1013.9c143.3,0,286.6,0,430-0.1c60.3,0,120.7,0,181,0c2.3,0,4.6-0.5,7.5,1c-2.9,1.6-5.5,1-8,1
		c-161.7,0-323.3,0-485,0c-41.8,0-83.7,0-125.5,0C28,1015.2,28,1014.6,28,1013.9z"/>
	<path fill="#B6C0B5" d="M28,611.8c205.9,0,411.8,0,617.8,0c0,0.4,0.1,0.9,0.1,1.3c-2.3,1.2-4.9,0.7-7.4,0.7c-160.5,0-321,0-481.5,0
		c-43,0-86,0-129-0.1C28,613.1,28,612.4,28,611.8z"/>
	<path fill="#B6C0B5" d="M477.7,316.3c0.2-6.1,2.1-7.4,6.9-4.4c1.7,1.1,3.2,0.5,4.8,0.1c7.5-1.6,15.2-2,22.9-2c5.2,0,6.5,2.6,3.8,7
		c-1.7,2.7-4.2,4.2-7.1,5.2c-4,1.5-8.2,2.6-10.9,6.5c-1.5,2.2-3.4,0.8-4.5-0.6c-2.5-3.3-6-4.4-9.8-5.4
		C480.5,321.9,477.1,320.7,477.7,316.3z"/>
	<path fill="#B6C0B5" d="M499,344.7c0.1,4.9-2,6.4-6.6,4.8c-1.1-0.4-2.2-0.8-3.2-1.5c-6.2-4.4-13-4.8-20-3c-3.8,1-7.6-0.6-11.3,0.3
		c-1.7,0.4-2.1-1.2-2.3-2.6c-0.4-3.8,3.4-7.1,7.3-5.5c6,2.4,11.4,1,17-0.9c3.2-1.1,6.4-2,9.8-1.6C495.5,335.5,498.9,339.1,499,344.7
		z"/>
	<path fill="#B6C0B5" d="M500.5,372.3c-5.2-0.4-7.3-3.2-9.8-5.2c-3.5-2.7-6.9-5.2-11.7-3.7c-2.3,0.7-3.9-0.7-4.8-2.6
		c-0.9-2,0.4-3.4,1.9-4.6c5.5-4.7,17.4-3.7,22,1.9c1.2,1.5,1.2,3.3,0.7,4.7C497.5,365.9,497.4,368.9,500.5,372.3z"/>
	<path fill="#B6C0B5" d="M118.9,877.5c-1.9-0.8-1-2.5-1-3.7c-0.1-41.6-0.1-83.3-0.1-124.9c0-1,0-2,0.1-3c0-0.3,0.2-0.9,0.2-0.9
		c0.9,0.1,0.5,1,0.7,1.5C118.9,790.1,118.9,833.8,118.9,877.5z"/>
	<path fill="#B6C0B5" d="M235.9,876c0-42.3,0-84.7,0-127c0.2,0,0.5,0,0.7,0c0.1,0.8,0.2,1.6,0.3,2.4c0.1,13,0.2,25.9,0.2,38.9
		c0,26.1-0.1,52.2-0.3,78.3C236.8,871.1,236.9,873.6,235.9,876z"/>
	<path fill="#B6C0B5" d="M592.2,695.9c-16.2,0-32.3,0-48.5,0C559.9,693.8,576,694.2,592.2,695.9z"/>
	<path fill="#B6C0B5" d="M372.2,695.9c-15,0-30,0-45,0c6.2-1.8,12.5-0.9,18.8-1.1C354.7,694.6,363.5,694.4,372.2,695.9z"/>
	<path fill="#B6C0B5" d="M350.6,924.9c0.2,0.1,0.3,0.1,0.5,0.2c0.1,0.1,0.1,0.2,0.2,0.4c-5.4,0.5-10.8,1.4-16.1-0.6
		C340.3,924.9,345.4,924.9,350.6,924.9z"/>
	<path fill="#B6C0B5" d="M285.9,140.7c-0.1,0.1-0.2,0.2-0.3,0.2c-0.2-0.3-0.2-0.4,0.2-0.1C285.9,140.8,285.9,140.7,285.9,140.7z"/>
	<path fill="#B6C0B5" d="M320.3,313.8c4.9,6.1,6.4,13.3,11.6,18.3C324.3,330.8,318.6,321.8,320.3,313.8z"/>
</g>
<path fill="#B6C0B5" d="M303.8,68.8c3.2-8.2,8.6-11.4,17.4-10.2c1.7,0.2,2.9-0.3,4.2-1.1c8.7-5.6,17.8-7.9,27.6-3.2
	c1.3,0.6,2.4,0.5,3.1-0.5c2.7-3.7,6.6-3.1,10.5-3.1C390.9,50.5,414.3,55,438,61c29.9,7.5,55.7,22.4,81.7,37.7c3,1.8,5.8,3.9,8.5,6.2
	c1.8,1.5,4.6,3,3.7,6c-0.8,2.6-3.8,2.5-6,2.8c-5.2,0.9-10.6,1.2-15.8,2.4c-17.1,3.8-31.9,11.3-41.6,26.9c-2,3.1-1.8,5.3,0.8,7.8
	c1.8,1.7,5.4,2.9,4.4,6c-1.5,4.4-1.9,9.7-7,12.2c-5,2.5-10.8,3.5-14.3,8.7c-1,1.4-3.1,0-4.6-0.6c-18.7-7.2-38.1-10.8-58.1-10.4
	c-28.6,0.5-55.1,7.1-76.8,27.1c-7.3,6.8-15.4,12.8-21.3,21c-1.5,2-2.9,4.1-4.2,6.2c-3.3,5.8-3.3,5.8,2.2,9.4
	c5.3,3.6,10,8.3,17.6,5.8c2.5-0.8,3.4,2.2,2.1,4.6c-1.3,2.3-2.6,4.6-0.4,6.8c2.2,2.2,4.7,0.9,7,0c1-0.4,2.2-1.6,3.1-0.3
	c0.7,1.1-0.2,2.2-0.9,3.1c-0.5,0.7-1,1.3-1.5,2c-0.8,1.1-1.6,2.4-0.5,3.6c1.1,1.2,2.2,0.1,3.1-0.4c3-1.6,4.8-0.9,5.2,2.5
	c0.5,4.2,2.4,5.1,6.1,2.9c2.1-1.3,4.7-3,6.6-0.1c1.8,2.6-0.2,4.7-2.3,6.3c-2.7,2.2-5.4,4.4-8.3,6.4c-2.9,1.9-1.8,3.1,0.5,4
	c4.4,1.8,8.6,0.8,12.5-1.2c24.3-12.5,50.1-21.7,75.4-32c29.2-11.8,59.4-19.8,91.2-19.8c7.9,0,15.6,0.7,23.1,3.3
	c12,4.1,16.6,13,12.7,25.1c-4,12.5-12.7,21.3-22.6,29.1c-9.9,7.8-10.1,7.7-16.3-3.1c-2.9-5.1-5.7-10.2-8.8-15.1
	c-1.8-2.9-4.4-5.3-8.3-3.9c-3.7,1.3-4.7,4.4-4.9,8c-0.5,9.1-4,13-12.7,14.8c-1.7,0.4-3.3,0.2-4.8-0.9c-16.8-12.3-35.1-10.5-53.6-5.5
	c-9.5,2.6-18.9,5.3-26.5,12.2c-5.3,4.8-5.1,7.2,1.6,9.8c5.7,2.3,11.5,4.2,14,10.9c0.7,1.9,3.3,3.4,5.3,4.4c4.4,2.3,3.5,6.7,4.5,10.4
	c0.3,1-0.7,1.9-1.7,2.2c-1.5,0.5-2.2-0.7-2.5-1.8c-0.9-3.7-3.1-5.4-6.8-6.3c-2.9-0.7-4.7-0.2-5.4,2.5c-1.4,4.9-2.9,2.1-4.3,0.2
	c-4.6-6.5-9.2-13.1-13.9-19.6c-1.2-1.6-2.3-5.2-4.2-4c-2.4,1.5,0.5,4,1.3,6c6.1,14.6,15,27.8,21.3,42.4c0.6,1.4,1.3,2.7,1.7,4.1
	c0.4,1.4,2.6,3.2,0.7,4.3c-1.6,0.9-2.6-1.5-3.5-2.7c-3-3.5-6-7.1-9.7-10c-5.2,7.9-5.1,8.3,0,15.5c3.1,4.4,7.4,8.1,8.5,13.9
	c0.5,2.8,3.4,2.6,5.4,1.8c6-2.2,9.9,0.7,13.5,4.9c1.2,1.4,2.3,2.9,3.4,4.3c4.9,6,7.6,6.6,13.8,2.1c3.4-2.4,6.9-2.8,10.4-1.2
	c10.8,5.1,22.1,5.5,33.7,4.1c6.3-0.7,12.7-1.1,18.8,1c3.3,1.1,7.4,2.4,7.4,6.4c0,4.2-2.3,8-6.8,9.6c-9.8,3.6-20.1,6.1-29.1,11.8
	c-2.7,1.7-5.5,3.2-7.9,5.2c-4.1,3.3-6.8,6.8-5.4,13.2c2.1,9.4-1.2,18.8-1.7,28.5c-3.8-0.8-3.7-3.6-4.1-6.2c-0.9-5.9-1.2-5.8-6.7-3.9
	c-5.3,1.9-8.3,5.1-9.1,10.7c-0.8,5.5-3.6,9.4-9.2,11.4c-4.3,1.5-7,5.2-8.8,9.1c-3.6,7.5-10.1,11.8-16.9,15.6
	c-4.9,2.7-10.1,0.2-13.2-6c-1.5-3.1-1.8-6.7-5.1-10.4c-0.3,8-4.3,14-3.9,21.2c0.3,4.9-1.4,6.2-6.6,5.4c-8.3-1.3-16.2-3.9-23.5-8
	c-5.8-3.3-10.8-3.2-16,1.1c-3.2,2.7-6.8,3.7-9.9-0.6c-1.2-1.7-3-1.1-4.6-0.7c-9,1.9-17.9,3.9-26.8,5.8c-7.1,1.5-14,0.9-20.5-2.3
	c-6.6-3.3-12.8-2.8-18.9,1.2c-4.1,2.7-8.6,4.5-12,8.7c-3.5,4.4-9.3,4.7-14.7,4.9c-0.9,0-1.6-0.5-1.9-1.3c-0.4-0.9,0.2-1.6,0.9-2.1
	c0.7-0.5,1.4-0.9,2.1-1.4c22.5-14,44.3-29.1,68.3-40.4c4.3-2,6.1-6.1,8.3-9.7c7.5-12.4,9.7-26.5,11.9-40.5c0.2-1.5,0.4-3,0.6-4.5
	c1.5-9.6,0.1-12.5-9-16.6c-3.4-1.6-6.3-3.8-8.7-6.5c-6.1-6.7-6.7-9.6-2.8-17.7c3.6-7.4,6.3-15,7.3-23.2c1-7.8-1.5-14.3-5.4-21.2
	c-5.2-9.2-11.8-11.6-21.4-8.9c-3.5,1-7.3-0.1-10.9-0.6c-3.1-0.4-4.8,0.8-6.4,3.4c-2.4,4-3.3,8.3-4.1,12.7
	c-5.1,27.5-10.9,54.9-20.4,81.3c-8.6,23.7-20.2,45.7-37.3,64.5c-5.7,6.3-13,10.5-20.2,14.5c-15,8.4-30.2,16.4-47.1,20.2
	c-5,1.1-10.2,1.6-15.3,2.5c-10.1,1.9-17.5-3.8-25.1-9c-2.1-1.4-1.9-2.9,0.4-4.1c11.9-5.9,23-13.4,36.5-15.6c3.1-0.5,5.5-2.8,8.3-4.2
	c7.3-3.7,14.8-6.9,22-10.7c28.1-14.9,48.2-37,58.8-67.1c3.3-9.4,6.6-19.4,2.4-29.7c-0.8-1.8-1.4-3.7-2.2-5.5c-1-2-2.5-3.1-3.7-0.3
	c-1.5,3.4-5.8,1.1-7.6,4.7c-2.6,5.2-6,10.2-11.2,13.6c-1,0.6-1.6,2.2-2,3.4c-0.5,1.4-1.1,3.2,0.2,4.2c1.4,1.1,2.7,0,3.9-1.1
	c1-0.8,2.3-1.3,3.5-1.8c1.9-0.8,4-1.5,5.3,0.8c1.2,2.4-0.2,4.2-2,5.5c-1.3,0.9-3.1,1.3-4.5,2.2c-4.4,2.6-4.9,5.3-1.6,9.1
	c1.2,1.4,1.5,2.7,1.3,4.5c-0.8,6.7-3,13-5.4,19.2c-1.2,3.1-14.1,9.8-17,9.2c-1.5-0.3-2.1-1.6-2.8-2.7c-1.8-2.9-4-3.1-6.6-1
	c-4.2,3.5-8.5,7-12.7,10.5c-0.8,0.7-2.2,1.4-1.7,2.7c0.5,1.4,2,0.8,3.1,0.9c0.9,0.1,2.2-0.5,2.6,0.7c0.5,1.3-0.4,2.3-1.3,3
	c-3.2,2.3-5.9,4.8-10.7,3.6c-5.1-1.2-9.7,1.5-14.1,4.1c-4.1,2.4-8,5.4-12.9,6.6c2.4-3.8,5.1-7.4,9-9.9c3-1.9,4.1-4.2,0.8-6.6
	c-3.1-2.2-1.5-3.6,0.4-5.3c10.7-9.7,22.1-18.8,31.4-30c6.4-7.8,11.7-16,13.4-26.4c0.8-5,4-9.4,7.2-13.5c1.2-1.5,2.8-2.5,4.8-2.2
	c3.9,0.6,5.5-1.5,6.3-4.8c0.6-2.5,1.5-4.8,4.1-5.9c0.5-0.2,1.2-0.9,1.2-1.5c1.2-9,8.3-16,8.8-25.3c0.1-1.2,1.4-2.8-0.1-3.5
	c-1.9-0.9-2.3,1.3-3.1,2.3c-10.6,14.4-21,28.8-31.6,43.2c-8.6,11.7-17.6,22.9-28.6,32.9c-0.5-6.3,2-11.1,6.7-14.6
	c5.3-3.9,9.5-8.8,12.9-14.5c2.4-4,4.7-8.1,7.2-12c2.3-3.5,3.8-6.9,2.5-11.2c-1.1-3.8,1.1-6.8,3.3-9.6c5.8-7.5,11.8-14.9,17.5-22.4
	c1-1.3,3.4-2.9,1.4-4.6c-2.2-1.8-3,1.2-4,2.3c-10.7,12.7-22.7,23.9-36,33.8c-1.2,0.9-2.3,2.6-3.8,2c-1.9-0.7-1.5-2.8-1.4-4.4
	c0.1-2.2,0.3-4.3,0.7-6.4c0.2-1.3,0.1-3.5,2.6-1.5c1.5,1.2,1.8-1,2.2-1.8c3.6-7.1,9.1-12.6,14.2-18.5c5.3-6.2,10.6-12.9,11.1-21.7
	c0.1-1.7,0.8-3.4,2-4.5c9.1-8.1,15.4-18.9,26-25.5c0.8-0.5,1.6-1.5,2.5-1.6c13.4-2,20.1-14.7,31.6-19.8c2-0.9,6.1-2.9,4.7-5.1
	c-1.8-2.9-4.6,0.7-6.8,1.8c-10.6,5.5-21.2,11.3-31.7,16.9c-1.1,0.6-2.4,1.9-3.6,1.2c-1.6-0.8-0.8-2.7-0.7-4.1
	c0.2-1.6,0.8-3.2,1.3-4.8c0.3-1.1,2.2-2,0.6-3.4c-1.1-1-2.5-0.9-3.8-0.5c-6.4,2.2-12.7,10.6-13,17.3c-0.2,4-3.2,5.1-6.1,4.9
	c-2.7-0.2-3.9,1.1-5.4,2.7c-6,6.4-12.2,12.8-18.3,19.2c-0.8,0.8-1.5,1.9-3.2,1.3c0.6-4.1,3-7.6,4.5-11.3c2.5-6,8.2-10,10-16.5
	c0.6-2.2,3.3-2.6,5.1-3.7c4.3-2.7,8.7-5.3,7.5-11.6c-0.4-1.8,1.3-2.5,2.4-3.5c1.7-1.7,1.5-3.1,0-4.7c-1.8-1.9-3-0.2-4.1,0.8
	c-4.3,4.1-7.2,9.6-12.2,13.7c-1.9-2.9-2.6-6.2-4.8-8.7c-1.9-2.2,0.2-3.7,1.6-4.9c7.7-6.7,15.4-13.2,23.1-19.8c1-0.9,2.2-1.6,3.1-2.5
	c1.3-1.3,4-2.2,3-4.6c-0.8-1.9-3.3-1.1-5-1.1c-3.8-0.1-9.1,0.8-10.4-3c-1.3-4,3.8-6.1,6.8-8.1c4.6-3.2,9.7-5.9,14.4-8.9
	c1.4-0.9,4.5-0.9,3.4-3.2c-0.9-1.8-3.3,0-4.8,0.7c-6.9,2.9-13.7,6.1-20.5,9.2c-1.7,0.7-3.2,1.8-5.1,1.8c-0.8-6.9,3.2-13.5,9.6-15.4
	c2.5-0.8,4.7-1.5,5.1-4.7c0.2-1.9,1.8-3.1,3.3-4.3c3.2-2.5,6.4-4.7,4.9-9.8c-0.7-2.4,2.1-3.8,3.9-5.3c2.3-1.8,5.5-2.3,7.7-5.4
	c-5.5-1.4-10.6-1.2-15.9-0.2c-0.6-2.2,0.9-3.8,1.8-5.4c2.1-3.6,3.8-7.3,4.3-11.6c0.5-4.6,3.7-7.3,7.8-9c5.1-2.1,10.2-3.9,15.6-6
	c-1.9-2.8-4.3-3-6.8-2.3c-2.9,0.7-3.4-0.3-2.2-2.8c4.4-9.3,10.8-17.1,19.2-23.1c0.9-0.7,2.2-1,2.6-2.2c3.2-8.8,11.1-13.4,17.2-19.5
	c3.7-3.7,8.6-5.1,13.8-2.9c1.1,0.4,2.3,1,3.1-0.4c0.9-1.5-0.5-2.1-1.3-2.8c-2.8-2.3-1.7-3.8,0.8-5.2c4.9-2.8,9.8-5.6,14.8-8.3
	c1.9-1,4.1-2.2,6-0.4c1.7,1.6,0.9,3.7,0.3,5.7c-0.6,2.1-1.7,4.1-0.8,6.3c1.2,3.3,5.4,4.5,8.1,2.4c3.4-2.7,6.2-3.7,8.6,1.2
	c0.9,1.7,2.5,3.1,3.8,4.6c1.6,1.9,3.1,0.8,4.3-0.3c1.7-1.4,0-2.4-0.9-3.2c-5.7-5.7-9.9-12.6-15.1-18.6c-2.2-2.6-1.9-4.1,0.9-5.9
	c3.8-2.3,8.1-2.8,12.2-4.3C301.5,64.5,301.8,67.8,303.8,68.8z M285.9,140.8c-0.4-0.3-0.5-0.2-0.2,0.1c0.1-0.1,0.2-0.2,0.3-0.2
	c0.3,4.7,2.8,8.7,3.7,13.2c0.1,0.6,0.4,1.4,1.3,1.3c3.9-0.6,4.6,2.7,5.9,5c2.7,4.6,4.7,5.2,9.3,2.2c3-2,5.3-5.1,9.2-6.1
	c0.9,2.5,1.7,5.1,2.7,7.5c0.6,1.4,1.5,2.7,3.3,1c4.3-3.9,10.5-6.8,7.4-15.3c5.2,3.3,9.3-0.5,13.2,0.5c7.1,1.8,12.1-1.1,16.6-6.1
	c2.6-2.9,8.9-2.8,11.6,0c2.2,2.2,3.7,1.2,5.3-0.7c1.8-2,1.7-5,3-6.9c1.7-2.6,10.9-1.5,12.7,1.4c1.4,2.2,2.1,2.5,4.4,1.2
	c7.1-4,13.5-2.9,19.2,3c1.1,1.1,1.8,1,3,0.4c4.6-2.6,8.6-1,12.5,1.7c2.3,1.6,4.6,3.4,7.1,4.7c4.2,2.2,10.1,0.7,11.6-3.2
	c2-5-2.2-6.6-5.4-7.9c-11.2-4.7-22.8-7.2-35.1-5.3c-1.1,0.2-2.2,0.7-3.3-0.2c-3.1-2.6-6.9-2.1-10.5-2.2c-5.1-0.2-10.3,1.8-15.2-1
	c-0.7-0.4-1.3,0.1-1.8,0.5c-7.3,6.4-15.6,4.4-23.7,2.3c-2.2-0.6-3.5-1.3-4.9,1.8c-2.2,4.8-6.5,4.6-8.8-0.1c-1.2-2.4-1.9-5-2.8-7.5
	c-1.1-3-1.6-6.4-4.7-8.7c-0.8,3.2,0.4,6.7-1.9,8.5c-3.2,2.6-3,4.3-0.3,7.1c2.9,3,0.1,5.9-2,7.6c-2.7,2.2-3.1-1.4-3.9-2.7
	c-4.6-7.3-8.6-15-12.4-22.8c-0.9-1.8-1-6-3.9-4.6c-3.2,1.6,0.4,4.1,1.2,6.1c2,4.9,4.1,9.8,5.7,14.9c1.6,5.2-2.5,6.5-5.4,8.1
	c-1.9,1-3.1-1.8-4.3-3.1c-5.9-6.6-10.3-14.4-16.9-20.3c-3.3-2.9-6.7-5.7-11.4-6.5c0.1,2.5,0.5,4.1,2.5,5c2.9,1.4,4.9,3.9,6.9,6.4
	c6.7,8.6,12,18,16.6,27.8c1,2.2,4,5.1,1.3,7.1c-3,2.1-4.8-1.6-6.7-3.5C294.6,147.9,291.3,143.1,285.9,140.8z M415.6,428.4
	c-0.7-3-2.6-6.3-6.7-8.1c-4.2-1.8-8.7-2.1-13.2-2.5c-6.1-0.5-12-1.4-15.8-7.1c-6.9-10.5-12.9-21.3-16.1-33.6
	c-1.2-4.5-2.9-8.8-4.5-13.2c-0.5-1.3-1.6-2.9-3.3-2.6c-1.7,0.3-2.3,2-2.3,3.5c0,3.1,0.1,6.3,0.3,9.4c2.2,23.9,6.4,47.4,14.9,70
	c1.6,4.2,4.1,4.6,7.3,1.2c2.5-2.7,5.5-4.5,9.1-4.6c6-0.1,12-2.8,18.1-0.3c0.5,0.2,1.7-0.3,2.2-0.8c2.2-2.6,5.2-4.1,7.8-6.1
	C414.8,432.6,416.2,431.5,415.6,428.4z M349.7,344.8c2.1,0.3,4.7-0.4,7.2-1.2c1.9-0.6,4.7-0.7,4.2-3.9c-0.4-3.1-0.4-6.9-4.4-7.5
	c-7.9-1.3-13.9-6.1-20.6-9.8c-3.4-1.9-2.9-3.3,0-5.2c5.3-3.5,5.6-4.3,1.5-9.1c-3.1-3.6-7-6.4-10.6-9.5c-1.1-0.9-2.5-0.8-3.8-0.2
	c-1,0.4-2.4,1.3-3.1,0c-0.7-1.5,0.6-2.5,1.8-3.1c2-1,4.4-1.5,2-4.4c-2-2.4-4.2-2.5-6.5-0.5c-2.3,2.1-3.5,4.8-4.5,7.7
	C305.1,321,323.5,344.8,349.7,344.8z M227.5,304.5c-5.4,3.4-9.5,7-13.6,10.6c-7.1,6.2-12.7,13.6-17.1,21.9c-0.8,1.4-2.9,3-0.8,4.8
	c2.2,1.8,3.1-0.7,4.4-1.7c0.3-0.2,0.5-0.5,0.7-0.7c2.6-2,5.6-6.6,7.8-4.8c2.8,2.3-1,6.3-2.5,9.2c-1.5,2.9-3.6,5.2,0.6,7.7
	c1.5,0.9,0.6,3.1,0.4,4.7c-0.5,4.3-1.7,8.6-1.4,13.6c4.2-2.8,6.7-5.7,7-10.7c0.3-5.4,0.3-11,3.1-16.2c1.9,2.3,1,5.3,3,8.1
	C224.3,335.7,225.9,320.5,227.5,304.5z M243.6,177.7c5.8,1.4,10.5,3.1,15.4,3.6c3.3,0.3,5,1.6,5.7,4.4c0.8,3.3,2,3.4,4.7,1.7
	c3.9-2.5,6-1.4,7.1,3.1c0.4,1.6,0.5,3.3,0.9,4.9c0.3,1.1,0.4,2.5,1.9,2.6c1.1,0.1,1.6-1,2.2-1.8c2.4-3.4,3.7-7.1,3.2-11.3
	c-0.5-5.2,0.9-9.6,4.9-13c2.1-1.8,1.8-2.9-0.2-4.6c-8-6.8-16.9-11.9-26.7-15.2c-3.7-1.3-7.6-2.7-12-1.7c7,4.7,13.7,9.9,21.6,12.6
	c4.8,1.7,6,4.6,6.3,8.8c0.1,2.1,0,4.3,0,7C267.4,175.6,256.4,170,243.6,177.7z M249.6,304.8c-0.3-0.3-0.6-0.5-0.6-0.8
	c0.1-16.3,2-32.2,11.3-46.2c0.9-1.4,2.2-2.6,0.5-4.4c-1.5-1.6-2.9-1.7-4.9-0.7c-6.4,3.4-12.3,13.7-11.2,20.7c0.5,3-0.1,5.4-1.3,8
	c-3.9,9.1-5.2,18.5-1.5,28.1c0.6,1.6,1,3.5,3.2,4.1c7.1,1.7,15.2-6.1,13.6-13.2c-0.3-1.3-0.6-2.8-2-3.2c-1.6-0.5-2.7,0.8-3.8,1.9
	C251.6,300.8,252,303.7,249.6,304.8z M202.3,233.8c5.3,0.5,9.7-1.9,14.3-3.6c5.7-2.1,11.4-3.3,17.5-1.2c5.6,1.9,12-0.6,15.4-5.3
	c1.2-1.6,2.2-3.4,3.2-5c0.6-1,2.3-1.7,1.4-3.4c-0.9-1.7-2.4-1.5-3.9-1.3C232.4,216.2,217.4,225,202.3,233.8z M190.8,321.4
	c4,1.1,6.3,0.6,8.4-2.1c1.8-2.5,4.3-4.6,6.7-6.6c6-5,12.6-9.3,18.1-14.8c2.2-2.2,4.6-4.4,5.2-7.7c0.3-1.6,1.4-3.6,0.1-4.7
	c-1.3-1.1-3.1,0.4-4.5,1.1C209.2,293.8,201.1,308.2,190.8,321.4z M297.3,373.7c8.4-1.7,16.8-3.4,25.3-5.1c1.5-0.3,2.6-1.4,3.7-2.4
	c2.8-2.6,2.1-6.1,1.1-8.8c-0.8-2.3-3.9-0.9-5.9-0.5C311.3,359.1,304.5,366.5,297.3,373.7z M241.7,238c-9.5,1.9-17.8,5.4-24.9,11.5
	c-1,0.9-3.2,1.4-2.4,3.2c0.6,1.4,2.6,1,4.1,1.3c9.5,2.1,14.7-4.6,20.7-9.9C240.7,242.7,242.2,241,241.7,238z M254.8,208.3
	c2.5,0,4.4-1.4,5.8-3.3c1.1-1.5,0.7-3.2-0.3-4.7c-1.5-2-3.5-1.4-5.5-1.1c-1.1,0.2-2.3,0.3-3.4,0.7c-1.7,0.7-4.7-0.7-5,1.8
	c-0.3,2.1,2.1,3.6,3.8,4.9C251.5,207.6,253.1,208.2,254.8,208.3z"/>
</svg>
